<?xml version="1.0" encoding="UTF-8"?>
<svg width="22px" height="24px" viewBox="0 0 22 24" version="1.1" xmlns="http://www.w3.org/2000/svg" xmlns:xlink="http://www.w3.org/1999/xlink">
    <!-- Generator: Sketch 55.2 (78181) - https://sketchapp.com -->
    <title>Icons/Apple_Podcast</title>
    <desc>Created with Sketch.</desc>
    <g id="Podcasts-Spezifikationen" stroke="none" stroke-width="1" fill="none" fill-rule="evenodd" stroke-linecap="round" stroke-linejoin="round">
        <g id="Overlay_Sendung/Podcast-Detail" transform="translate(-143.000000, -3793.000000)" stroke="#4E4D47">
            <g id="Group-Copy-8" transform="translate(48.000000, 3781.000000)">
                <g id="Group-5" transform="translate(94.000000, 12.000000)">
                    <g id="Icons/Apple_Podcast">
                        <g id="social-music-podcast" transform="translate(1.500000, 0.000000)">
                            <g id="Group" transform="translate(0.520333, 0.574243)">
                                <path d="M4.17597324,12.9447574 L4.17597287,12.9447568 C2.18526031,9.90017681 3.15472149,5.89018681 6.34131853,3.98819681 C9.52791975,2.08620681 13.7249647,3.01246081 15.7156772,6.05703681 C17.0970213,8.16965681 17.0932011,10.8507268 15.7058389,12.9597468" id="Path"></path>
                                <path d="M2.61960881,15.9257582 L2.61960958,15.9257582 C-1.09473212,12.0613182 -0.826916022,6.05168817 3.21779045,2.50285817 C7.26249587,-1.04594183 13.5524585,-0.790061826 17.2668316,3.07437917 C20.7492572,6.69753917 20.7608959,12.2612992 17.2936379,15.8976792" id="Path"></path>
                                <path d="M13.3508829,16.1457574 L13.3508829,16.1457571 C13.4780537,15.0478871 12.6496324,14.0593971 11.5005571,13.9378971 C11.4243942,13.9298437 11.3478262,13.9257605 11.271198,13.9257605 L8.6210872,13.9257605 L8.62108713,13.9257605 C7.464992,13.9257605 6.52772987,14.8210545 6.52764614,15.9256205 C6.52764614,15.9991668 6.53188164,16.0726575 6.54034909,16.1457575 L7.1233316,21.1457575 L7.12333159,21.1457575 C7.24066179,22.1586775 8.13638145,22.9253175 9.20301964,22.9257605 L10.6892587,22.9257605 L10.6892587,22.9257605 C11.7571005,22.9268475 12.6546214,22.1598135 12.7720866,21.1457575 L13.3508829,16.1457574 Z" id="Path"></path>
                                <path d="M11.7964024,7.69998737 C12.8182556,8.67629837 12.8182556,10.2592074 11.7964024,11.2355174 C10.7745492,12.2118284 9.11780187,12.2118284 8.09594971,11.2355174 C7.07409651,10.2592064 7.07409651,8.67629737 8.09594971,7.69998737 C9.11780292,6.72367637 10.7745502,6.72367637 11.7964024,7.69998737" id="Path"></path>
                            </g>
                        </g>
                    </g>
                </g>
            </g>
        </g>
    </g>
</svg>