<?xml version="1.0" encoding="UTF-8"?>
<svg width="24px" height="19px" viewBox="0 0 24 19" version="1.1" xmlns="http://www.w3.org/2000/svg" xmlns:xlink="http://www.w3.org/1999/xlink">
    <!-- Generator: Sketch 57.1 (83088) - https://sketch.com -->
    <title>Icon/Audithek</title>
    <desc>Created with Sketch.</desc>
    <g id="Icon/Audiothek" stroke="none" stroke-width="1" fill="none" fill-rule="evenodd">
        <path d="M12,0 C16.268909,0 19.7568689,3.55261815 19.9878252,8.02704662 C22.2435854,8.26920534 24,10.1794717 24,12.5 C24,14.433543 22.7804617,16.0821396 21.0686845,16.7188491 C20.726343,16.8556538 20.3565623,16.9502347 19.9610545,16.9922733 C19.7180121,17.0238312 19.4718927,16.9577772 19.287199,16.8114173 C19.1332683,16.6894699 19.0347994,16.5218928 19.0076472,16.3408731 L19.0000407,16.2309056 L19.005,8.549 L18.9999595,8.5 C18.9999595,4.44070709 16.0212992,1.13462828 12.232934,1.00400885 L12,1 C8.10151941,1 4.99995954,4.35786438 4.99995954,8.5 L4.994,8.546 L4.99995934,16.2309056 C5.00236966,16.4530368 4.89751787,16.6650805 4.71280104,16.8114173 C4.52810735,16.9577772 4.2819879,17.0238312 4.03894552,16.9922733 C3.64343773,16.9502347 3.27365702,16.8556538 2.93131547,16.7188491 C1.21953829,16.0821396 -2.93098879e-13,14.433543 -2.93098879e-13,12.5 C-2.93098879e-13,10.1794717 1.7564146,8.26920534 4.01229323,8.02611555 C4.24313112,3.55261815 7.731091,0 12,0 Z M20.0836746,9.14552195 L20.0794639,15.8936717 C20.7062148,15.8045277 21.2779948,15.5449853 21.7464732,15.1633297 C22.3832419,14.6207847 22.7814797,13.8940288 22.9329503,13.2139619 C22.9598342,13.084075 22.9793454,12.951494 22.9910112,12.8166577 L23.0025666,12.6127665 L23.0000212,12.5000004 C22.98688,12.2264605 22.9617082,11.9907947 22.9236034,11.7817818 C22.8086412,11.2605916 22.5744599,10.7842625 22.2510203,10.3827329 C22.2127073,10.3364141 22.1729368,10.2896557 22.1314079,10.2420413 C21.6101566,9.66189989 20.8928519,9.26166592 20.0836746,9.14552195 Z M3.91632538,9.14552195 C3.10714812,9.26166592 2.38984343,9.66189989 1.86859215,10.2420413 C1.82706325,10.2896557 1.78729268,10.3364141 1.74897967,10.3827329 C1.42554012,10.7842625 1.19135879,11.2605916 1.07639662,11.7817818 C1.03829184,11.9907947 1.01312,12.2264605 0.999978825,12.5000004 L0.997433383,12.6127665 C1.00298649,12.8182395 1.0267239,13.0191316 1.06704973,13.2139619 C1.21852031,13.8940288 1.61675814,14.6207847 2.25352685,15.1633297 C2.7220052,15.5449853 3.29378523,15.8045277 3.92053611,15.8936717 L3.91632538,9.14552195 Z M9.92104577,7.06313666 L15.160051,10.2460452 C15.3910941,10.3863373 15.3910941,10.6157272 15.160051,10.7560194 L9.91952575,13.9369589 C9.68848258,14.077251 9.5,13.9753546 9.5,13.7110147 L9.50101335,7.28908083 C9.50152002,7.02424866 9.69000261,6.92284452 9.92104577,7.06313666 Z" id="Combined-Shape" fill="#4E4D47" fill-rule="nonzero"></path>
    </g>
</svg>
