<?xml version="1.0" encoding="UTF-8"?>
<svg width="23px" height="24px" viewBox="0 0 23 24" version="1.1" xmlns="http://www.w3.org/2000/svg" xmlns:xlink="http://www.w3.org/1999/xlink">
    <!-- Generator: Sketch 55.2 (78181) - https://sketchapp.com -->
    <title>Icons/copy-paste</title>
    <desc>Created with Sketch.</desc>
    <g id="Podcasts-Spezifikationen" stroke="none" stroke-width="1" fill="none" fill-rule="evenodd" stroke-linecap="round" stroke-linejoin="round">
        <g id="Overlay_Sendung/Podcast-Detail" transform="translate(-151.000000, -3973.000000)" stroke="#4E4D47">
            <g id="Group-Copy-7" transform="translate(48.000000, 3961.000000)">
                <g id="Group-2" transform="translate(103.000000, 12.000000)">
                    <g id="Icons/copy-paste">
                        <g id="copy-paste">
                            <path d="M9.5,21.5 L1.5,21.5 C0.94771525,21.5 0.5,21.0522847 0.5,20.5 L0.5,4.5 C0.5,3.94771525 0.94771525,3.5 1.5,3.5 L3.5,3.5" id="Path"></path>
                            <path d="M13.5,3.5 L15.5,3.5 C16.0522847,3.5 16.5,3.94771525 16.5,4.5 L16.5,8" id="Path"></path>
                            <circle id="Oval" cx="8.5" cy="1.999" r="1.5"></circle>
                            <path d="M9.915,2.5 L12.5,2.5 C13.0522847,2.5 13.5,2.94771525 13.5,3.5 L13.5,4.5 C13.5,5.05228475 13.0522847,5.5 12.5,5.5 L4.5,5.5 C3.94771525,5.5 3.5,5.05228475 3.5,4.5 L3.5,3.5 C3.5,2.94771525 3.94771525,2.5 4.5,2.5 L7.085,2.5" id="Path"></path>
                            <path d="M22.5,22.5 C22.5,23.0522847 22.0522847,23.5 21.5,23.5 L12.5,23.5 C11.9477153,23.5 11.5,23.0522847 11.5,22.5 L11.5,11 C11.5,10.4477153 11.9477153,10 12.5,10 L19.586,10 C19.8511948,10 20.1055073,10.1054506 20.293,10.293 L22.207,12.207 C22.3945494,12.3944927 22.5,12.6488052 22.5,12.914 L22.5,22.5 Z" id="Path"></path>
                            <path d="M14.5,14.499 L19.5,14.499" id="Path"></path>
                            <path d="M14.5,17.499 L19.5,17.499" id="Path"></path>
                        </g>
                    </g>
                </g>
            </g>
        </g>
    </g>
</svg>