<svg xmlns="http://www.w3.org/2000/svg" width="24" height="24" viewBox="0 0 24 24">
    <g fill="#22211D" fill-rule="evenodd">
        <path d="M12.696 3.033a.414.414 0 0 0-.46.093L6.462 9H3.686C2.756 9 2 9.769 2 10.715v2.571C2 14.231 2.756 15 3.686 15H6.46l5.776 5.874a.417.417 0 0 0 .46.093.429.429 0 0 0 .26-.396V3.43a.429.429 0 0 0-.26-.396"/>
        <g stroke="#22211D" stroke-width=".2">
            <path d="M17.49 6.53a.428.428 0 1 0-.546.66c1.468 1.213 2.415 3.1 2.415 4.812 0 1.707-.948 3.595-2.415 4.81a.43.43 0 0 0 .546.66c1.656-1.371 2.726-3.518 2.726-5.47 0-1.957-1.07-4.104-2.726-5.471"/>
            <path d="M15.756 8.657a.428.428 0 0 0-.504.693c.7.51 1.537 1.383 1.537 2.651 0 1.27-.836 2.143-1.537 2.653a.428.428 0 1 0 .504.693c1.219-.886 1.89-2.074 1.89-3.346 0-1.27-.671-2.458-1.89-3.344"/>
        </g>
    </g>
</svg>
