<svg xmlns="http://www.w3.org/2000/svg" width="24" height="24" viewBox="0 0 24 24">
	<g fill="#FFF" fill-rule="evenodd">
		<path
				d="M13.667.543c-.2-.087-.433-.04-.587.118L5.7 8.168H2.154C.966 8.167 0 9.15 0 10.357v3.286c0 1.208.966 2.19 2.154 2.19H5.7l7.38 7.506c.104.104.24.16.382.16.068 0 .138-.013.205-.042.202-.084.333-.284.333-.506V1.05c0-.223-.13-.423-.333-.507"/>
		<g stroke="#FFF" stroke-width=".2">
			<path
					d="M19.794 5.01c-.233-.19-.578-.157-.77.075-.194.233-.16.58.072.77 1.876 1.548 3.086 3.96 3.086 6.147 0 2.182-1.212 4.594-3.086 6.145-.233.194-.266.54-.073.772.108.13.265.197.423.197.122 0 .246-.04.348-.126 2.116-1.75 3.483-4.493 3.483-6.988 0-2.5-1.367-5.244-3.483-6.99"/>
			<path
					d="M17.577 7.728c-.244-.178-.586-.124-.764.12-.178.244-.123.587.12.765.896.652 1.964 1.768 1.964 3.388 0 1.624-1.068 2.74-1.963 3.39-.244.178-.3.52-.12.764.105.148.273.226.443.226.11 0 .223-.033.32-.104 1.558-1.132 2.415-2.65 2.415-4.275 0-1.622-.857-3.14-2.415-4.272"/>
		</g>
	</g>
</svg>