<svg xmlns="http://www.w3.org/2000/svg" width="36" height="36" viewBox="0 0 36 36">
  <g fill="#FFF" fill-rule="evenodd">
    <path d="M17.8098462,11.0259253 C17.6947692,10.9732609 17.5624615,11.002593 17.4744615,11.0979223 L13.2572308,15.667062 L11.2307692,15.667062 C10.552,15.667062 10,16.2650367 10,17.0003389 L10,19.0002542 C10,19.7355563 10.552,20.333531 11.2307692,20.333531 L13.2572308,20.333531 L17.4744615,24.9020042 C17.5335385,24.9660014 17.6116923,25 17.6923077,25 C17.7316923,25 17.7716923,24.9920003 17.8098462,24.9746677 C17.9249231,24.9233366 18,24.8013417 18,24.6666808 L18,11.3339123 C18,11.1992513 17.9249231,11.0772565 17.8098462,11.0259253"/>
    <path stroke="#FFF" stroke-width=".2" d="M22.1852867,13.5332902 C22.0388561,13.4129833 21.8223036,13.4336073 21.7013093,13.5793505 C21.5803149,13.7257812 21.6009389,13.9430211 21.7473696,14.063328 C22.9250023,15.0354078 23.685342,16.5498999 23.685342,17.923461 C23.685342,19.2935848 22.9243149,20.8087644 21.7473696,21.7829066 C21.6009389,21.9045884 21.5803149,22.1211408 21.7013093,22.2675715 C21.7693686,22.3493802 21.8676765,22.3920032 21.9666719,22.3920032 C22.0436683,22.3920032 22.1213522,22.3658794 22.1852867,22.3129444 C23.5141624,21.2129956 24.37281,19.4902007 24.37281,17.923461 C24.37281,16.353284 23.5141624,14.6304892 22.1852867,13.5332902"/>
    <path stroke="#FFF" stroke-width=".2" d="M20.7957972,15.2456349 C20.6424919,15.1342651 20.4273144,15.167951 20.3159446,15.3212564 C20.2038873,15.4745617 20.2382607,15.6897392 20.391566,15.8017965 C20.9539149,16.21084 21.6248837,16.9120574 21.6248837,17.9295101 C21.6248837,18.9483377 20.9539149,19.6488676 20.391566,20.0579111 C20.2382607,20.1692809 20.2038873,20.3844584 20.3159446,20.5377638 C20.3826289,20.630572 20.4878116,20.6793822 20.5943691,20.6793822 C20.6638034,20.6793822 20.7346126,20.6587582 20.7957972,20.6140727 C21.7740642,19.9032308 22.3123517,18.9504001 22.3123517,17.9295101 C22.3123517,16.909995 21.7740642,15.9564768 20.7957972,15.2456349"/>
  </g>
</svg>