<svg xmlns="http://www.w3.org/2000/svg" width="64" height="64" viewBox="0 0 68 68">
  <g fill="none" fill-rule="evenodd" transform="translate(4 4)">
    <g fill="#FFF">
      <path
          d="M30.6672 18.5426c-.2014-.0865-.433-.0383-.587.1183l-7.38 7.5063h-3.5464c-1.1878 0-2.1538.9824-2.1538 2.1904v3.2856c0 1.208.966 2.1904 2.1538 2.1904h3.5464l7.38 7.5053c.1035.105.2403.161.3813.161.069 0 .139-.013.2057-.0416.2014-.0843.3328-.2848.3328-.506V19.0486c0-.2213-.1314-.4217-.3328-.506"/>
      <g stroke="#FFF" stroke-width=".2">
        <path
            d="M36.7937 23.0114c-.2332-.1915-.578-.1587-.7706.0734-.1926.233-.1598.579.0734.7706 1.875 1.548 3.0858 3.9594 3.0858 6.1465 0 2.1816-1.2117 4.5942-3.0858 6.1453-.2332.1938-.266.5386-.0733.7718.1084.1303.265.1982.4226.1982.1226 0 .2463-.0416.348-.126 2.116-1.7513 3.4833-4.4945 3.4833-6.9893 0-2.5003-1.3673-5.2435-3.4833-6.9906"/>
        <path
            d="M34.5773 25.7277c-.244-.1773-.5867-.1237-.764.1204-.1785.2442-.1237.587.1204.7653.8954.6513 1.9638 1.768 1.9638 3.388 0 1.6223-1.0684 2.7377-1.9638 3.389-.244.1774-.299.52-.1205.764.1062.148.2737.2256.4434.2256.1105 0 .2233-.033.3207-.104 1.5577-1.132 2.4148-2.6492 2.4148-4.2747 0-1.6234-.857-3.1417-2.4147-4.2736"/>
      </g>
    </g>
  </g>
</svg>