<?xml version="1.0" encoding="UTF-8"?>
<svg width="24px" height="24px" viewBox="0 0 24 24" version="1.1" xmlns="http://www.w3.org/2000/svg" xmlns:xlink="http://www.w3.org/1999/xlink">
    <!-- Generator: Sketch 57.1 (83088) - https://sketch.com -->
    <title>Icons/Audio_Icon_Small_Red</title>
    <desc>Created with Sketch.</desc>
    <g id="Explorationen" stroke="none" stroke-width="1" fill="none" fill-rule="evenodd">
        <g id="Icons/Audio_Icon_Small_Red">
            <g id="audio-icon">
                <circle id="Oval-1" stroke="#C91024" fill="#C91024" cx="12" cy="12" r="11.5"></circle>
                <g id="speaker" transform="translate(5.000000, 6.000000)" fill="#FFFFFF">
                    <path d="M6.55668141,0.0839333663 L2.94000006,4.00033889 L1.00012207,4 C0.418319873,4 0.000122070312,4.36974099 0.000122070312,5 L0.000122070312,7 C0.000122070312,7.63025901 0.418319873,8.00016944 1.00012207,8.00016944 L2.94191218,8.00016944 L6.55668141,11.9160036 C6.60731878,11.9708584 6.67430779,12 6.74340669,12 C6.77716493,12 6.81145064,11.9931431 6.84415394,11.9782866 C6.9427913,11.9342885 7.00714295,11.8297215 7.00714295,11.7142978 L7.00714295,0.286210512 C7.00714295,0.17078683 6.9427913,0.066219831 6.84415394,0.0222216949 C6.74551658,-0.02291925 6.63210999,0.00222254211 6.55668141,0.0839333663 Z" id="Fill-1581"></path>
                    <path d="M10.631782,2.2693531 C10.5074286,2.16718477 10.3235256,2.18469934 10.2207734,2.30846897 C10.1180213,2.43282242 10.1355359,2.61730922 10.2598893,2.71947755 C11.2599713,3.54499762 11.9056751,4.83115089 11.9056751,5.99762126 C11.9056751,7.16117254 11.2593875,8.44790962 10.2598893,9.27518115 C10.1355359,9.37851712 10.1180213,9.5624201 10.2207734,9.68677355 C10.2785715,9.75624801 10.3620576,9.79244479 10.4461276,9.79244479 C10.5115153,9.79244479 10.5774869,9.77025967 10.631782,9.7253056 C11.7603042,8.7911952 12.4894941,7.32814477 12.4894941,5.99762126 C12.4894941,4.66417865 11.7603042,3.20112823 10.631782,2.2693531" id="Fill-1582" stroke="#FFFFFF" stroke-width="0.5"></path>
                    <path d="M8.62743071,3.77996992 C8.53226821,3.91016156 8.56145917,4.09289691 8.6916508,4.1880594 C9.16921475,4.53543171 9.7390221,5.1309271 9.7390221,5.99497922 C9.7390221,6.86019899 9.16921475,7.45511055 8.6916508,7.80248286 C8.56145917,7.89706154 8.53226821,8.07979689 8.62743071,8.20998853 C8.68406116,8.28880409 8.77338546,8.33025524 8.86387741,8.33025524 C8.92284313,8.33025524 8.98297649,8.31274067 9.03493638,8.27479244 C9.86571082,7.67112359 10.3228411,6.86195044 10.3228411,5.99497922 C10.3228411,5.12917564 9.86571082,4.31941868 9.03493638,3.71574983 C8.90474474,3.62117115 8.72200939,3.64977828 8.62743071,3.77996992 Z" id="Fill-1583" stroke="#FFFFFF" stroke-width="0.5"></path>
                </g>
            </g>
        </g>
    </g>
</svg>