<?xml version="1.0" encoding="UTF-8"?>
<svg width="24px" height="24px" viewBox="0 0 24 24" version="1.1" xmlns="http://www.w3.org/2000/svg" xmlns:xlink="http://www.w3.org/1999/xlink">
    <!-- Generator: Sketch 55.2 (78181) - https://sketchapp.com -->
    <title>Icons/Spotify</title>
    <desc>Created with Sketch.</desc>
    <g id="Podcasts-Spezifikationen" stroke="none" stroke-width="1" fill="none" fill-rule="evenodd">
        <g id="Overlay_Sendung/Podcast-Detail" transform="translate(-176.000000, -3913.000000)">
            <g id="Group-Copy-6" transform="translate(48.000000, 3901.000000)">
                <g id="Group-3" transform="translate(128.000000, 12.000000)">
                    <g id="Icons/Spotify">
                        <g id="social-music-spotify">
                            <circle id="Oval" stroke="#4E4D47" stroke-linecap="round" stroke-linejoin="round" cx="12" cy="12" r="11.5"></circle>
                            <path d="M18.932,11.071 C18.6462836,11.0706426 18.3709867,10.9636619 18.16,10.771 C16.5767596,9.46952837 14.650519,8.65436671 12.614,8.424 C10.5998235,8.08425865 8.53039767,8.33286753 6.654,9.14 C6.08939468,9.38623637 5.43103052,9.14388607 5.16082953,8.59034931 C4.89062853,8.03681256 5.10454841,7.36866937 5.646,7.075 C7.93558405,6.07007735 10.4668701,5.74850088 12.935,6.149 C15.4269262,6.44580442 17.7789314,7.46025866 19.705,9.069 C20.0557661,9.38864878 20.1741587,9.89093425 20.0030732,10.3335875 C19.8319877,10.7762408 19.4065648,11.0683416 18.932,11.069 L18.932,11.071 Z" id="Path" fill="#4E4D47"></path>
                            <path d="M17.449,14.6580034 C17.2068894,14.658636 16.9728875,14.5707963 16.791,14.411 C15.42406,13.3211447 13.7786535,12.636858 12.042,12.436 C10.3135941,12.1489926 8.53930611,12.3541447 6.922,13.028 C6.42529335,13.2497844 5.84241064,13.0338497 5.61008164,12.5419869 C5.37775263,12.0501241 5.58120485,11.4627679 6.068,11.22 C8.03637573,10.3725963 10.206391,10.1071139 12.321,10.455 C14.4437003,10.7037222 16.4511501,11.5537485 18.107,12.905 C18.4207922,13.1792121 18.5316419,13.6192722 18.3851989,14.0094161 C18.2387558,14.3995599 17.8657227,14.6580034 17.449,14.6580034 L17.449,14.6580034 Z" id="Path" fill="#4E4D47"></path>
                            <path d="M16.338,18.4 C16.1200832,18.4003025 15.9095594,18.3210005 15.746,18.177 C14.5184374,17.1962649 13.0398245,16.5804938 11.479,16.4 C9.93537949,16.1449649 8.35120884,16.326102 6.905,16.923 C6.61021987,17.0978572 6.24171114,17.0901065 5.95454387,16.9030094 C5.66737659,16.7159123 5.51140377,16.3819494 5.55225943,16.0416536 C5.59311508,15.7013579 5.82370657,15.4138056 6.147,15.3 C7.90610417,14.5505138 9.84216856,14.3170901 11.729,14.627 C13.6376615,14.850485 15.4422639,15.6163999 16.929,16.834 C17.2054463,17.0819056 17.3012646,17.4741403 17.1702545,17.8215826 C17.0392444,18.1690248 16.7083036,18.4003416 16.337,18.404 L16.338,18.4 Z" id="Path" fill="#4E4D47"></path>
                        </g>
                    </g>
                </g>
            </g>
        </g>
    </g>
</svg>
