<?xml version="1.0" encoding="UTF-8"?>
<svg width="24px" height="19px" viewBox="0 0 24 19" version="1.1" xmlns="http://www.w3.org/2000/svg" xmlns:xlink="http://www.w3.org/1999/xlink">
    <!-- Generator: Sketch 57.1 (83088) - https://sketch.com -->
    <title>Icon/Videothek</title>
    <desc>Created with Sketch.</desc>
    <g id="Icon/Videothek" stroke="none" stroke-width="1" fill="none" fill-rule="evenodd">
        <g id="Video-Icon" fill="#dadad2" fill-rule="nonzero">
            <path d="M23,-9.23705556e-14 C23.5522847,-9.23705556e-14 24,0.44771525 24,1 L24,14.6606063 C24,15.2128911 23.5522847,15.6606063 23,15.6606063 L12.75,15.66 L12.75,17.5 L17.9757578,17.5 C18.2519001,17.5 18.4757578,17.7238576 18.4757578,18 C18.4757578,18.2454599 18.2988826,18.4496084 18.0656334,18.4919443 L17.9757578,18.5 L6,18.5 C5.72385763,18.5 5.5,18.2761424 5.5,18 C5.5,17.7545401 5.67687516,17.5503916 5.91012437,17.5080557 L6,17.5 L11.75,17.5 L11.75,15.66 L1,15.6606063 C0.44771525,15.6606063 0,15.2128911 0,14.6606063 L0,1 C0,0.44771525 0.44771525,-9.23705556e-14 1,-9.23705556e-14 L23,-9.23705556e-14 Z M23,1 L1,1 L1,14.6606063 L23,14.6606063 L23,1 Z M9.93307565,4.06494056 L15.3217667,7.33878932 C15.5594111,7.4830898 15.5594111,7.71903374 15.3217667,7.86333422 L9.9315122,11.1351577 C9.6938678,11.2794582 9.5,11.1746505 9.5,10.902758 L9.5010423,4.29734028 C9.50156345,4.02494148 9.69543125,3.92064008 9.93307565,4.06494056 Z" id="Combined-Shape"></path>
        </g>
    </g>
</svg>