<svg xmlns="http://www.w3.org/2000/svg" viewBox="0 0 1900 2298"><path d="M949.4 7.088H1889v1381c0 497-420 899-939.1 899-518.5 0-939-402-939-899v-1381l938.5.088z" stroke="#000" stroke-width="14.18" fill="#248bcc"/><path d="M949.9 2287c-518.5 0-939-402-939-899V7l938.5.088.5 2280z"/><path d="M919.9 857.4c-44.4 0-64.7-9.8-83-19.5-9.8-5.7-19.9-11.5-33.8-15.5-.3-.1-.7-.2-1.1-.2-.4-.2-.7-.3-1.2-.5-10-2.6-21.9-4.3-37.6-4.3h-1.1c-20.9 0-35.1 3-46.6 7.4-31.7 11.6-46.3 32.4-108.6 32.6-17-.1-30.5-1.6-41.5-4-46.1-9.9-52.4-36-113.4-36h-1.1c-75.6 0-70 40-157 40s-78.5-40-154.2-40c-70.31 0-72.77 33.6-125.3 38.3l-.01 127.4c52.54-4.7 55-38.2 125.3-38.2 75.7 0 67.2 40 154.2 40 12.8 0 23.5-.9 32.8-2.4v.1c52.3-4.7 54.9-38.1 124.7-38.3 60.6.2 66.5 26.1 114 36.1 10.9 2.4 24.1 3.9 40.8 3.9.2 0 .4-.1.7-.1s.5.1.7.1c65.5 0 77.6-20.9 107.9-32.6 12-4.3 26.5-7.3 47.2-7.4 15.7.1 27.9 1.8 38.1 4.5.5.1.8.2 1.2.3.4 0 .8.2 1.1.3 13.4 3.9 23.3 9.6 33.8 15.4 11.6 6.6 22.8 13.1 39.8 16.3v-.3c11.5 2.5 25.3 4.1 43.2 4.1 11.4 0 21.2-.7 29.7-1.8V855.6c-8.5 1.1-18.3 1.8-29.7 1.8m.01 170.6c-44.4 0-64.7-10-83-20-9.8-6-19.9-11.3-33.8-15.3-.3-.1-.7-.2-1.1-.2-.4-.2-.7-.3-1.2-.4-10-2.7-21.9-4.4-37.6-4.4h-1.1c-20.9 0-35.1 3-46.6 7.5-31.7 11.8-46.3 31.8-108.6 32.8-17 0-30.5-2-41.5-4-46.1-10-52.4-36.3-113.4-36.3h-1.1c-75.6 0-70 40.3-157 40.3s-78.5-40.3-154.2-40.3c-70.31 0-72.77 33.3-125.3 38.3l-.01 127c52.54-4 55-38 125.3-38 75.7 0 67.2 40 154.2 40 12.8 0 23.5-1 32.8-2 52.3-5 54.9-38 124.7-38 60.6 0 66.5 26 114 36 10.9 2 24.1 4 40.8 4h1.4c65.5 0 77.6-21 107.9-33 12-4 26.5-7 47.2-7 15.7 0 27.9 1 38.1 4h1.2c.4 0 .8 1 1.1 1 13.4 4 23.3 9 33.8 15 11.6 7 22.8 13 39.8 16 11.5 3 25.3 4 43.2 4 11.4 0 21.2 0 29.7-2v-127c-8.5 1-18.3 2-29.7 2m.01 170c-44.4 0-64.7-10-83-20-9.8-5-19.9-11-33.8-15H802c-.4 0-.7-1-1.2-1-10-2-21.9-4-37.6-4h-1.1c-20.9 0-35.1 3-46.6 7-31.7 12-46.3 33-108.6 33-17 0-30.5-2-41.5-4-46.1-10-52.4-36-113.4-36h-1.1c-75.6 0-70 40-157 40s-78.5-40-154.2-40c-70.31 0-72.77 33-125.3 38l-.01 128c52.54-5 55-39 125.3-39 75.7 0 67.2 40 154.2 40 12.8 0 23.5 0 32.8-2 52.3-5 54.9-38 124.7-38 60.6 0 66.5 26 114 36 10.9 2 24.1 4 40.8 4h1.4c65.5 0 77.6-21 107.9-33 12-4 26.5-7 47.2-7 15.7 0 27.9 2 38.1 4 .5 0 .8 0 1.2 1h1.1c13.4 4 23.3 10 33.8 15 11.6 7 22.8 14 39.8 17v-1c11.5 3 25.3 4 43.2 4 11.4 0 21.2 0 29.7-1v-128c-8.5 1-18.3 2-29.7 2" fill="#fff"/><path d="M1640 639.8l55 148.7h145l-114 78.7 43 140.8-129-82.7-129 82.7 45-141.9-116-77.6h146l54-148.7zm-449 0l54 148.7h146l-115 78.7 44 140.8-129-82.7-128 82.7 44-141.9-116.4-77.6H1136l55-148.7zm225 393.2l55 149h145l-116 78 45 142-129-83-129 82 44-141-115-79h145l55-148z" stroke="#000" stroke-width="14.18" fill="#fff"/><path d="M948.3 5.674v2281" stroke="#000" stroke-width="10.34" fill="none"/></svg>