<svg xmlns="http://www.w3.org/2000/svg" xmlns:xlink="http://www.w3.org/1999/xlink" width="407.152" height="493.613" viewBox="-176.681 -214.424 407.152 493.613"><path fill="#FFF" d="M26.78-212.905h202.184v297.18c0 106.805-90.469 193.375-202.055 193.375-111.59 0-202.07-86.57-202.07-193.375v-297.18H26.78z"/><defs><path id="a" d="M-176.681-214.424h407.152v493.613h-407.152z"/></defs><clipPath id="b"><use xlink:href="#a" overflow="visible"/></clipPath><path clip-path="url(#b)" fill="none" stroke="#010202" stroke-width="3.048" d="M26.78-212.905h202.184v297.18c0 106.805-90.469 193.375-202.055 193.375-111.59 0-202.07-86.57-202.07-193.375v-297.18H26.78z"/><path fill="#010202" d="M-39.787-112.249c21.641 8.055 45.262 17.223 50.535 21.504 1.504 1.223-14.84 14.832-15.574 41.688-11.371 4.656-14.555-.41-14.555-.41s-3.125.473-4.063 2.504c-8.273-4.766-6.391-11.215-12.25-7.293-1.375.918-6.941-9.707-9.328-4.969-5.949-1.359-5.344-7.785-6.973-8.145-1.602-.336-5.016 2.246-5.945.504-1.504-2.938-3.238-6.41-3.816-6.922-.609-.496-1.375 1.625-3.871.84-2.551-.813-3.93-6.773-6.129-7.621-4.535 1.598-6.84-5.145-7.113-6.059-.742 1.852-6.863 2.488-5.965-.648 3.152-10.926-13.355-13.344-11.465-23.848-23.656-3.695-17.48-41.902-22.121-42.711-8.559-1.504-14.48-.969-14.48-.969s.961-6.168 12.914-6.934c-6.121-3.984-14.402-5.023-14.402-5.023s3.57-4.824 18.418-2.25c-3.066-7-10.891-10.449-10.891-10.449s9.152-2.094 18.297 5.504c-.457-8.758-7.656-15.887-7.656-15.887s8.945-1.09 17.09 12.719c2.277-8.301-.777-17.125-.777-17.125s9.578 1.238 11.84 18.527c7.816 10.352 1.848 25.719 9.832 43.496 4.441 9.888 20.343 13.239 38.448 19.977m29.793 240.79c6.68-22.75 29.383-36.891 52.402-35 1.219-4.688 2.266-9.891 1.844-10.719-13.503-28.516-21.535-30.391-21.535-30.391s-29.762-6.672-47.746 1.672c-3.598 1.688-30.469 17.594-25.176 18.766 8.691 1.906-3.461 7.516-5.398 12.188-1.91 4.672 2.855 3.547 3.07 4.109.531 1.422-12.023 13.578-8.902 14.219 11.648 2.25-5.238 13.828-1.633 14.688 10.031 2.359-2.262 12.438 1.32 12.953 1.266.164 3.719.797 5.703 1.078-1.117 1.984-4.094 7.688-3.445 13.594.277 2.734 3.496-2.492 5.133 1.109-8.254 6.688 7.18 25.813 8.266 37.203-5.59.625-4.656-6.422-9.504-8.508-2.617 4.758-7.938 4.703-14.289 3.164-6.32-1.547-13.727-4.625-20.488-4.719-14.91-3.758-21.102 1.328-22.461 3.031.445.141 5.68 1.328 13.168 4.539-12.648.922-14.898 8.523-14.898 8.523s6.512-.375 14.609 1.203c-13.121 6.609-11.313 13.922-11.313 13.922s7.266-4.266 14.754-4.844c-4.051 3-7.402 9.578-4.922 14.281 2.977-2.766 8.719-5.391 10.785-6.25-2.785 6.297-2.359 10.891.711 14.25 8.16-11.156 11.105-10.469 13.48-10.297 1.297.117 4.824 1.234 10.016 1.773 4.32.453 9.793.289 16.055.648 15.016.859 32.457 1.352 43.938-10.156-3.551-25.623-9.993-54.147-3.544-76.029"/><path fill="#010202" d="M15.397-121.018s-.695 7.664 4.945 8.16c1.816.145 8.504-.48 17.16.688 18.203 2.418 38.859 8.902 53.938-5.801 13-12.711 2.797-31.521 14.484-39.543 9.594-6.641 20.156-.656 20.578 1.91-14.344-5.23-17.359-.598-19.016.508-11.563 7.773 5.703 47.32-38.219 48.492-15.297.41-31.398 1.234-38.375 7.984-3.961 3.801-7.922 3.586-13.625 8.738C1.702-75.948 1.147-58.354-.466-49.729c-.641 3.391 1.121 2.313 1.121 2.313s9.832-2.488 15.863-3.203c1.078-.141 1.207.488 1.207.488s.328 1.184-1.039 1.281c-20.082 1.184-73.305 24.457-97.199 24.703-1.508-.328-15.426-3.473-17.152-10.934 1.934-2.344 10.84 11.375 19.184 7.184-9.824-8.066-15.863-27.199-27.051-32.953-7.184-20.582-16.398-20.938-16.398-20.938s5.273 17.266 3.594 20.73c-14.496-13.898-22.547-9.953-22.547-9.953l12.922 16.266s-14.906-6.785-21.891-.859c8.707 3 16.656 8.547 16.449 10.363-1.086.184-13.52-.953-16.129 6.063 4.938.594 13.641 3.031 15.059 5.457-5.16 2.313-14.617 5.625-13.344 13.512 6.445-1.266 11.473-4.871 17.238-4.016 7.824-2.379 14.512 5.871 23.426 14.719C-96.673.904-81.329 10.775-74.09 7.869c1.746-.703.727-2.309 2.008-2.527 1.313-.199 10.168 7.441 10.832 5.266 2.207-7.25 2.52-3.313 6.504-1.563 2.023.875 5.234.203 7.961 2.266 1.75-7.785 12.984 3.922 15.535-2.801 5.625.832 11.609 4.656 10.727-1.871 7.258 4.512 7.914 2.184 11.578 3.887.344-6.656 7.734-1.277 10.488-1.328 28.944-.575 36.077-8.919 41.6-20.247 2.234-4.578 4.703-4.266 3.969-1.594-4.109 14.441-14.5 24.891-38.785 23.754-1.348-.066-1.977.473-2.531 1.297-.551.824-.527 1.488-.383 4.406.23 6 17.137 25.313 26.426 38.594 12.18 17.375 16.836 26.344 15.344 30.211-2.602 6.859-7.742 43.375-7.492 44.531.266 1.156 2.227 2.188 4.195.578 2.359 2.453-2.18 11.859.75 12.094 2.188-1.391 4.922-2.594 4.922-2.594s-4.586 10.563 2 15.609c.867-2.953 3.461-5.109 3.461-5.109s-1.297 10.234 5.094 13.094c.094-.641.016-1.063.734-4.313 3.828 12.375 5.641 13.516 6.625 12.641 1.031-.828-1.844-5.172 1.508-4.219 1.148 10.797 4.531 10.656 4.531 10.656s.422-.453 2.031-2.969c3.82 9.172 25.047 18.328 21.211 40.344-.75.492-2.5.422-3.016-1.281-.523-1.703-1.852-6.719-2.469-7.406-.609-.688-2.438-2.891-16.625-4.406-14.219-1.469-21.25 4.984-21.25 4.984s-15.719-4.688-24.125 5.234c4.969-1.047 17.227 4.828 17.227 4.828s-12.617 2.719-14.539 14.25c8.969-4.156 18.125-3.016 18.125-3.016s-11.133 7.625-8.883 18.406c7.836-7.357 16.07-9.281 16.07-9.281s-7.563 11.359-1.297 18.922c3.063-3.97 8.625-12.281 12.844-11.641 1.703 11.25 8.859 15.234 9.859 14.438.961-.781-1.938-10.392 5.273-16.328 12.383-2.656 42.789-7.867 54.547-33.313-1.383-7.852-26.266-44.734-25.742-71.273.148-7.43 1.281-36.773 1.281-36.773s.906-15.523-5.906-26.969c4.219.313 5.859 7.844 8.266 9.203 2.445 1.375 4.359-2.078 4.359-2.078l-.898-6.469 4.836 5.234s4.164-8.234.672-18.414c-3.5-10.18-19.836-29.328-22.094-36.047-1.547-4.672-4.516-24.543-5.656-31.801-1.172-7.25-.766-30.656-.766-30.656s3.438.512 5.672 2.297c1.828-1.938-.875-8.512-.063-9.488.766 1.277 3.852 1.391 5.688 3.113 2.953-5.41.344-10.691.063-11.379 4.969 1.922 9.547 1.512 10.281-.215-1.891-1.734-4.508-12.016-4.375-13.313 1.922-.84 7.375 3.512 8.328 1.938-2.969-4.168-1.359-10.617-6.047-17.77 1.734-1.23 3.57 1.023 5.672-2.008-9.164-12.938 2.094-24.672 1.141-34.32-1.578-15.367-10.984-17.969-10.984-17.969s24.766-.109 19.578-17.992c-5.234-17.855-18.094-6.48-26.516-11.078-8.422-4.609-8.219-16.824-21.188-17.488-18.359-.953-42.852 11.504-57.098 11.504-4.426-.031-3.852.695-14.402-2.082-2.766 13.387 2.73 14.793 1.137 17.922-2.961 5.848-1.848 7.328-1.848 7.328l1.566.031c-.43 2.066-.613 6.023 2.633 10.52 3.895-5.375 5.184-8.773 5.617-10.375l1.078.031c-.176 2.457-.078 6.969 2.539 10.344 3.949-3.551 5.324-8.063 5.805-10.199h.227s8.98-.594 14.699 2.242c5.75 2.828 5.508 12.813 5.508 12.813s-15.586-4.672-22.289-4.527c-9.504.176-24.23 3.77-33.168 1.898-8.961-1.883-17.063-13.355-17.063-13.355s-14.066 19.922 17.383 24.656c7.016 1.051 13.625.656 19.344-.164 0 0 14.984-2.938 18.199-3.336 3.18-.395 16.273 1.293 16.273 1.293s-.734 4.242-7.172 4.242c-2.14.008-27.667-.441-27.667-.441"/><path fill="#010202" d="M90.557-181.811c6.898-8.359 33.734-2.84 21.406 17.043-10.586 2.664-11.632-15.488-21.406-17.043"/><path fill="#E8423F" d="M-22.083-137.62c0 1.41.266 2.715.824 3.891 2.07 4.625 8.121 7.711 17.984 9.184 5.816.871 11.918.824 18.75-.16.105-.023 14.914-2.922 18.246-3.336 2.852-.352 11.813.68 15.508 1.137l1.609.207a61.3 61.3 0 0 0 .602-2.672c-.422-.145-1.734-.449-1.734-.449-3.414-.977-15.109-4.191-20.406-4.07-3.367.07-7.445.574-11.773 1.113-7.793.973-15.84 2-21.848.742-7.016-1.479-13.371-8.098-16.336-11.617-.708 1.624-1.426 3.761-1.426 6.03m37.48 200.645S23.116 60.9 34.51 64.9c1.508 2.531 4.477 6.859 6.602 11.547-4.391-4.625-25.715-13.422-25.715-13.422M-145.9-55.788c4.754 2.02 10.418 5.203 12.871 7.984.859-1.984 2.867-4.816 3.609-5.781-2.398-.96-10.726-3.992-16.48-2.203m-.887 15.395c3.457.672 9.168 2.199 12.168 4.297-.063-.771-.121-1.531-.121-2.281 0-1.816.191-3.563.504-5.266-1.695 0-10.015.137-12.551 3.25m8.918-29.473c.699.879 10.641 13.406 11.008 13.863 1.754-1.344 5.715-3.527 6.992-4.23-8.718-8.258-14.839-9.68-18-9.633m-8.3 47.52a57.379 57.379 0 0 0 4.551-1.457c2.992-1.094 6.094-2.215 9.457-2.16-.832-1.918-1.504-4-1.961-6.184-1.922.754-11.649 4.816-12.047 9.801m29.804-40.856a8.51 8.51 0 0 1-.293 2.297c1.504-.168 6.359-.641 9.176-.328-4.234-11.715-9.059-16.176-11.93-17.871 1.223 4.375 3.047 11.574 3.047 15.902M33.487 211.65c5.742.984 12.969 4.391 13.789 4.789 0 0 .727.359 1.18.539-.031-.156-.031-.313-.031-.469 0-3.125 1.016-5.641 2.891-7.547-4.431-.765-12.118-1.265-17.829 2.688m17.594 18.828c-.078.047-8.047 5.703-8.391 13.688 6.273-5.078 12.227-6.984 13.688-7.375-.922-.953-1.75-2.078-2.555-3.391.016.016 0 .016-1.203-2.266 0 0-.508-.906-.688-1.25-.164.094-.422.282-.851.594m-4.227-10.969c-.086.016-9.164 2.188-12.297 10.031 8.148-2.875 15.445-2.094 15.727-2.031 0 0 .406.031.719.078-1.359-2.906-2.18-5.734-2.5-8.438-.243.063-.735.157-1.649.36m23.617 25.688a.15.15 0 0 1 .023.078c1.109 7.219 4.539 11.148 6.672 12.547v-1.625c0-2.984.391-7.328 3.305-11.172-2.781.937-6.273 1.016-10 .172m-11.812-6.055c-.039.063-3.492 5.359-3.492 10.805 0 1.625.359 3.063.961 4.359 2.859-3.859 6.922-9.25 11.039-10.205-3.102-1.107-6.055-2.81-8.508-4.959M-89.955-176.354s.016-.008.016-.023c-1.391-9.105-4.902-13.184-7.418-14.992a35.18 35.18 0 0 1 .816 6.824c.059 2.465-.168 5.137-.895 7.793l-.215.797c2.767-.751 5.415-.895 7.696-.399m-10.718-.031c-4.121-7.023-8.426-9.871-11.402-11.063 2.199 3.07 4.961 7.887 5.258 13.406l.07 1.48c2.266-1.168 4.535-2.051 6.762-2.648l-.688-1.175zm-15.633 8.918c-6.863-1.199-11.051-.711-13.52.02 3.063.758 7.262 2.109 10.895 4.438l.574.375c.977-1.453 2.234-2.934 3.691-4.344l-1.64-.489zm-3.563 7.304c-6.109.395-8.887 2.242-10.199 3.703 1.785 0 5.465.184 9.176.57.082-1.359.457-2.816 1.16-4.289l-.137.016zm11.532-11.496l-1.379-1.16c-4.293-3.551-8.535-4.809-11.656-5.207 5.289 3.473 7.754 9.113 8.066 9.84.52-.527 2.734-2.168 4.352-3.137.191-.109.39-.215.617-.336m14.992 371.653l-2.168 1.609c-2.844 2.125-5.113 5.969-5.113 9.375 0 .297.07.547.094.844 3.531-2.5 8.152-4.5 9.195-4.938l2.871-1.188c-1.879-1.671-3.578-3.585-4.879-5.702m-3.012-8.703l-2.848 1.406c-7.199 3.656-9.512 7.344-10.207 9.711 2.922-1.398 7.754-3.297 12.762-3.695l2.52-.18c-.105-.211-.242-.422-.336-.656a24.9 24.9 0 0 1-1.891-6.586m.113-8.391l-3.32.234c-7.191.516-10.598 3.297-12.16 5.297a69.71 69.71 0 0 1 12.09 1.266l3.16.609a25.908 25.908 0 0 1 .23-7.406m7.106 26.109c-1.129 2.594-1.723 4.875-1.723 6.859 0 1.484.371 2.766.977 3.938 4.617-5.969 7.648-8.203 10.113-8.875-2.801-1.063-5.602-2.703-8.09-4.766l-1.277 2.844zm-20.168-32.718c2.375.703 5.926 1.875 10.305 3.75l3.094 1.328c.648-2.5 1.641-4.703 2.953-6.313-8.727-1.812-13.809-.219-16.352 1.235m218.488-318.325s-1.688.168-1.594 1.215c.102 1.066 1.359 1.234 1.359 1.234s6.836 1.848 8.563-5.691c-1.148 3.602-8.328 3.242-8.328 3.242m.836-5.527c-.578-.121-2.359.84-2.328 1.902.031.57.656.602 1.258.695 2.773.395 8.953-4.504 6.195-5.406-1.125-.375-1.375 3.032-5.125 2.809m-31.805-24.176c-.703-.695-22.359 7.191-22.82 11.063-.031.313.43 1.32 1.531 1.082.813-.168 11.563-1.281 19.813-.84 3.172.176 6.031.879 7.703 1.535 2.234.848 5.344.52 5.477-.441.102-.984-7.867-3.254-11.375-3.535-6.359-.535-18.984 1.063-18.984 1.063s19.64-8.919 18.655-9.927"/><path fill="#FFF" d="M14.901-144.338c0 1.398.273 3.16 1.266 5.145 2.117-3.246 3.262-5.816 3.742-7.184-1.77-.113-3.496.031-4.785-.055a9.62 9.62 0 0 0-.223 2.094m9.519-.633c0 1.777.25 4.074 1.234 6.121 2.23-2.641 3.285-5.77 3.734-7.527-1.664 0-3.391-.008-4.914-.129-.03.449-.054.953-.054 1.535m-114.777 19.144c4.473-16.246-7.07-31.656-6.863-44.223-3.734 9.52 1.922 19.695 3.914 29.816 2.191 11.063 1.512 20.168-6.066 20.102-1.422.035-1.301 1.426-.488 1.41 6.64-.288 8.21-3.234 9.503-7.105m166.555-32.062a3.124 3.124 0 0 1 1.328 2.535c0 1.762-1.461 3.16-3.25 3.16-1.82 0-3.273-1.398-3.273-3.16 0-1.152.617-2.129 1.586-2.688-2.953.633-5.586 2.641-5.586 3.734 0 1.289 3.617 4 7.156 4.121 3.375.121 6.703-2.918 6.703-3.926-.008-.807-2.125-2.968-4.664-3.776"/><path fill="#010202" d="M17.428-127.124c-.672 1.242-1.504 3.191-1.504 5.402 0 2.398.93 4.453 2.711 5.969l.402.328h7.383l-1.52-2.059c-.969-1.277-1.617-2.895-2.352-4.711-.832-2.168-1.656-4.031-2.984-5.266l-1.305-1.168-.831 1.505z"/><path fill="#010202" d="M26.924-127.506c-.68 1.402-1.512 3.711-1.512 6.863 0 1.176.176 2.504.465 3.875l.223 1.086 3.785-.16 3.406-.113 2.414-.063-1.344-1.93c-.781-1.133-1.438-2.629-2.156-4.23-.887-2.047-1.777-4.016-2.977-5.551l-1.336-1.711-.968 1.934z"/><path fill="#FFF" d="M21.292-121.729c-.789-1.945-1.527-3.738-2.672-4.793-.75 1.344-1.336 3.023-1.336 4.801 0 .254.016.504.043.75 1.078.016 2.559.051 4.293.082-.118-.297-.223-.559-.328-.84m9.707.055c-.867-1.895-1.73-3.832-2.852-5.281-.52 1.082-1.324 3.195-1.359 6.137 1.504.031 3.059.059 4.602.09a19.298 19.298 0 0 1-.391-.946m2.363 4.84h-.016.016z"/></svg>