<svg xmlns="http://www.w3.org/2000/svg" xmlns:xlink="http://www.w3.org/1999/xlink" width="407.543" height="494.059" viewBox="-176.544 -214.721 407.543 494.059"><path fill="#FFF" d="M27.088-213.19h202.395V84.275c0 106.875-90.568 193.532-202.25 193.532-111.703 0-202.242-86.657-202.242-193.532V-213.19H27.088z"/><defs><path id="a" d="M-176.544-214.721h407.543v494.059h-407.543z"/></defs><clipPath id="b"><use xlink:href="#a" overflow="visible"/></clipPath><path clip-path="url(#b)" fill="none" stroke="#010202" stroke-width="3.048" d="M27.088-213.19h202.395V84.275c0 106.875-90.568 193.532-202.25 193.532-111.703 0-202.242-86.657-202.242-193.532V-213.19H27.088z"/><path fill="#010202" d="M-170.048 30.888v1.281s12.563 1.785 17.738 10.715c5.16 8.906 48.254 115.719 47.648 119.25.672.063 1.148-.25 1.148-.25l46.969-116.969s4.527-11.809 15.641-11.73c2.832-.25 4.152-.512 4.152-.512v-1.281l-42.832.266v1.262h4.625s12.664-.031 8.055 14.816c-4.625 14.852-29.945 88.117-29.945 88.117s-33-82.883-34.293-93.211c-1.297-10.344 11.742-10.234 11.742-10.234h2.977v-1.27l-53.625-.25zM166.139 153.9s-10.484-1.781-11.766-8.18c-1.297-6.406-.523-53.688-.523-53.688s1.125-1.102 1.813-.773c.695.344 2.445 2.672 2.445 2.672s24.813 58.172 53.125 58.625c2.563 0 3.656.414 5.938-.094-28.734-28.547-34.594-51.125-37.469-55.5-2.875-4.391 1.18-6.172 2.539-6.219 35.03-1.094 37.164-27.891 37.313-30.922.789-14.891-11.953-22.328-20.166-25.063-8.234-2.719-26.344-3.063-26.344-3.063l-24.805 1.016h-7.164l-17.867-2.344s-.758.098-.836.359c-.063.266.164.543.25.754.891 1.934 11.438 3.543 12.328 6.605 1.75 6.031-.266 104.563-.266 104.563s-1.984 10.219-14.836 11.25c.141.156 0 1.266 0 1.266h46.289l.002-1.264zM-46.302-113.92c20.277 6.961 52.734 19.641 58.414 23.297-2.535 2.511-14.168 14.871-18.75 41.824-10.352 4.688-13.434-.422-13.434-.422s-4.031.184-4.84 2.229c-7.762-4.816-6.23-11.336-11.512-7.375-1.238.934-7.055-9.52-9.129-4.707-5.504-1.406-5.137-7.887-6.648-8.246-1.488-.344-4.566 2.262-5.453.512-1.496-2.992-3.176-6.504-3.73-7-.559-.512-2.27.922-4.613.113-2.355-.801-3.809-6.832-5.867-7.699-4.133 1.602-6.445-5.223-6.719-6.148-.625 1.871-6.258 2.512-5.504-.672 2.594-11.051-14.664-10.715-13.207-21.336-21.93-3.746-17.242-44.531-21.555-45.344-7.926-1.531-13.367-.992-13.367-.992s.703-6.25 11.695-7c-5.758-4.043-13.422-5.09-13.422-5.09s3.137-4.895 16.91-2.281c-3.023-7.07-10.344-10.574-10.344-10.574s8.402-2.113 17.051 5.566c-.699-8.863-7.547-16.063-7.547-16.063s8.219-1.113 16.137 12.863c1.863-8.398-1.223-17.328-1.223-17.328s8.863 1.266 11.445 18.77c7.504 10.445 2.457 26.008 10.305 43.984 4.379 10.025 17.633 13.193 34.907 19.119"/><path fill="#010202" d="M-9.728 127.478c6.68-22.75 29.305-37.875 52.297-35.969 1.211-4.703 2.242-8.922 1.852-9.75-13.492-28.516-21.5-31.719-21.5-31.719s-29.727-6.344-47.633 2.016c-3.598 1.688-30.398 18.578-25.117 19.719 8.672 1.922-3.465 7.547-5.379 12.203-1.926 4.688 2.832 3.563 3.059 4.141.535 1.406-12.008 13.578-8.883 14.188 11.625 2.297-5.238 13.844-1.621 14.703 10 2.375-2.25 12.438 1.301 12.969 1.273.188 3.715.797 5.68 1.078-1.109 1.984-4.055 7.703-3.445 13.609.297 2.719 3.512-2.5 5.152 1.078-8.242 6.703 7.16 25.828 8.23 37.234-5.574.641-4.633-6.406-9.473-8.484-2.621 4.719-7.918 4.703-14.254 3.141-6.32-1.563-13.707-4.641-20.457-4.734-14.832-3.75-21.008 1.359-22.359 3.047.43.141 5.633 1.344 13.109 4.547-12.613.898-14.832 8.555-14.832 8.555s6.48-.406 14.539 1.195c-13.074 6.594-11.266 13.891-11.266 13.891s7.242-4.266 14.695-4.828c-4.023 2.984-7.359 9.547-4.887 14.297 2.953-2.797 8.672-5.422 10.734-6.266-2.758 6.297-2.344 10.906.691 14.25 8.168-11.164 11.102-10.469 13.469-10.281 1.297.094 4.816 1.203 9.977 1.766 4.313.438 9.785.281 16.023.656 14.992.828 32.352 1.328 43.809-10.188-3.511-25.642-9.941-54.173-3.511-76.064"/><path fill="#0A0406" d="M90.553-182.983c6.898-8.375 33.641-2.84 21.375 17.047-10.539 2.648-11.625-15.512-21.375-17.047"/><path fill="#FFF" d="M33.405-118.401v.008h.015z"/><path fill="#E8423F" d="M15.592 61.931s7.727-2.125 19.094 1.906c1.508 2.516 4.453 6.844 6.594 11.547-4.383-4.625-25.688-13.453-25.688-13.453"/><path fill="#010202" d="M14.577-50.655C-37.841-40.823-79.326-6.721-99.998-36.487c5.887 1.16 10.773 11.719 18.672 7.922-9.672-8.395-16.074-27.578-26.992-33.723-7.578-20.656-16.426-21.391-16.426-21.391s5.551 17.305 4.063 20.648c-14.344-14.355-21.992-10.777-21.992-10.777l12.906 16.625s-14.57-7.352-21.074-1.777c8.473 3.32 16.281 9.152 16.121 10.93-1.039.145-13.055-1.512-15.328 5.293 4.785.816 13.207 3.594 14.672 6.051-4.895 2.078-13.918 4.934-12.438 12.801 6.16-.984 10.879-4.363 16.461-3.234 7.449-2.016 20.363 14.488 21.609 16.113 1.23 1.621 26.488 25.641 35.711 15.656.625-.688 9.219 5.984 10.555 4.129 4.461-6.129 3.656-3.953 6.824-1.021 1.621 1.512 5.719-.512 7.629 2.313 4.168-6.781 13.867 2.328 18.449-3.199 5.039 2.609 8.09 5.359 9.391-1.094 5.363 6.604 6.77.016 11.395 4.59-.379-6.313 3.535-3.77 10.781-2.574 4.684.781 11 .078 17.625-.891C35.483 4.466 42.124-9.721 43.319-12.174c2.195-4.594 4.711-4.266 3.93-1.578C43.155.689 34.288 12.76 10.019 11.607c-1.328-.063-1.961.508-2.531 1.313-.559.816-.535 1.488-.383 4.41.242 6 16.383 23.703 25.66 36.984 12.14 17.406 16.03 26.359 14.562 30.242-2.594 6.859-8.055 42.742-7.813 43.906.25 1.164 2.219 2.203 4.156.563 2.375 2.453-2.141 11.875.766 12.094 2.195-1.375 4.906-2.563 4.906-2.563s-4.578 10.547 2.016 15.594c.828-2.922 3.422-5.109 3.422-5.109s-1.281 10.219 5.063 13.094c.109-.656.008-1.078.742-4.328 3.82 12.391 5.617 13.547 6.617 12.672 1-.836-1.844-5.164 1.5-4.234 1.156 10.805 4.523 10.656 4.523 10.656s.406-.438 2.016-2.945c3.82 9.164 25.328 18.945 21.57 41.016-.781.453-2.523.406-3.047-1.297-.508-1.688-1.836-6.719-2.469-7.414-.609-.688-2.406-2.898-16.578-4.391-14.172-1.484-21.219 4.953-21.219 4.953s-15.672-4.672-24.051 5.266c4.988-1.063 17.199 4.813 17.199 4.813s-12.57 2.727-14.508 14.25c8.953-4.141 18.094-3.016 18.094-3.016s-11.109 7.641-8.844 18.422c7.805-7.375 16-9.281 16-9.281s-7.523 11.398-1.281 18.938c3.031-3.969 8.609-12.258 12.805-11.672 1.734 11.297 8.867 15.266 9.836 14.477.984-.805-1.938-10.414 5.281-16.328 12.328-2.672 42.672-7.883 54.391-33.328-1.328-7.883-26.188-44.773-25.656-71.344.125-7.391 1.25-36.773 1.25-36.773s.898-17.164-5.875-28.586c4.234.313 5.836 7.836 8.266 9.195 2.422 1.391 4.328-2.078 4.328-2.078l-.906-6.469 4.836 5.25s4.164-8.234.656-18.438c-3.492-10.188-19.781-29.988-22.016-36.711-1.57-4.688-4.508-22.293-5.656-29.543-1.164-7.266-.75-29.359-.75-29.359s3.422.504 5.656 2.297c1.805-1.953-.891-8.547-.086-9.504.758 1.262 3.859 1.391 5.656 3.094 2.969-5.391.398-10.672.086-11.359 4.969 1.902 9.539 1.504 10.258-.223-1.898-1.73-4.5-12.031-4.391-13.305 1.906-.855 7.375 3.504 8.344 1.938-2.984-4.188-1.375-10.609-6.031-17.777 1.734-1.242 3.531 1.016 5.656-2.016-9.141-12.953 2.094-25.992 1.109-35.625-1.57-15.391-10.93-18-10.93-18s24.688-.121 19.508-17.992c-5.203-17.887-18.031-6.48-26.43-11.078-8.391-4.602-8.195-16.824-21.148-17.488-18.273-.953-42.719 11.521-56.93 11.521-4.426-.031-3.848.68-14.383-2.098-2.762 13.383 2.695 14.793 1.117 17.922-2.949 5.848-1.855 7.344-1.855 7.344l1.578.031c-.449 2.055-.617 6.023 2.613 10.512 3.871-5.359 5.176-8.762 5.602-10.367l1.113.023c-.188 2.457-.082 6.984 2.527 10.344 3.918-3.543 5.313-8.039 5.781-10.191l.234.008s8.93-.609 14.664 2.223c5.734 2.848 5.5 13.793 5.5 13.793s-15.563-4.672-22.27-4.535c-9.465.191-24.16 3.777-33.078 1.895-8.922-1.871-17.023-13.344-17.023-13.344s-14.035 18.969 17.344 23.688c7 1.059 13.551.664 19.293-.152 0 0 14.961-2.934 18.172-3.336 3.203-.398 16.234 1.289 16.234 1.289s-.75 4.246-7.156 4.246c-2.141 0-27.633-.43-27.633-.43s-.688 7.656 4.953 8.137c1.809.145 8.48-.465 17.117.688 18.156 2.426 38.766 8.91 53.781-5.801 12.969-12.703 2.805-31.52 14.445-39.559 9.57-6.641 20.133-.648 20.523 1.918-14.328-5.223-17.313-.613-18.969.496-11.5 7.793 5.688 47.352-38.094 48.512-15.25.41-31.313 1.234-38.281 7.969-3.949 3.816-7.898 3.617-13.637 8.762C1.928-77.088.295-59.983-1.326-51.358c-.641 3.391 1.086 2.313 1.086 2.313s8.25-2.656 14.273-3.379c1.063-.125 1.176.504 1.176.504s.023.746-1.031 1.266"/><path fill="#E8423F" d="M-148.025-59.311c4.762 2.207 10.457 5.617 13.016 8.52.777-1.984 2.625-4.785 3.297-5.742-2.407-1.067-10.743-4.411-16.313-2.778m.363 15.625c3.438.801 9.133 2.543 12.156 4.766-.078-.766-.168-1.543-.191-2.309a29.39 29.39 0 0 1 .273-5.313c-1.679-.074-9.863-.226-12.238 2.856m7.446-29.258c.738.93 10.922 14.059 11.297 14.527 1.688-1.277 5.535-3.328 6.77-3.969-8.868-8.757-14.923-10.445-18.067-10.558m-6.414 47.442a51.25 51.25 0 0 0 4.359-1.41c2.902-1.047 5.879-2.125 9.184-2.016a33.046 33.046 0 0 1-2.273-6.293c-1.856.734-11.2 4.656-11.27 9.719m27.511-40.68c.07.992 0 1.727-.16 2.32 1.504-.145 6.254-.594 9.07-.219-5.023-11.949-10.07-16.52-13.016-18.285 1.513 4.465 3.786 11.789 4.106 16.184M33.663 210.626c5.742 1.016 12.914 4.406 13.758 4.781 0 0 .719.367 1.172.578 0-.164-.031-.328-.031-.508 0-3.109.992-5.625 2.875-7.508-4.392-.803-12.063-1.28-17.774 2.657m17.539 18.821c-.078.063-8.016 5.734-8.375 13.719 6.266-5.078 12.188-6.984 13.695-7.391a17.685 17.685 0 0 1-2.578-3.391c.023.031.023.016-1.211-2.266 0 0-.5-.906-.672-1.266-.164.134-.398.298-.859.595m-4.172-10.953c-.117.031-9.164 2.172-12.266 10.031 8.094-2.852 15.359-2.094 15.672-2.047 0 0 .375.047.688.078-1.328-2.883-2.164-5.719-2.477-8.438-.258.079-.711.196-1.617.376m23.539 25.703c.008.031.023.078.023.078 1.109 7.204 4.5 11.148 6.633 12.563 0-.578-.031-1.625-.031-1.625 0-3 .422-7.359 3.344-11.18-2.789.937-6.266 1.008-9.969.164m-11.789-6.078c-.031.063-3.492 5.359-3.492 10.813 0 1.609.344 3.07.977 4.367 2.813-3.875 6.875-9.25 10.961-10.18a26.298 26.298 0 0 1-8.446-5M-93.017-178.616l.02-.016c-1.922-9.367-5.555-13.504-8.121-15.27a40.028 40.028 0 0 1 1.246 7c.219 2.543.184 5.316-.336 8.078l-.16.824c2.632-.831 5.144-1.057 7.351-.616m-10.336-.008c-4.293-7.199-8.535-10.105-11.469-11.297 2.27 3.145 5.133 8.082 5.664 13.793l.148 1.535c2.105-1.238 4.234-2.191 6.348-2.848l-.691-1.183zm-14.742 9.504c-6.672-1.031-10.664-.445-12.969.391 3 .699 7.121 1.969 10.746 4.297l.574.375c.84-1.559 1.945-3.102 3.289-4.598l-1.64-.465zm-2.543 7.664c-5.855.609-8.402 2.625-9.52 4.176 1.703-.063 5.246 0 8.848.281-.043-1.41.238-2.914.781-4.457h-.109zm10.039-12.015l-1.383-1.168c-4.273-3.609-8.402-4.855-11.418-5.223 5.23 3.496 7.855 9.297 8.191 10.055.496-.543 2.563-2.258 4.023-3.289.212-.133.38-.246.587-.375m17.75 372.457l-2.16 1.602c-2.832 2.117-5.109 5.984-5.109 9.398 0 .258.078.539.109.836 3.504-2.516 8.113-4.508 9.168-4.938l2.875-1.203c-1.907-1.664-3.586-3.609-4.883-5.695m-3.008-8.727l-2.824 1.445c-7.223 3.625-9.504 7.313-10.176 9.656 2.875-1.359 7.699-3.258 12.699-3.656l2.52-.211a8.06 8.06 0 0 1-.336-.609 25.92 25.92 0 0 1-1.883-6.625m.129-8.406l-3.313.25c-7.168.516-10.566 3.297-12.145 5.297a67.77 67.77 0 0 1 12.066 1.25l3.145.641a27.012 27.012 0 0 1 .247-7.438m7.098 26.148c-1.16 2.586-1.715 4.867-1.715 6.867 0 1.477.336 2.773.938 3.922 4.617-5.969 7.625-8.188 10.082-8.875a29.965 29.965 0 0 1-8.074-4.766l-1.231 2.852zm-20.129-32.742c2.367.711 5.91 1.891 10.254 3.758l3.105 1.313c.633-2.508 1.625-4.688 2.93-6.328-8.715-1.774-13.754-.211-16.289 1.257m217.898-318.48s-1.688.184-1.57 1.229c.094 1.055 1.344 1.223 1.344 1.223s6.836 1.875 8.539-5.688c-1.133 3.634-8.313 3.236-8.313 3.236m.836-5.516c-.555-.117-2.375.852-2.328 1.898.039.582.672.617 1.266.703 2.773.406 8.953-4.496 6.18-5.406-1.134-.378-1.344 3.055-5.118 2.805m-31.719-24.191c-.672-.695-22.289 7.199-22.75 11.082-.039.313.438 1.305 1.523 1.07.813-.184 11.523-1.297 19.75-.832 3.203.168 6.016.848 7.703 1.52 2.219.867 5.313.531 5.43-.438.117-.969-7.836-3.25-11.313-3.539-6.328-.551-18.938 1.074-18.938 1.074s19.611-8.922 18.595-9.937"/><path fill="#FFF" d="M-92.208-126.565c3.672-16.449-7.406-32.043-7.559-44.754-3.168 9.633 2.297 19.934 4.457 30.16 2.336 11.191 1.957 20.406-5.027 20.336-1.293.031-1.156 1.449-.422 1.43 6.136-.262 7.504-3.254 8.551-7.172m168.449-32.508a3.09 3.09 0 0 1 1.344 2.555c0 1.734-1.461 3.145-3.242 3.145-1.797 0-3.266-1.41-3.266-3.145 0-1.145.641-2.145 1.586-2.68-2.961.605-5.586 2.633-5.586 3.727 0 1.289 3.625 3.984 7.156 4.113 3.375.102 6.672-2.922 6.672-3.93-.008-.808-2.125-2.968-4.664-3.785"/><path fill="#010202" d="M17.631-128.295c-.68 1.25-1.504 3.207-1.504 5.402 0 2.398.938 4.469 2.703 5.992l.395.309h7.383l-1.527-2.039c-.969-1.297-1.633-2.91-2.352-4.727-.84-2.16-1.648-4.043-2.977-5.266l-1.289-1.176-.832 1.505z"/><path fill="#010202" d="M27.12-128.655c-.688 1.391-1.496 3.711-1.496 6.848 0 1.199.137 2.504.434 3.895l.223 1.09 3.785-.168 3.387-.098 2.398-.07-1.336-1.938c-.75-1.117-1.422-2.641-2.125-4.223-.891-2.047-1.797-4.023-2.98-5.559l-1.328-1.715-.962 1.938z"/><path fill="#FFF" d="M15.081-145.495c0 1.383.305 3.16 1.289 5.137 2.125-3.242 3.262-5.809 3.734-7.176-1.742-.121-3.48.031-4.785-.059-.133.512-.238 1.227-.238 2.098m9.527-.64c0 1.762.25 4.063 1.223 6.121 2.25-2.648 3.305-5.785 3.738-7.527-1.641 0-3.391-.016-4.906-.137-.024.449-.055.949-.055 1.543m-3.145 23.234c-.758-1.938-1.504-3.738-2.648-4.785-.742 1.352-1.352 3.023-1.352 4.793 0 .254.023.508.043.773 1.102.016 2.582.039 4.301.063-.109-.27-.23-.559-.344-.844m9.692.078c-.828-1.906-1.715-3.832-2.828-5.281-.535 1.082-1.336 3.184-1.367 6.137 1.512.031 3.09.055 4.609.082a16.656 16.656 0 0 0-.414-.938M197.913 60.228s1.734 4.531-1.758 14.016c-3.484 9.461-19.766 12.25-19.766 12.25s-16.438 2.164-21.523 1c-2.656-5.523-.492-47.297-.492-47.297s5.031-3.078 17.266-3.484c22.749-.778 26.273 23.515 26.273 23.515"/><path fill="#E8423F" d="M-21.783-137.721c0 1.289.277 2.508.801 3.602 2.094 4.258 8.133 7.105 17.973 8.473 5.77.801 11.875.746 18.699-.145.094-.023 14.855-2.703 18.184-3.078 2.859-.328 11.797.621 15.5 1.047 0 0 1.172.137 1.609.191.141-.664.438-1.84.57-2.465-.445-.117-1.711-.406-1.711-.406-3.406-.906-15.078-3.863-20.371-3.77-3.352.059-7.43.527-11.758 1.043-7.777.895-15.816 1.836-21.793.68-7.031-1.371-13.328-7.473-16.289-10.738-.695 1.488-1.414 3.464-1.414 5.566"/></svg>