<svg xmlns="http://www.w3.org/2000/svg" xmlns:xlink="http://www.w3.org/1999/xlink" width="408.272" height="494.945" viewBox="-176.966 -215.01 408.272 494.945"><path fill="#FFF" d="M27.034-213.491h202.75V84.49c0 107.102-90.704 193.906-202.605 193.906-111.918 0-202.625-86.813-202.625-193.906v-297.98l202.48-.001z"/><path fill="#E8423F" d="M180.917-103.768a62.149 62.149 0 0 0-.531-6.848c-.836-6.32-2.961-13.113-6.258-19.891 4.656-2.285 7.883-6.965 7.883-12.391 0-7.672-6.461-13.887-14.391-13.887-3.672 0-6.969 1.313-9.508 3.48-7.18-7.48-15.953-14.145-26.211-19.168.914-1.832 1.469-3.867 1.469-6.027 0-7.672-6.438-13.902-14.422-13.902-7.047 0-12.938 4.938-14.148 11.441-10.25-1.578-21.359-1.594-33.359.367-1.5-6.146-7.18-10.729-13.984-10.729-7.984 0-14.406 6.223-14.406 13.896 0 1.59.281 3.121.781 4.535-1.031.426-2.063.832-3.094 1.266-8.703 3.605-17.512 8.598-25.926 14.926-2.609-2.695-6.328-4.398-10.465-4.398-7.977 0-14.414 6.215-14.414 13.887 0 3.898 1.664 7.426 4.359 9.953a129.344 129.344 0 0 0-18.543 29.031 15.05 15.05 0 0 0-5.832-1.176c-8.066 0-14.609 6.313-14.609 14.09 0 6.688 4.801 12.262 11.273 13.719-2.512 10.68-4.008 22.254-4.113 34.75h79.184c-.367-31.734 6.938-55.199 19.82-68.23 14.914-15.07 36.75-16.703 54.281-9.328 18.422 7.738 26.422 26.281 19.289 40.383-5.523 10.977-20.984 19.273-42.945 17.723 13.469 16.375 27.914 22.871 41.156 22.559 1.016 6.738 6.984 11.902 14.219 11.902 7.969 0 14.422-6.215 14.422-13.887 0-3.031-1.031-5.816-2.719-8.098 7.016-5.766 12.781-13.605 16.594-22.652 1.078.223 2.164.383 3.313.383 7.961 0 14.375-6.223 14.375-13.91-.001-7.066-5.462-12.89-12.54-13.769M2.245 237.099l26.054-101.312 45.618 79.296L47.604-10.338H-43.38l-26.055 225.421 45.383-79.296z"/><path fill="none" stroke="#010202" stroke-width="3.048" d="M180.917-103.768a62.149 62.149 0 0 0-.531-6.848c-.836-6.32-2.961-13.113-6.258-19.891 4.656-2.285 7.883-6.965 7.883-12.391 0-7.672-6.461-13.887-14.391-13.887-3.672 0-6.969 1.313-9.508 3.48-7.18-7.48-15.953-14.145-26.211-19.168.914-1.832 1.469-3.867 1.469-6.027 0-7.672-6.438-13.902-14.422-13.902-7.047 0-12.938 4.938-14.148 11.441-10.25-1.578-21.359-1.594-33.359.367-1.5-6.146-7.18-10.729-13.984-10.729-7.984 0-14.406 6.223-14.406 13.896 0 1.59.281 3.121.781 4.535-1.031.426-2.063.832-3.094 1.266-8.703 3.605-17.512 8.598-25.926 14.926-2.609-2.695-6.328-4.398-10.465-4.398-7.977 0-14.414 6.215-14.414 13.887 0 3.898 1.664 7.426 4.359 9.953a129.344 129.344 0 0 0-18.543 29.031 15.05 15.05 0 0 0-5.832-1.176c-8.066 0-14.609 6.313-14.609 14.09 0 6.688 4.801 12.262 11.273 13.719-2.512 10.68-4.008 22.254-4.113 34.75h79.184c-.367-31.734 6.938-55.199 19.82-68.23 14.914-15.07 36.75-16.703 54.281-9.328 18.422 7.738 26.422 26.281 19.289 40.383-5.523 10.977-20.984 19.273-42.945 17.723 13.469 16.375 27.914 22.871 41.156 22.559 1.016 6.738 6.984 11.902 14.219 11.902 7.969 0 14.422-6.215 14.422-13.887 0-3.031-1.031-5.816-2.719-8.098 7.016-5.766 12.781-13.605 16.594-22.652 1.078.223 2.164.383 3.313.383 7.961 0 14.375-6.223 14.375-13.91-.001-7.066-5.462-12.89-12.54-13.769z"/><path fill="none" stroke="#010202" stroke-width="3.048" stroke-linecap="round" stroke-linejoin="round" d="M1.627-46.85c-.352-31.734 8.68-52.461 18.137-68.07 10.969-18.176 36.816-45.777 92.832-33.832 62.781 13.375 56.281 105.855-16.75 84.168"/><path fill="#040304" d="M47.604-10.338H-43.38l-26.055 225.406 1.512-2.641 2.328-4.063 41.527-72.578L.651 230.99l.824 3.172.762 2.938.766-2.938.809-3.141 24.48-95.234 41.789 72.594 2.328 4.047 1.516 2.641L47.604-10.338zm-88.273 3.05h85.57l24.258 207.996-38.234-66.453-3.73-6.484-1.863 7.25-23.123 89.883-23.328-89.883-1.871-7.25-3.711 6.508-38.016 66.414L-40.669-7.288z"/><path fill="none" stroke="#040304" stroke-width="3.048" d="M2.573-9.209v237.8"/><path fill="#E8423F" d="M-65.486-48.522H73.635v40.641H-65.486z"/><path fill="none" stroke="#010202" stroke-width="3.048" d="M-65.486-48.522H73.635v40.641H-65.486z"/><path fill="#E8423F" d="M-82.478-36.713H90.651v17.082H-82.478z"/><defs><path id="a" d="M-176.966-215.01h408.272v494.945h-408.272z"/></defs><clipPath id="b"><use xlink:href="#a" overflow="visible"/></clipPath><path clip-path="url(#b)" fill="none" stroke="#010202" stroke-width="3.048" d="M27.034-213.491h202.75V84.49c0 107.102-90.704 193.906-202.605 193.906-111.918 0-202.625-86.813-202.625-193.906v-297.98l202.48-.001h0zm63.617 193.86H-82.47v-17.082H90.651v17.082z"/></svg>