<svg xmlns="http://www.w3.org/2000/svg" xmlns:xlink="http://www.w3.org/1999/xlink" width="406.539" height="492.824" viewBox="-175.626 -214.155 406.539 492.824"><defs><path id="a" d="M-175.626-214.155h406.539v492.824h-406.539z"/><clipPath id="b"><use width="406.539" height="492.824" xlink:href="#a" overflow="visible"/></clipPath></defs><path d="M27.502-212.635h201.902V84.091c0 106.609-90.328 193.047-201.773 193.047l-.129-489.773z" fill="#e8423f"/><path d="M174.788-132.315v27.168h18.867v16.199h-18.867v27.168h-16.493v-27.168h-18.851v-16.199h18.851v-27.168zm23.078 91.973V-59.67h19.742v-75.008h-19.742v-19.071h19.742v-26.257l-29.609-.055v17.922l-24.836.293v-18.285H133.28v45.453h-20.344l-.102 75.008h20.446v45.843h29.883V-32.26l24.836-.305v18.457l29.609.031v-26.265z" fill="#ffd134" stroke="#010202" stroke-width="3.264"/><path d="M121.163-183.717c0-2.945-1.477-5.559-3.656-7.199-.461-4.543-4.266-8.105-8.922-8.105-4.625 0-8.391 3.496-8.875 7.992-2.297 1.625-3.75 4.305-3.75 7.313 0 .242-.016.488 0 .711V88.607h25.203v-272.324zM96.499 74.408c-.047 13.124.602 54.234-37.563 68.812l-.03 24.969c38.14 14.609 37.765 47.359 37.812 60.531h23.656c.031-13.172-1.687-45.953 36.469-60.563v-24.843c-38.157-14.578-36.438-55.781-36.469-68.906H96.499zm11.469 59.406c5.898 0 10.656 4.703 10.75 10.5 5.82.149 10.5 4.843 10.5 10.656 0 5.812-4.68 10.562-10.5 10.656-.125 5.797-4.883 10.438-10.75 10.438-5.852 0-10.61-4.64-10.719-10.438-5.82-.14-10.469-4.859-10.469-10.656 0-5.797 4.649-10.5 10.469-10.656.047-5.813 4.852-10.5 10.719-10.5z" fill="#ffd134" stroke="#010202" stroke-width="3.048" stroke-miterlimit="10"/><path d="M27.631 277.138c-111.41 0-201.73-86.438-201.73-193.047v-296.727H27.502l.129 489.774z" fill="#ffd134"/><path stroke-miterlimit="10" fill="#ffd134" stroke="#010202" stroke-width="2.776" stroke-linecap="square" d="M213.553 103.435h0"/><path d="M108.405 87.345c-.107 13.77-6.888 55.236-49.25 67.406-.552-4.617-4.865-8.233-10.094-8.219-5.609 0-10.187 4.133-10.187 9.22 0 5.085 4.578 9.218 10.187 9.218 5.345 0 9.735-3.756 10.125-8.531 52.85 14.05 47.972 61.082 49.22 64.344.526-6.958 1.913-55.245 47.905-64.563.272 4.866 4.706 8.75 10.125 8.75 5.633 0 10.125-4.117 10.125-9.219 0-5.086-4.492-9.234-10.125-9.219-5.244 0-9.573 3.636-10.093 8.282-38.917-10.582-48.349-51.286-47.938-67.469zm-.437 46.469c5.898 0 10.656 4.703 10.75 10.5 5.82.149 10.5 4.843 10.5 10.656 0 5.812-4.68 10.562-10.5 10.656-.125 5.797-4.883 10.438-10.75 10.438-5.852 0-10.61-4.64-10.719-10.438-5.82-.14-10.469-4.859-10.469-10.656 0-5.797 4.649-10.5 10.469-10.656.047-5.813 4.852-10.5 10.719-10.5zm.437 88.625c-5.64 0-10.187 4.133-10.187 9.25 0 5.07 4.546 9.219 10.187 9.219 5.617 0 10.156-4.141 10.156-9.22 0-5.116-4.539-9.257-10.156-9.25z" fill="#ffd134" stroke="#010202" stroke-width="3.048" stroke-linecap="square" stroke-miterlimit="10"/><path d="M123.077 231.755c.133 0 .219.016.352.016 3.836 0 6.914-3.148 6.914-6.969 0-3.836-3.078-6.961-6.914-6.961H93.374c-3.836 0-6.914 3.125-6.914 6.961 0 3.836 3.094 6.969 6.914 6.969.133 0 .234-.016.344-.016h29.359zm-73.813-61.304c0 .109-.039.219-.039.328a6.937 6.937 0 0 0 6.969 6.953 6.938 6.938 0 0 0 6.953-6.953s-.016 0-.016-.016h.016v-29.969h0c0-.016.016-.031.016-.031 0-3.844-3.117-6.969-6.953-6.969a6.955 6.955 0 0 0-6.969 6.969c0 .094.031.219.031.328v29.359h-.008zm117.11-29.453c0-.125.031-.211.031-.289a6.985 6.985 0 0 0-6.977-6.984c-3.844 0-6.953 3.117-6.953 6.984h-.016v29.93h.016v.07a6.946 6.946 0 0 0 6.953 6.945c3.836 0 6.977-3.109 6.977-6.945 0-.133-.031-.211-.031-.328v-29.383zm-41.493-63.766H92.084a6.432 6.432 0 0 0-6.453 6.438c0 3.563 2.828 6.461 6.406 6.477h32.844c3.547 0 6.43-2.898 6.43-6.477 0-3.547-2.867-6.438-6.43-6.438zm-.476-20.406H91.936c-3.508 0-6.367 2.844-6.367 6.359 0 3.508 2.844 6.328 6.328 6.344h32.508c3.508 0 6.383-2.836 6.383-6.344 0-3.516-2.875-6.359-6.383-6.359z" fill="#ffd134" stroke="#010202" stroke-width="3.248" stroke-miterlimit="10"/><path d="M-17.81 103.841l-52.441 59.125s-3.637 3.313-11.559 2.906c-9.582-.422-14.664-10.813-18.598-17.828-1.496-.484-4.754-1.172-4.754-1.172l-6.734 5.406s-2.082 1.984-.867 4.25c1.195 2.266 14.305 15.469 19.41 15.922 2.352.203.414 1.891-.152 2.125-5.762 2.063-15.168-1.984-15.168-1.984s-.695-.18-6.258-.719c-5.566-.5-4.711 3.516-4.711 3.516s2.145 6.563 3.641 8.672c3.406 4.766 25.223-2.953 25.223-2.953s4.57-.734 5.824 1.953c-8.59 8.094-14.414 14.016-17.109 18.375-4.609 7.938-1.891 12.031-1.02 13.094 1.824 1.609 9.121 1.859 12.625-2.094 1.992-2.281 4.219-11.5 10.09-20.016 4.406-6.375 12.063-12.656 16.688-13.984 10.063-2.891 24.742 4.969 24.742 4.969s7.176 3.031 10.336-5.719c.848-2.375 1.059-4.344 1.059-4.344l-.977-2.797s-17.961-4.609-25.457-1.398c-2.945 1.266-3.273-1.477-2.449-3.094 1.25-2.477 5.738-8.742 12.305-16.398 12.266-14.305 29.535-33.359 30.617-41.141-4.025-2.406-4.306-4.672-4.306-4.672zM-53.232-162.26c-.32 1.457-.059 7.168 2.488 8.535 1.141.625 2.156-.023 2.91-1.129.75-1.086.594-2.582.594-2.582-.02-.031-1.832-3.184.336-6.555 2.383-3.652 8.711-8.055 25.352-8.18 16.621.133 22.949 4.527 25.32 8.18 2.168 3.371.367 6.523.352 6.555 0 0-.168 1.504.59 2.582.746 1.105 1.785 1.754 2.922 1.129 2.535-1.367 2.809-7.086 2.488-8.535-1.512-6.984-8.219-15.352-31.664-15.535-23.473.183-30.176 8.55-31.688 15.535zm7.871 53.695c-14.496-7.656-32.199-6.617-32.199-6.617s-3.977 1.832-4.336 5.234c-5.449-3.066-4.867-9.074-4.867-9.074s.449-15.352 17.641-9.629c2.051.68 6.938-.043 6.641-1.93-.305-1.832 4.551-6.496 10.207-2.488 5.656 4.016 42.938 43.742 48.547 57.234-28.09-14.41-49.563-16.234-49.563-16.234s-6.559-.457-13.543-.266c4.543-4.367 13.77-9.52 17.641-8.254 5.145 1.695 19.406 6.598 19.406 6.598l-15.575-14.574zm-47.265-14.262c-1.664 10.422 1.227 11.262 4.785 13.301 3.969 2.258 30.703.363 35.938.832 5.215.48 20.133 14.859 20.133 14.859s-12.23-7.313-19.359-8.508c-10.336-1.758-25.816-.133-36.137 1.188-10.359 1.309-12.902-8.387-12.902-8.387s-1.587-9.449 7.542-13.285z" fill="#e8423f" stroke="#010202" stroke-width="3.048"/><path d="M27.709-212.549v488.945m-.207-489.031h201.902V84.091c0 106.609-90.328 193.047-201.773 193.047-111.41 0-201.73-86.438-201.73-193.047v-296.727H27.502z" fill="none" stroke="#010202" stroke-width="3.048"/><path d="M-90.56 224.466c-5.059-4.078-5.098-9.313-5.016-12.484.094-4.094-6.984 1.344-6.41 3.953.313 1.477-1.945 10.969 11.426 8.531zm-35.809-30.547s1.117-11.938 10.496-13.672c5.641-1.078 2.047-5.523 2.047-5.523s-8.969-2.852-15.063 8.625c-1.952 3.672 2.52 10.57 2.52 10.57zm-2.234-39.015c.57-3.453 4.953-16 18.25-8.672 4.926 2.703 3.609 6.477 3.609 6.477s-2.633 3.359-5.93 1.063c-8.601-5.993-7.855-7.321-15.929 1.132zm104.801 37.562c4.754-2 5.719-9.953 4.563-11.531-5.859-7.867-13.219-8.453-13.219-8.453s-3.781 3.219 3.602 8.578c7.374 5.352 5.23 9.844 5.054 11.406zm6.831-366.672c0 2.319-2.081 4.199-4.648 4.199-2.567 0-4.648-1.88-4.648-4.199s2.081-4.199 4.648-4.199c2.567 0 4.648 1.88 4.648 4.199zm5.114-20.806c0 5.112-4.477 9.256-10 9.256s-10-4.144-10-9.256 4.477-9.256 10-9.256 10 4.144 10 9.256zm-5.039 12.607c0 2.32-2.082 4.215-4.664 4.215-2.563 0-4.633-1.895-4.633-4.215 0-2.297 2.07-4.176 4.633-4.176 2.582 0 4.664 1.879 4.664 4.176zm-.075 25.047c0 2.306-2.081 4.176-4.648 4.176-2.567 0-4.648-1.87-4.648-4.176s2.081-4.176 4.648-4.176c2.567 0 4.648 1.87 4.648 4.176zm0-8.414c0 2.315-2.081 4.191-4.648 4.191-2.567 0-4.648-1.876-4.648-4.191s2.081-4.191 4.648-4.191c2.567 0 4.648 1.876 4.648 4.191zm27.321 3.359c0 2.32 2.082 4.199 4.664 4.199 2.543 0 4.641-1.879 4.641-4.199s-2.098-4.191-4.641-4.191c-2.582 0-4.664 1.871-4.664 4.191zm-3.199-7.914c0 2.363 2.063 4.266 4.648 4.266 2.559 0 4.641-1.902 4.641-4.266 0-2.352-2.082-4.254-4.641-4.254-2.586 0-4.648 1.903-4.648 4.254zm-6.609-5.918c0 2.305 2.09 4.184 4.672 4.184 2.555 0 4.648-1.879 4.648-4.184 0-2.328-2.094-4.207-4.648-4.207-2.583 0-4.672 1.879-4.672 4.207zm-8.391-3.656c0 2.313 2.086 4.176 4.664 4.176 2.559 0 4.641-1.863 4.641-4.176 0-2.32-2.082-4.199-4.641-4.199-2.578 0-4.664 1.879-4.664 4.199zm.23-1.887c0 2.315-2.085 4.191-4.656 4.191-2.571 0-4.656-1.876-4.656-4.191s2.085-4.191 4.656-4.191c2.571 0 4.656 1.876 4.656 4.191zm-45.816 19.375c0 2.32-2.085 4.199-4.656 4.199-2.571 0-4.656-1.88-4.656-4.199s2.085-4.199 4.656-4.199c2.571 0 4.656 1.88 4.656 4.199zm-1.43-12.175c2.57 0 4.656 1.91 4.656 4.262 0 2.355-2.086 4.266-4.656 4.266s-4.656-1.91-4.656-4.266c0-2.352 2.086-4.262 4.656-4.262zm11.222-1.657c0 2.31-2.081 4.184-4.648 4.184-2.567 0-4.648-1.873-4.648-4.184 0-2.31 2.081-4.184 4.648-4.184 2.567 0 4.648 1.873 4.648 4.184zm8.419-3.656c0 2.306-2.085 4.176-4.656 4.176-2.571 0-4.656-1.87-4.656-4.176s2.085-4.176 4.656-4.176c2.571 0 4.656 1.87 4.656 4.176zm9.078-1.887c0 2.315-2.085 4.191-4.656 4.191-2.571 0-4.656-1.876-4.656-4.191s2.085-4.191 4.656-4.191c2.571 0 4.656 1.876 4.656 4.191zm-28.719 7.2c2.57 0 4.656 1.91 4.656 4.262 0 2.355-2.086 4.266-4.656 4.266s-4.656-1.91-4.656-4.266c0-2.352 2.086-4.262 4.656-4.262zm60.657 28.589v-.016l-54.266.016c-1.664 0-3.023 1.586-3.023 3.57 0 1.977 1.359 3.574 3.023 3.574H5.768c1.68 0 3.031-1.598 3.031-3.574 0-1.968-1.336-3.542-3.007-3.57zm2.75-7.14v-.016l-59.504.008c-1.848 0-3.336 1.598-3.336 3.574 0 1.992 1.488 3.582 3.336 3.582.051 0 .098-.016.16-.023h59.16c.066.008.121.023.168.023 1.84 0 3.328-1.59 3.328-3.582-.016-1.969-1.488-3.551-3.312-3.566z" fill="#e8423f" stroke="#010202" stroke-width="3.048"/><path d="M26.936-98.405s-6.41-7.199-7.16-7.145c4.328-3.801 7.566-6 7.16-8.535-2.418 2.223-12.402-.375-13.035-5.223 2.625-1.168 1.961-.449 7.656-7.152-17.437 2.313-15.574-13.21-15.574-13.21l-54.434-.543-5.359 10.73 48.801 51.461s7.305 13.434 7.168 17.336c-7.441-1.656-10.055-4.605-27.25 8.707-16.766-6.16-12.598-3.113-41.391 6.047-9.68 3.078-18.887-3.297-18.887-3.297s-9.457-10.84 5.238-17.215c.961-2.234-10.641-17.57-26.168-35.762-20.59-29.977-41.094-68.734-53.008-88.91-18.48 26.824-4.617 54.719 17.223 79.512 5.641 6.688 18.305 20.398 24.371 25.566 10.352 10.008 12.809 11.855 12.809 14-2.152-.094-5.609-1.246-7.16-1.297-3.633-.965-41.563-20.141-52.867-30.934-9.109 32.617 10.371 39.16 25.16 43.289 11.273 3.125 21.672 5.309 30.305 6.734-.238.969-.039.641-.246 1.098-14.059 3.703-42.168 5.656-57.746 2.484-4 34.172 47.961 22.172 60.352 13.672.746-.016 1.035 0 1.035 0s-.418 1.313-.785 2.473C-120.153-22.484-154.305-9.062-164.258-5.3c19.188 38.766 61.832-10.816 67.371-18 .902.031 1.031 0 1.781 0 4.586 5.621-52.781 79.625-62.352 91.125 39.754 23.375 66.473-52.078 81.473-83.422 1.895.375 2.551.281 2.551.281s.168 4.816-.504 6.324c.395 2.801-33.063 108.41-47.551 138.941 61.734.984 57.785-97.316 67.695-143.629.328-1 1.664-1.141 3.074-.813 3.367 4.984-.707 86.215-3.633 110.277C-7.24 81.919-29.056-8.686-27.169-18.491c1.863-4.508 5.023-3.188 5.023-3.188S-3.634 32.978-4.201 37.857c-2.168 4.617-42.953 88.141-42.953 88.141l21.375-4.422s11.848 37.938 13.801 38.766C3.19 105.201 6.526 87.529 8.983 85.013c4.816 16.375 19.164 46.422 12.582 83.125-6.52 36.688-34.391 61.875-51.133 60.547-9.211-.203-9.41-6.594-7.816-8.375 11.422-12.836 7.207-26.422-6.395-27.406-5.941-.43-20.512.984-24.375 11.797-.992 2.781 1.465 2.828 1.465 2.828s3.32-3.031 9.527-3.836c18.375-2.367-12.582 19-10.582 33.82.66 4.836 3.574 8.703 5.527 10.539 5.352 5.031 15.918 4.75 17.848 4.602 2.793-.18 32.766 2.805 65.727-46.852.922-1.406 1.879.281 1.602 4.953-.578 10.938-14.555 29.227-20.848 35.938-1.832 1.93-4.328 11.57 2.48 13.961 10.199 3.625 22.094 15.578 22.094 15.578l.25-374.637z" clip-path="url(#b)" fill="#010202"/><path d="M-17.154-126.565c0 1.961-2.543 3.527-5.695 3.527-3.137 0-5.688-1.566-5.688-3.527 0-1.926 2.551-3.504 5.688-3.504 3.152-.008 5.695 1.578 5.695 3.504" fill="#fff"/><path d="M-22.322-127.124c0 1.367-1.281 2.473-2.848 2.473-1.586 0-2.863-1.105-2.863-2.473 0-1.352 1.277-2.449 2.863-2.449 1.567 0 2.848 1.098 2.848 2.449" fill="#010202"/><path d="M-33.115-134.436s-4.461.766-4.422 3.984c.102 5.352 15.496-3.258 24.766-1.434-6.727-3.113-21.055 3.051-22.055.633-.297-.679 1.711-3.183 1.711-3.183" fill="#fff"/></svg>