<svg xmlns="http://www.w3.org/2000/svg" xmlns:xlink="http://www.w3.org/1999/xlink" width="406.539" height="492.849" viewBox="-175.873 -214.081 406.539 492.849"><path fill="#E8423F" d="M27.264-212.561h201.895V84.166c0 106.625-90.352 193.063-201.766 193.063-111.426 0-201.746-86.438-201.746-193.063v-296.727H27.264z"/><path fill="#FFD730" d="M112.682-152.225c0 27.32-24.266 49.48-54.203 49.48-29.941 0-54.207-22.16-54.207-49.48 0-27.336 24.266-49.488 54.207-49.488 29.938 0 54.203 22.152 54.203 49.488"/><defs><path id="a" d="M-175.873-214.081h406.539v492.849h-406.539z"/></defs><clipPath id="b"><use xlink:href="#a" overflow="visible"/></clipPath><path clip-path="url(#b)" fill="none" stroke="#010202" stroke-width="3.32" stroke-miterlimit="10" d="M58.479-201.706c29.945 0 54.211 22.152 54.211 49.48s-24.266 49.48-54.211 49.48c-29.938 0-54.207-22.152-54.207-49.48s24.27-49.48 54.207-49.48z"/><path fill="#010202" d="M-128.814-181.905l51.453 415.696 15.274-1.688-47.719-416.129z"/><path fill="#FFD730" d="M-124.966-178.866c.086.625 50.543 408.258 50.625 408.859.551-.078 7.863-.867 8.438-.93-.086-.633-46.871-408.648-46.941-409.289-.587.083-11.54 1.298-12.122 1.36"/><path fill="#010202" d="M-121.623-197.659c-9.801 1.234-17.055 7.898-16.184 14.867.895 6.969 9.582 11.613 19.367 10.375 5.77-.719 10.938-3.391 13.84-7.113 1.848-2.414 2.672-5.094 2.336-7.758-.878-6.968-9.566-11.625-19.359-10.371"/><path fill="#FFD730" d="M-121.201-194.241c-7.52.945-13.223 5.457-13.223 10.254 0 .25.016.508.047.762.648 5.082 7.602 8.402 15.52 7.395 4.859-.617 9.18-2.793 11.523-5.82 1.285-1.672 1.855-3.477 1.645-5.199-.644-5.079-7.598-8.392-15.512-7.392"/><path fill="#010202" d="M-108.24-91.858c-9.457 1.219-16.43 7.68-15.559 14.395.871 6.719 9.254 11.199 18.695 9.984 9.449-1.203 16.406-7.672 15.559-14.395-.863-6.718-9.246-11.199-18.695-9.984"/><path fill="#FFD730" d="M-107.806-88.424c-7.168.918-12.617 5.215-12.617 9.801 0 .238.016.496.047.734.625 4.824 7.273 7.969 14.832 6.992 7.547-.969 13.191-5.695 12.555-10.527-.602-4.84-7.251-7.985-14.817-7"/><path fill="#010202" d="M-68.263-51.737c40.969-3.543 90.336-17.848 112.375-71.199 21.672 0 27.75-1.457 27.75-1.457s7.984 10.535 46.078 30.594c7.219 3.789 29.203 82.59 29.203 82.59s4.063 15.594-7.297 16.906c-11.359 1.277-31.953.438-31.953.438s26.492 208.734 26.688 210.516c-1.5.422-10.523 5.203-20.828 10.594-10.219 5.313-21.75 11.266-28.547 12.953-.438.125-5.469 1.359-7.781-3.25-2.313-4.578.859-8.063.859-8.063l22.281-19.641s.625-1.117.594-1.875c-.055-.781-1.039-1.078-1.039-1.078l-36.422-.281L29.432 29.4l-4.023.902L58.651 206.54l-71.137.047L6.323-24.303l-72.211-.203c.008 0-2.176-25.102-2.375-27.231"/><path fill="#FFF" d="M71.417-102.768l2.64-20.176-6.359 13.801H48.846l-5.297-12.738 2.36 19.113z"/><path fill="#FFD730" d="M42.995-57.377h47.797v32.145H42.995zm-9.282 0h7.18v32.145h-7.18zm-6.375 0h4.508v32.145h-4.508z"/><path fill="#010202" d="M93.581-152.225c0 18.609-16.195 33.68-36.164 33.68-19.984 0-36.176-15.07-36.176-33.68 0-18.605 16.191-33.688 36.176-33.688 19.968 0 36.164 15.082 36.164 33.688"/><path fill="#FFF" d="M56.612-167.127c8.313.16 22.836-2.891 19.922 14.805-.609 3.699 0 8.57 0 8.57s.547 5.664-.156 9.414c-1.25 11.328-3.859 13.496-16.859 13.961-15.344.547-15.063-.969-17.563-7.191-5.672-17.281-3.328-30.551-3.328-30.551s1.398-9.29 17.984-9.008"/><path fill="#010202" d="M13.608 210.064s-16.992 0-26.613-.055c-6.426 9.023-25.891 6.328-31.082 6.609-4.559.266-7.695 3.219-7.695 7.969 0 4.773 3.953 8.016 8.207 8.016H5.288c5.938 0 7.715-5.359 7.715-5.359l.605-17.18z"/><path fill="#FFF" d="M65.94-.346l-2.945-22.75-15.742.109H32.549c-.625 0-1.148.656-1.148 1.426 0 .801.508 1.441 1.148 1.441h11.688s.297 2.031-.57 2.078c0 0-12.883.234-13.461.234-.594 0-4.285-3.25-4.285-3.25-.215-.215-.305-.313-.391-.438-.152-.219-.207-.578-.207-.578 0-.656-.203-1.25-.945-1.297-.754-.047-1.328.426-1.41 1.098-.184 1.473.059 1.605.168 1.766.098.168.242.426 4.699 4.855.215.313.773.516 1.133.508l11.77-.066.109 2.184H28.881c-.641 0-1.152.641-1.152 1.441 0 .785.504 1.426 1.152 1.426h12.074l.109 2.031H29.44c-.633 0-1.16.641-1.16 1.422 0 .801.52 1.426 1.16 1.426h11.766l.078 2.145H30.19c-.652 0-1.164.641-1.164 1.422 0 .801.504 1.441 1.164 1.441h14.953c.047 0 .109-.051.172-.051H65.94v-.023z"/><path fill="#010202" d="M-116.494-50.264c0 1.832 1.285 4.77 4.918 4.77h13.801v21.215l57.594-.215-2.641-27.922-73.672-.07v2.222z"/><path fill="#FFF" d="M-67.56-26.674l-2.215-23.543-44.52-.047c0 .918.574 2.605 2.727 2.605h15.984v21.035l28.024-.05z"/><path fill="#010202" d="M-110.287-47.639c-2.023 0-3.664 1.719-3.664 3.855 0 2.125 1.641 3.84 3.664 3.84h13.953c2.039 0 3.672-1.723 3.672-3.84 0-2.145-1.633-3.855-3.672-3.855h-13.953z"/><path fill="#FFF" d="M-110.287-45.456c-.809 0-1.465.75-1.465 1.672 0 .902.656 1.656 1.465 1.656h13.953c.824 0 1.496-.754 1.496-1.656 0-.922-.672-1.672-1.496-1.672h-13.953z"/><path fill="#010202" d="M-109.263-41.69c-2.023 0-3.641 1.703-3.641 3.816 0 2.082 1.617 3.801 3.641 3.801h13.488c2 0 3.633-1.719 3.633-3.801 0-2.113-1.633-3.816-3.633-3.816h-13.488z"/><path fill="#FFF" d="M-109.263-39.506c-.801 0-1.457.723-1.457 1.625 0 .871.656 1.609 1.457 1.609h13.488c.793 0 1.449-.738 1.449-1.609 0-.902-.656-1.625-1.449-1.625h-13.488z"/><path fill="#010202" d="M-108.767-35.897c-1.992 0-3.574 1.574-3.574 3.512 0 1.922 1.582 3.512 3.574 3.512h13.625c1.984 0 3.59-1.59 3.59-3.512 0-1.938-1.605-3.512-3.59-3.512h-13.625z"/><path fill="#FFF" d="M-108.767-33.69c-.801 0-1.457.578-1.457 1.313 0 .738.656 1.313 1.457 1.313h13.625c.809 0 1.445-.574 1.445-1.313 0-.734-.637-1.313-1.445-1.313h-13.625z"/><path fill="#010202" d="M-107.904-30.905c-1.961 0-3.559 1.488-3.559 3.328 0 1.855 1.598 3.375 3.559 3.375h12.914c1.977 0 3.566-1.512 3.566-3.375 0-1.84-1.59-3.328-3.566-3.328h-12.914z"/><path fill="#FFF" d="M-107.904-28.721c-.758 0-1.375.512-1.375 1.145 0 .641.617 1.168 1.375 1.168h12.914c.781 0 1.375-.527 1.375-1.168 0-.625-.594-1.145-1.375-1.145h-12.914z"/><path fill="#010202" d="M47.924-147.194c0 1.229-1 2.207-2.195 2.207a2.196 2.196 0 0 1-2.195-2.207c0-1.215.984-2.199 2.195-2.199 1.195-.008 2.195.984 2.195 2.199m19.953 0a2.2 2.2 0 0 1-2.219 2.207 2.205 2.205 0 0 1-2.188-2.207c0-1.215 1-2.199 2.188-2.199a2.198 2.198 0 0 1 2.219 2.199m-8.117-7.328c-.477.395-.508 1.074-.148 1.555.398.461 1.758.879 2.219.488.125-.105 3.844-2.121 4.781-1.953 1.656.32 3.672.895 6 2.063.547.273 1.172.25 1.547-.23.375-.504.078-1.449-.445-1.809-7.43-5.391-13.883-.169-13.954-.114"/><path fill="#010202" d="M42.713-154.616c-.555.23-.805.879-.57 1.449.25.559 1.297 1.008 1.844.758 1.188-.504 4.266-1.734 6.125-.449 1.094.793 1.563 2.395 1.391 4.785-.703 10-.641 12.879-.641 13.008a1.118 1.118 0 0 0 1.063 1.09l9.031.344c.609.023.672-2.191.086-2.219 0 0-6.25.219-7.906.145.039-1.527.117-5.445.594-12.191.031-.367.031-.703.031-1.063 0-2.648.313-4.586-1.227-5.723-3.446-2.512-9.61-.047-9.821.066m9.243 25.621c-.914 0-1.656.73-1.656 1.648 0 .914.742 1.664 1.656 1.664h10c.922 0 1.672-.75 1.672-1.664 0-.918-.75-1.648-1.672-1.648h-10z"/><defs><path id="c" d="M-175.873-214.081h406.539v492.849h-406.539z"/></defs><clipPath id="d"><use xlink:href="#c" overflow="visible"/></clipPath><path clip-path="url(#d)" fill="none" stroke="#010202" stroke-width="3.048" d="M27.264-212.561h201.895V84.166c0 106.625-90.352 193.063-201.766 193.063-111.426 0-201.746-86.438-201.746-193.063v-296.727H27.264z"/></svg>