<svg xmlns="http://www.w3.org/2000/svg" xmlns:xlink="http://www.w3.org/1999/xlink" width="406.316" height="492.574" viewBox="-175.931 -213.741 406.316 492.574"><path fill="#FFF" d="M27.084-212.217h201.77V84.357c0 106.555-90.271 192.954-201.641 192.954-111.352 0-201.617-86.397-201.617-192.954v-296.574H27.084z"/><path fill="#E8423F" d="M27.147-212.217h201.707v68.734H27.147zm-.008 138.855h201.707v70.137H27.139zm0 210.383H221.26a186.102 186.102 0 0 0 7.594-52.672V66.896H27.139v70.125zm155.606 70.156H27.139v70.134h.648c62.364-.196 118.075-27.431 154.958-70.134"/><defs><path id="a" d="M-175.931-213.741h406.316v492.574h-406.316z"/></defs><clipPath id="b"><use xlink:href="#a" overflow="visible"/></clipPath><path clip-path="url(#b)" fill="none" stroke="#010202" stroke-width="3.048" d="M27.139-3.225h201.714v-70.129H27.139v70.129zm155.606 210.402H27.139v70.134h.648c62.364-.196 118.075-27.431 154.958-70.134zm-155.606 0h155.59c17.547-20.328 30.805-44.109 38.523-70.156H27.139v70.156zm0-70.156H221.26a186.102 186.102 0 0 0 7.594-52.672V66.896H27.139v70.125zm0-70.125h201.714V-3.225H27.139v70.121zm201.715-210.379v-68.734H27.139v68.734h201.715zM27.139-73.354h201.714v-70.137H27.139v70.137z"/><defs><path id="c" d="M-175.931-213.741h406.316v492.574h-406.316z"/></defs><clipPath id="d"><use xlink:href="#c" overflow="visible"/></clipPath><path clip-path="url(#d)" fill="none" stroke="#010202" stroke-width="3.048" d="M27.084-212.217h201.77V84.357c0 106.555-90.271 192.954-201.641 192.954-111.352 0-201.617-86.397-201.617-192.954v-296.574H27.084z"/><path fill="#E8423F" d="M-157.173-138.331c0 20.855 9.961 45.488 38.043 46.184 5.313.145 18.621-.496 27.414-9.07 5.266-5.145 7.938-12.266 7.938-21.145 0-14.922-7.586-21.52-13.945-24.441-7.711-3.496-16.809-3.129-22.086-1.551 1.688-4.387 5.863-11.543 20.32-12 5.797-.191 14.086 1.285 20.68 9.391 7.902 9.703 15 31 3.863 77.305l-.441 1.871h57.129l.023-1.504c.711-48.145-9.168-82.949-29.391-103.465-16.938-17.184-36.281-19.047-43.824-19.047-64.962.008-65.723 56.898-65.723 57.472"/><path fill="#010202" d="M-91.458-197.315c-34.168 0-50.609 15.609-58.402 28.703-8.727 14.738-8.832 29.648-8.832 30.273 0 21.543 10.352 46.984 39.504 47.727h.523l.605.008c8.41 0 35.801-2.285 35.801-31.75 0-21.168-15.016-28.723-29.063-28.723-1.832 0-3.824.137-5.723.434 2.352-3.727 7.137-7.863 17.602-8.199.344-.016.609-.016.871-.016 5.297 0 12.855 1.598 18.848 9.199 7.504 9.52 14.168 30.375 3.289 75.641l-.895 3.758h60.558l.047-3.016c.711-48.559-9.313-83.734-29.832-104.543-17.335-17.601-37.175-19.496-44.901-19.496m-64.176 58.953c0-2.395 1.285-55.906 64.176-55.906 14.176 0 71.535 6.738 71.734 115.691 0 1.727-.008 3.492-.039 5.262h-53.703c4.023-16.746 5.766-30.695 5.766-42.191-.008-33.793-15-46.398-30.863-46.398-.32 0-.648 0-.969.023-20.688.656-22.086 15.094-22.965 16.215.512-.441 1.484-.887 2.781-1.281.32-.086.664-.184 1.023-.27 1.992-.48 4.555-.809 7.379-.809 11.055 0 26.023 5.039 26.023 25.672 0 26.031-23.746 28.703-32.762 28.703-.383 0-.727-.016-1.047-.016-26.434-.664-36.527-23.777-36.527-44.672v-.023h-.007z"/><path fill="#E8423F" d="M-85.373-67.506h77.387v11.504h-77.387z"/><path fill="none" stroke="#010202" stroke-width="3.048" stroke-miterlimit="10" d="M-85.373-67.506h77.387v11.504h-77.387z"/><path fill="#E8423F" d="M-85.373-35.788h77.387v11.512h-77.387z"/><path fill="none" stroke="#010202" stroke-width="3.048" stroke-miterlimit="10" d="M-85.373-35.788h77.387v11.512h-77.387z"/><path fill="#E8423F" d="M-100.994-51.604H7.627v11.512h-108.621z"/><path fill="none" stroke="#010202" stroke-width="3.048" stroke-miterlimit="10" d="M-100.994-51.604H7.627v11.512h-108.621z"/><path fill="#E8423F" d="M-73.763 154.724l-33.938 39.703 26.25-213.996h69.215l26.528 213.996-34.215-39.445-26.778 85.07z"/><path fill="none" stroke="#010202" stroke-width="3.048" stroke-miterlimit="10" d="M-73.763 154.724l-33.938 39.703 26.25-213.996h69.215l26.528 213.996-34.215-39.445-26.778 85.07z"/></svg>