<svg xmlns="http://www.w3.org/2000/svg" xmlns:xlink="http://www.w3.org/1999/xlink" width="406.469" height="492.748" viewBox="0 0 406.469 492.748"><path fill="#FFF" d="M203.086 1.565h201.839v296.668c0 106.594-90.281 193.047-201.703 193.047-111.406 0-201.711-86.453-201.711-193.047V1.565h201.575z"/><path fill="#E8423F" d="M274.115 1.748v477.259c76.164-27.384 130.414-97.538 130.805-179.905V1.746l-130.805.002z"/><path fill="#16A74E" d="M1.52 1.756v296.477c0 85.461 58.031 157.922 138.43 183.313V1.757L1.52 1.756z"/><path fill="#FFF" d="M393.559 59.955h-47.194V12.526h-14.033v47.429H285.99v14.043h46.342v45.879h14.033V73.998h47.194z"/><defs><path id="a" d="M0 .014h406.457v492.734H0z"/></defs><clipPath id="b"><use xlink:href="#a" overflow="visible"/></clipPath><path clip-path="url(#b)" fill="none" stroke="#010202" stroke-width="3.048" d="M203.086 1.533h201.839v296.668c0 106.609-90.281 193.031-201.703 193.031-111.406 0-201.711-86.422-201.711-193.031V1.533h201.575z"/></svg>