<svg xmlns="http://www.w3.org/2000/svg" width="460" height="540" viewBox="0 0 460 540">
  <g fill="none" stroke="#000" stroke-width="3.046">
    <path fill="#E7423F" d="M223.886204,1.523214 L223.881433,1.53463417 L1.52323612,1.5232917 L1.52796343,327.078947 C1.52796343,443.887365 100.640601,538.476786 223.014248,538.476786 C345.445387,538.476786 444.476786,443.923169 444.476786,327.078947 L444.476786,1.523214 L223.886204,1.523214 Z"/>
    <polygon fill="#FFF" stroke-linecap="square" points="263 198.554 293.685 198.554 293.685 224 341.26 224 341.26 198.554 362.668 198.554 362.668 224 415 224 415 195.14 395.732 195.14 395.732 172.16 415 172.16 415 143.015 362.668 143.015 362.668 168.461 341.26 168.461 341.26 143.015 312.953 143.015 312.953 120.653 341.26 120.653 341.26 95.207 362.668 95.207 362.668 120.653 415 120.653 415 91.816 395.732 91.816 395.732 68.837 415 68.837 415 40 362.668 40 362.668 65.114 341.26 65.114 341.26 40 293.685 40 293.685 65.114 263 65.114"/>
    <polygon fill="#FFF" stroke-linecap="square" points="182 198.554 151.682 198.554 151.682 224 104.336 224 104.336 198.554 82.981 198.554 82.981 224 31 224 31 195.14 50.179 195.14 50.179 172.16 31 172.16 31 143.015 82.981 143.015 82.981 168.461 104.336 168.461 104.336 143.015 132.502 143.015 132.502 120.653 104.336 120.653 104.336 95.207 82.981 95.207 82.981 120.653 31 120.653 31 91.816 50.179 91.816 50.179 68.837 31 68.837 31 40 82.981 40 82.981 65.114 104.336 65.114 104.336 40 151.682 40 151.682 65.114 182 65.114"/>
    <path fill="#FFF" stroke-linecap="square" d="M227.728485,15.1609872 L228.012906,321.273419 C228.012906,321.74691 228.415834,352.523876 259.939071,352.523876 C277.004281,352.523876 284.588819,346.841974 291.699324,341.633565 C299.757895,335.714918 307.816467,329.796271 328.673947,329.559525 C336.258485,329.559525 354.034746,330.506508 365.64857,342.107057 C373.233108,349.682925 377.025377,360.099744 377.025377,373.59426 C377.025377,385.905046 368.966805,397.979086 355.93088,405.318208 C338.628653,414.551298 317.534156,413.84106 300.468946,402.477258 L296.202643,399.636307 C286.484954,393.007422 272.974995,383.774333 257.094869,391.586947 C246.903146,396.558611 241.451759,405.081463 242.162809,415.02479 C242.162809,421.180183 244.058944,424.731371 246.429112,428.756051 C249.984364,434.674698 254.250667,442.013821 254.250667,461.900475 C254.250667,473.73777 250.458398,494.334662 225.879754,496.465375 C206.183657,498.359342 191.820438,479.182925 191.725631,461.900475 C191.607123,442.013821 196.015636,434.674698 199.452379,428.756051 C201.798846,424.731371 203.813489,421.180183 203.813489,415.261536 C204.453434,405.081463 198.978346,396.558611 188.762921,391.586947 C172.930198,383.774333 159.586151,393.007422 149.726252,399.636307 L145.507352,402.477258 C128.27623,414.077806 107.300242,414.551298 90.0928212,405.318208 C76.9857914,397.979086 68.8561147,385.905046 68.8561147,373.59426 C68.8561147,360.099744 72.6957871,349.682925 80.2329218,342.107057 C91.9415524,330.506508 109.694112,329.559525 116.780915,329.559525 C138.088726,329.796271 146.242105,335.714918 154.134765,341.633565 C161.458584,346.841974 169.01942,352.523876 185.966123,352.523876 C217.513061,352.523876 217.915989,321.74691 217.915989,321.273419 L218.176708,15.1609872 L179.471862,15 L179.471862,305.487203 C179.471862,310.695612 178.049761,314.246801 175.442576,315.43053 C172.432463,316.851005 167.786933,314.957038 162.738475,310.458867 C149.370727,298.384826 126.806726,292.939671 110.381461,292.939671 C93.8376869,292.939671 32,306.434186 32,373.196527 C32,408.945155 58.9014085,447.534735 118.013402,447.534735 C136.145188,447.534735 153.684433,438.301645 163.165105,431.672761 C158.235155,440.432358 154.940622,450.612431 154.940622,461.502742 C154.940622,470.735832 156.670844,480.205667 160.249798,489.438757 C169.920084,513.823583 190.01911,529.685558 215.379909,532.526508 C217.584166,533 220.997208,533 223.201464,533 C225.382019,533 227.491469,533 229.411305,532.763254 C255.909785,529.685558 276.056214,513.823583 285.773903,489.438757 C289.329156,480.442413 290.988273,470.735832 290.988273,461.739488 C290.988273,450.612431 287.670038,440.432358 282.692685,431.672761 C292.173357,438.301645 309.712602,447.534735 327.962896,447.534735 C386.980083,447.534735 414,408.945155 414,373.196527 C414,306.434186 352.138611,292.939671 335.547434,292.939671 C319.193274,292.939671 296.43966,298.384826 283.166718,310.458867 C278.189365,314.957038 273.449029,316.851005 270.36781,315.43053 C267.997642,314.246801 266.575541,310.695612 266.575541,305.487203 L266.575541,15 L227.728485,15.1609872 Z"/>
    <path fill="#FFF" stroke-linecap="square" d="M285,265.5 C285,272.471154 279.54873,278 272.9124,278 L172.253508,278 C165.474972,278 160,272.471154 160,265.5 C160,258.528846 165.474972,253 172.253508,253 L272.9124,253 C279.54873,253 285,258.528846 285,265.5 Z"/>
  </g>
</svg>
