<svg xmlns="http://www.w3.org/2000/svg" width="460" height="540" viewBox="0 0 460 540">
  <g fill="none" stroke="#000">
    <path fill="#FFF" stroke-width="2.772" d="M1.386,2.2284337 L1.386,318.439938 C1.38600181,440.038999 99.8703338,538.613997 221.356275,538.613997 C342.842217,538.613997 441.326549,440.038999 441.326551,318.439938 L441.326551,2.2284337 L1.386,2.2284337 Z"/>
    <path fill="#D32" stroke-width="2.772" d="M441.326551,1.386 L1.386,1.386 L1.386,256.398711 L441.326551,256.398711 L441.326551,1.386 Z"/>
    <path fill="#FFF" stroke-width="2.772" d="M239.031111,271.263651 L239.031111,13.4789392 L203.68144,13.4789392 L203.68144,271.263651 M203.68144,31.1700468 L161.598498,31.1700468 L161.598498,51.6411856 L148.131956,51.6411856 L148.131956,31.1700468 L95.9491079,31.1700468 L95.9491079,66.5522621 L133.823756,66.5522621 L133.823756,81.7160686 L95.9491079,81.7160686 L95.9491079,117.098284 L148.131956,117.098284 L148.131956,96.8798752 L161.598498,96.8798752 L161.598498,117.098284 L181.79831,117.098284 L181.79831,131.419657 L161.598498,131.419657 L161.598498,151.638066 L148.131956,151.638066 L148.131956,131.419657 L95.9491079,131.419657 L95.9491079,166.801872 L133.823756,166.801872 L133.823756,181.965679 L95.9491079,181.965679 L95.9491079,217.347894 L148.131956,217.347894 L148.131956,197.129485 L161.598498,197.129485 L161.598498,217.347894 L203.68144,217.347894"/>
    <g fill="#D32" transform="matrix(-1 0 0 1 222.198 257.785)">
      <path stroke-width="2.772" d="M110.257308,96.0374415 C125.407167,122.152886 119.515555,148.268331 98.4740845,160.062402 C77.4326134,171.856474 68.1743662,160.904836 69.016025,141.528861 C55.5494835,155.850234 64.8077308,177.75351 78.2742723,181.123245 C88.3741784,183.650546 104.365696,180.280811 115.307261,174.383775 C145.60698,157.535101 155.706886,113.728549 135.507073,80.8736349"/>
      <path stroke-width="2.772" d="M0,29.4851794 L28.6164006,29.4851794 C31.983036,29.4851794 33.6663537,26.1154446 33.6663537,23.5881435 L33.6663537,5.89703588 C33.6663537,3.36973479 31.983036,0 28.6164006,0 L0,0 M0,267.893916 C31.1413771,267.893916 56.3911424,253.572543 68.1743662,229.141966 C77.4326134,210.608424 74.065978,193.75975 69.016025,180.280811 C59.7577777,155.850234 26.0914241,160.904836 22.7247887,181.123245 C35.3496713,172.698908 50.4995305,171.856474 53.024507,190.390016 C56.3911424,220.717629 34.5080125,238.408736 0,238.408736 M0.841658841,29.4851794 L23.5664476,29.4851794 C31.1413771,29.4851794 41.2412832,35.3822153 37.8746479,47.1762871 L25.2497652,90.1404056 L0.841658841,90.1404056"/>
      <path stroke-width="2.773" d="M47.991534,15.1691736 C63.1467552,41.2938614 57.253058,67.4185493 36.2041396,79.2167954 C15.1552212,91.0150415 5.89369715,80.0595273 6.73565389,60.6766944 C-6.73565389,75.0031361 2.52587021,96.9141646 15.997178,100.285092 C26.1006588,102.813288 42.0978368,99.4423602 53.0432744,93.5432371 C83.3537169,76.6885998 93.4571977,32.8665428 73.250236,0" transform="scale(1 -1) rotate(61.847 172.362 11.545)"/>
      <path stroke-width="2.772" d="M0,21.9032761 L33.6663537,21.9032761 C43.7662598,21.9032761 42.9246009,7.58190328 33.6663537,7.58190328 L0,7.58190328"/>
      <ellipse cx="47.133" cy="147.426" stroke-width="2.772" rx="15.318" ry="15.332"/>
      <ellipse cx="89.216" cy="197.972" stroke-width="2.772" rx="15.318" ry="15.332"/>
    </g>
    <g fill="#D32" transform="translate(220.515 257.785)">
      <path stroke-width="2.772" d="M110.257308,96.0374415 C125.407167,122.152886 119.515555,148.268331 98.4740845,160.062402 C77.4326134,171.856474 68.1743662,160.904836 69.016025,141.528861 C55.5494835,155.850234 64.8077308,177.75351 78.2742723,181.123245 C88.3741784,183.650546 104.365696,180.280811 115.307261,174.383775 C145.60698,157.535101 155.706886,113.728549 135.507073,80.8736349"/>
      <path stroke-width="2.772" d="M0,29.4851794 L28.6164006,29.4851794 C31.983036,29.4851794 33.6663537,26.1154446 33.6663537,23.5881435 L33.6663537,5.89703588 C33.6663537,3.36973479 31.983036,0 28.6164006,0 L0,0 M0,267.893916 C31.1413771,267.893916 56.3911424,253.572543 68.1743662,229.141966 C77.4326134,210.608424 74.065978,193.75975 69.016025,180.280811 C59.7577777,155.850234 26.0914241,160.904836 22.7247887,181.123245 C35.3496713,172.698908 50.4995305,171.856474 53.024507,190.390016 C56.3911424,220.717629 34.5080125,238.408736 0,238.408736 M0.841658841,29.4851794 L23.5664476,29.4851794 C31.1413771,29.4851794 41.2412832,35.3822153 37.8746479,47.1762871 L25.2497652,90.1404056 L0.841658841,90.1404056"/>
      <path stroke-width="2.773" d="M47.991534,15.1691736 C63.1467552,41.2938614 57.253058,67.4185493 36.2041396,79.2167954 C15.1552212,91.0150415 5.89369715,80.0595273 6.73565389,60.6766944 C-6.73565389,75.0031361 2.52587021,96.9141646 15.997178,100.285092 C26.1006588,102.813288 42.0978368,99.4423602 53.0432744,93.5432371 C83.3537169,76.6885998 93.4571977,32.8665428 73.250236,0" transform="scale(1 -1) rotate(61.847 172.362 11.545)"/>
      <path stroke-width="2.772" d="M0,21.9032761 L33.6663537,21.9032761 C43.7662598,21.9032761 42.9246009,7.58190328 33.6663537,7.58190328 L0,7.58190328"/>
      <ellipse cx="47.133" cy="147.426" stroke-width="2.772" rx="15.318" ry="15.332"/>
      <ellipse cx="89.216" cy="197.972" stroke-width="2.772" rx="15.318" ry="15.332"/>
    </g>
    <ellipse cx="221.356" cy="310.858" fill="#D32" stroke-width="2.772" rx="17.675" ry="23.588"/>
    <ellipse cx="221.356" cy="357.192" fill="#D32" stroke-width="2.772" rx="20.789" ry="20.808"/>
  </g>
</svg>
