<svg xmlns="http://www.w3.org/2000/svg" width="531" height="669" viewBox="0 0 354 446"><g stroke="#000" stroke-width="4.5" fill="#093"><path d="M2.5 2.5h349v173.7C351.5 293.6 320 395 177 443.35 34 395 2.5 293.6 2.5 176.2z" stroke-width="5"/><path d="M168.6 35.7a8.45 7.5 0 0 1 16.8 0v375.8a8.45 7.5 0 0 1-16.8 0z" fill="#fff"/><path d="M144.75 369.3a7.45 7.2 0 0 1-14.9 0V114.6a7.45 6.4 0 0 1 14.9 0v253.3a9.375 8.9 0 0 0 18.75 0V116.2a9.375 8.4 0 0 0-18.75 0m64.5 253.1a7.45 7.2 0 0 0 14.9 0V114.6a7.45 6.4 0 0 0-14.9 0v253.3a9.375 8.9 0 0 1-18.75 0V116.2a9.375 8.4 0 0 1 18.75 0M163.5 119a13.5 11.5 0 0 1 27 0v247a13.5 11 0 0 1-27 0M198 77.6V49.8h-25c-25-.2-38.5-13-49.4-27.2-6.9 13.6-8.9 22-9.2 34.8.4 15 2.2 24.1 11 40 13.9-14.2 26.7-19.5 46.3-19.8z" fill="#fff"/><path d="M125.5 131h103v22h-103zm0 200.7h103v22h-103zm0-12.2h1.5L228.5 199v-33.7H227L125.5 285.8z" stroke-linejoin="round"/><path d="M125.5 165.3h1.5l101.5 120.5v33.7H227L125.5 199z" stroke-linejoin="round"/></g></svg>