<svg xmlns="http://www.w3.org/2000/svg" width="445" height="540" viewBox="0 0 445 540">
  <g fill="none" fill-rule="evenodd">
    <path fill="#FFD72E" fill-rule="nonzero" d="M222.031109,9.4661121e-15 L444.317719,0 L444.317719,327.078947 C444.317719,444.789474 344.955888,540 222.173054,540 C99.4611928,540 0.00473151576,444.789474 0.00473151576,327.078947 L0,0 L222.026377,0.0163421053 L222.031109,9.4661121e-15 Z"/>
    <path stroke="#000" stroke-width="2.863" d="M223.107071,1.431675 L223.102317,1.4480963 L1.43169571,1.43178038 L1.43640652,327.078947 C1.43640652,443.948023 100.20017,538.568325 222.173054,538.568325 C344.187759,538.568325 442.886044,443.975964 442.886044,327.078947 L442.886044,1.431675 L223.107071,1.431675 Z"/>
    <path stroke="#000" stroke-width="2.517" d="M36.6332468,175.401536 C36.6332468,175.401536 50.7759518,178.725227 58.396649,175.982601 C62.9316651,174.355619 63.3290635,165.872073 62.0667394,166.220712 C58.6537891,167.220143 40.7007355,164.361304 34.5527497,162.780808 C32.7995218,162.339198 36.6332468,175.401536 36.6332468,175.401536 Z"/>
    <path fill="#FFD72E" fill-rule="nonzero" d="M66.5826044,174.246114 C66.5826044,174.246114 33.3381572,173.531601 31.2236694,172.701843 C29.0856873,171.872086 35.1942076,186.554182 43.7226418,190.011504 C48.6329524,191.993702 57.4668125,181.71393 67.2639394,180.930271 C69.6838532,180.74588 66.5826044,174.246114 66.5826044,174.246114"/>
    <path fill="#000" fill-rule="nonzero" d="M57.0544238,163.317632 C56.4896565,163.907279 56.089613,171.572688 56.089613,171.572688 L63.5727798,182.25709 C63.5727798,182.25709 69.5734324,180.25229 69.3851767,181.549513 C70.1146678,185.134566 66.3495524,187.917699 71.7383738,189.332852 C77.1036631,190.77159 77.0801312,181.785372 93.0583395,182.351433 C109.013016,182.94108 114.354773,184.71002 118.449336,190.77159 C123.62637,198.437 126.96791,220.489792 128.2857,223.673885 C129.274043,226.056059 132.074347,233.320508 136.215974,235.13662 C140.545857,236.787632 145.95821,228.603333 145.95821,228.367474 C145.95821,226.527776 144.099185,224.499391 144.099185,222.895552 C144.099185,221.268126 146.405318,216.975497 148.123152,214.21595 C150.358689,210.607311 141.157688,189.757398 140.545857,187.375224 C140.475261,183.271282 138.898619,179.403199 138.898619,179.403199 C138.898619,179.403199 136.239506,174.497337 134.992312,173.247285 C133.721585,172.02082 133.486266,170.605667 131.98022,170.13395 C130.874217,169.756576 117.437461,167.209302 108.259993,167.067786 C105.60088,167.020615 86.0222801,163.647834 83.8338068,165.15733 C76.2800442,162.775157 64.6081865,154.779546 57.0544238,163.317632"/>
    <path stroke="#000" stroke-width="2.833" d="M235.18457,348.670498 C235.42515,350.05925 239.755601,381.074707 239.755601,382.000541 C239.755601,382.926376 232.94717,392.184721 223.805108,391.490345 C217.83871,390.795969 214.49464,379.917414 215.865949,368.807399 C217.2132,357.697385 232.321661,347.976123 235.18457,348.670498 Z"/>
    <path fill="#FFD72E" fill-rule="nonzero" d="M258.452138,381.668639 C252.145058,371.390769 239.063706,350.835031 239.063706,350.835031 C239.063706,350.835031 226.753219,353.225233 227.710961,374.259012 C228.692062,395.292791 252.612249,393.619649 258.452138,381.668639"/>
    <g stroke="#000" transform="translate(25.295 172.668)">
      <path stroke-width="2.833" d="M234.256619,209.000614 C227.949539,198.722745 214.868186,178.167006 214.868186,178.167006 C214.868186,178.167006 202.5577,180.557208 203.515441,201.590987 C204.496543,222.624766 228.41673,220.951625 234.256619,209.000614 Z"/>
      <path stroke-width="2.517" d="M42.3870851,1.57808967 C42.3870851,1.57808967 9.14263785,0.863576382 7.02815004,0.0338190161 C4.89016792,-0.795938349 10.9986883,13.8861573 19.5271224,17.3434796 C24.437433,19.3256778 33.2712932,9.04590596 43.06842,8.26224622 C45.4883339,8.0778557 42.3870851,1.57808967 42.3870851,1.57808967 Z"/>
      <path stroke-width="2.833" d="M26.395112,86.8839104 L18.4225106,111.064317 C18.4225106,111.064317 -1.80826478,111.306121 0.131016645,109.855297 C2.04635633,108.162668 12.5567828,91.2363836 14.6397147,90.5109714 C16.7226466,89.7855592 26.395112,86.8839104 26.395112,86.8839104 Z"/>
    </g>
    <path fill="#FFD72E" fill-rule="nonzero" d="M50.1713083,258.452138 C50.1713083,258.452138 64.3645316,260.559722 63.4881061,260.325546 C62.6116807,260.09137 64.2428058,279.762147 63.6585222,280.69885 C63.0985837,281.86973 46.3004293,293.34435 36.3919526,289.597535 C34.9312436,289.129183 50.1713083,258.452138 50.1713083,258.452138"/>
    <path stroke="#000" stroke-width="2.833" d="M50.1713083 258.452138C50.1713083 258.452138 64.3645316 260.559722 63.4881061 260.325546 62.6116807 260.09137 64.2428058 279.762147 63.6585222 280.69885 63.0985837 281.86973 46.3004293 293.34435 36.3919526 289.597535 34.9312436 289.129183 50.1713083 258.452138 50.1713083 258.452138zM104.123641 448.818564C104.123641 448.818564 113.70113 448.095648 115.354798 450.505369 117.008465 452.91509 101.55127 468.096332 101.55127 468.096332 101.55127 468.096332 85.6576916 469.301192 84.71602 467.614387 83.7743484 465.927583 104.123641 448.818564 104.123641 448.818564z"/>
    <path fill="#FFD72E" fill-rule="nonzero" d="M117.561475,445.417515 L124.706638,447.984389 C124.706638,447.984389 126.56344,467.352615 124.095538,470.15284 C121.580629,473.186418 107.125776,479.486925 94.8097717,474.119826 C91.9188012,472.719713 117.561475,445.417515 117.561475,445.417515"/>
    <path stroke="#000" stroke-width="2.833" d="M117.561475,446.517312 L124.706638,449.084185 C124.706638,449.084185 126.56344,468.452411 124.095538,471.252636 C121.580629,474.286214 107.125776,480.586721 94.8097717,475.219622 C91.9188012,473.81951 117.561475,446.517312 117.561475,446.517312 Z M351.356293,444.106884 C354.704748,441.80769 358.292378,439.048657 364.032587,438.818737 L363.075885,465.029551 C363.075885,465.029551 345.85526,472.846812 345.376909,471.697215 C344.898558,470.547617 348.725364,446.406078 351.356293,444.106884 Z"/>
    <path fill="#FFD72E" fill-rule="nonzero" d="M364.863163,430.531599 C364.863163,430.531599 355.436797,470.347018 356.403604,471.727899 C357.128709,472.878634 380.33207,462.061728 381.540578,454.236733 C382.507385,446.641884 375.256335,428.92057 375.256335,428.92057 L364.863163,430.531599 Z"/>
    <path stroke="#000" stroke-width="2.833" d="M364.863163,430.531599 C364.863163,430.531599 355.436797,470.347018 356.403604,471.727899 C357.128709,472.878634 380.33207,462.061728 381.540578,454.236733 C382.507385,446.641884 375.256335,428.92057 375.256335,428.92057 L364.863163,430.531599 Z"/>
    <path fill="#000" fill-rule="nonzero" d="M242.525679,344.427802 C239.851295,347.679412 235.718157,349.305216 235.231905,348.376185 C236.69066,339.550389 232.654772,328.634272 225.458248,320.040733 C234.016276,321.202022 245.686314,340.943935 242.525679,344.427802 M130.487661,268.084057 C131.644327,269.737861 129.024124,275.171791 132.163646,279.660689 C134.476978,282.968298 140.378334,281.550752 141.865475,283.677072 C144.36765,286.984681 150.575877,303.995243 166.556749,290.764806 C170.569672,299.742603 227.246296,317.461938 222.501606,316.044391 C200.170874,310.610462 201.705227,318.170712 197.338223,316.516907 C192.97122,314.626844 181.593405,308.247884 177.934564,321.714579 C168.728449,319.352001 164.432261,320.060774 158.129613,332.34618 C156.85492,333.054953 141.464183,335.890047 145.429894,352.191836 C135.987725,357.625765 138.466294,365.894788 146.964247,375.108843 C145.854792,384.08664 143.49425,391.174374 159.050224,393.064436 C159.947231,394.481983 161.764848,400.860944 174.91307,400.15217 C177.391639,404.404811 174.488172,406.294873 174.488172,406.294873 C174.488172,406.294873 138.938403,431.810716 123.358823,432.51949 C117.056174,432.992005 117.363045,433.464521 115.73427,434.882068 C114.105496,436.299615 109.667676,446.931216 109.667676,446.931216 C109.667676,446.931216 107.897269,449.76631 110.399444,450.947599 C112.854409,452.365146 119.109846,454.727724 123.453244,454.963981 C124.775148,455.200239 126.663582,454.491466 127.442561,451.656372 C128.245145,448.585021 134.217318,446.222443 135.067113,454.963981 C135.161535,455.909013 140.354728,454.727724 140.803231,454.01895 C144.62731,447.876247 147.601594,438.662193 164.290629,431.810716 C178.052591,426.376787 203.475633,417.39899 205.434884,416.217701 C207.370528,414.800154 208.338351,407.239905 206.615155,404.641069 C204.868353,402.278491 200.430534,396.372045 200.430534,396.372045 C200.430534,396.372045 216.553039,390.701858 217.945759,390.229343 C206.001414,371.801234 222.73766,347.939195 239.167035,351.71932 C238.694927,352.191836 234.209896,357.15325 242.707849,363.059695 C236.806493,375.345101 252.150019,378.180194 252.150019,378.180194 C252.150019,378.180194 252.622127,386.21296 254.274507,387.394249 C255.926887,388.575538 255.926887,388.811796 268.673816,387.866764 C272.450684,387.630507 279.532311,401.333459 292.751349,387.866764 C295.584,394.954499 311.635689,398.02585 314.46834,387.630507 C330.283974,396.135788 335.949276,379.597741 334.769005,376.762648 C336.893493,376.762648 336.893493,376.52639 337.601656,374.872585 C345.155392,378.888968 346.335663,386.685475 349.876476,396.844561 C353.653344,408.421194 357.666267,421.415373 357.666267,421.415373 C357.666267,421.415373 358.374429,426.849302 357.430212,427.558076 C355.06967,428.975623 352.945182,434.882068 355.06967,441.024771 C369.468979,448.348763 376.78666,441.969802 376.78666,440.788513 C377.022715,439.607224 377.730877,435.827099 378.911149,434.882068 C380.09142,433.937037 385.756722,431.338201 385.756722,429.920654 C385.520668,428.503107 383.868288,426.376787 381.507745,423.777951 C378.911149,422.596662 377.258769,419.052795 375.134281,417.871506 C371.357413,415.745186 359.082592,376.053874 357.666267,370.147429 C356.485995,364.240984 361.443134,349.120484 353.181236,347.46668 C345.863554,346.049133 342.794849,354.318156 338.073764,350.065515 C336.893493,348.647969 341.142469,347.46668 337.601656,342.03275 C336.893493,341.087719 334.060842,337.780109 328.631594,338.961399 C330.520028,327.384766 316.592828,326.203477 316.592828,326.203477 C316.592828,326.203477 318.717316,320.53329 309.983309,306.830337 C332.880571,308.484142 330.520028,300.215118 334.296896,299.270087 C336.18533,298.797571 352.709127,304.231501 354.597561,292.182353 C356.958104,292.182353 368.760816,293.836158 371.357413,281.314494 C383.868288,284.149587 385.992776,269.974119 385.992776,269.974119 C385.992776,269.974119 402.752627,266.902768 394.726783,254.144846 C401.100248,248.947174 401.80841,239.260604 389.53359,237.843057 C390.005698,224.258234 379.383257,223.360454 372.537684,230.471814 C372.065576,229.385028 361.20708,221.446766 354.361507,238.315573 C339.49009,236.189253 341.378524,250.128463 341.378524,250.128463 C341.378524,250.128463 329.339757,247.057112 330.283974,264.776447 C324.854726,265.485221 325.562889,269.501603 325.562889,269.501603 C325.562889,269.501603 327.923432,294.072415 306.914604,298.325056 C299.124814,285.330876 276.227552,278.715658 260.411917,270.210377 C249.789476,264.776447 242.707849,258.397487 243.88812,256.271166 C250.497639,243.749503 247.901042,240.914409 247.901042,240.914409 C247.901042,240.914409 259.231646,235.504105 257.343212,228.132862 C268.437762,224.707123 265.133002,215.705701 267.257491,213.272246 C269.145925,210.83879 278.824149,212.020079 274.339118,199.120403 C273.394901,196.923205 261.356134,192.717816 256.871104,186.291604 C255.926887,186.291604 255.218724,186.409733 255.218724,186.409733 C255.218724,186.409733 254.746616,177.384685 250.969748,177.07755 C247.19288,176.770414 241.763632,183.409259 237.278601,183.196627 C234.918059,183.102124 227.930853,182.794989 226.042419,182.487853 C224.13038,182.204344 217.237596,187.850906 217.237596,187.850906 C217.237596,187.850906 201.89407,184.259787 197.527066,193.001326 C186.267279,187.661899 180.649188,197.372095 180.649188,197.372095 C180.649188,197.372095 166.320695,192.906823 163.842126,209.893759 C147.530777,212.752478 148.522205,221.163256 148.876286,224.919755 C149.206762,228.69988 150.906353,228.747132 149.678871,232.598134 C143.80112,234.13381 137.97058,241.150667 137.97058,241.150667 C137.97058,241.150667 135.869698,242.095698 128.929703,236.425511 C120.667804,229.833918 116.749304,226.668063 114.837264,224.494491 C112.901619,222.32092 107.684821,221.116005 99.6117655,224.707123 C96.1181626,226.242799 96.5902711,227.683972 86.8176253,233.944804 C75.2273619,241.386925 62.5748543,250.364721 54.5962208,249.183432 C49.7571088,248.474659 40.7870475,256.034909 40.6926258,262.413869 C40.6218095,268.556572 63.8731527,267.847799 64.1328124,265.248963 C64.4160775,262.650127 66.2100897,261.468838 66.2100897,261.468838 C66.2100897,261.468838 71.8281808,272.809213 78.626543,264.303932 C85.4249053,255.798651 90.9957855,251.309752 90.9957855,251.309752 C90.9957855,251.309752 99.8714251,241.386925 108.416589,245.167049 C116.961752,248.947174 122.910319,260.051291 130.487661,268.084057"/>
    <path stroke="#000" stroke-width="2.795" d="M190.377187,67.4465269 C186.648413,29.905024 277.077048,29.0924373 253.391125,109.979633"/>
    <path stroke="#000" stroke-width="2.835" d="M269.233329,143.996451 C271.603455,145.856863 286.298232,113.358537 289.142383,110.344199 C291.986533,107.353411 293.645621,103.185148 293.645621,98.5458937 C293.645621,91.1984461 289.379395,84.934276 283.454082,82.6264239 C285.587195,79.2823932 286.772257,75.2318772 286.772257,70.8281185 C287.00927,59.3124074 278.713831,49.8926027 268.285279,49.7984047 C267.811254,49.7748551 267.337229,49.8219542 266.863204,49.8690532 C270.655405,45.0649528 271.603455,38.4710896 268.522292,33.2195485 C264.730091,26.3666406 255.723615,24.4355806 248.613238,28.8864383 C248.139213,29.145483 247.665188,29.4516266 247.428176,29.7342207 C247.191163,27.6383142 246.480125,25.6130562 245.295063,23.8232933 C241.26585,17.4036965 232.306775,16.1814768 225.457113,21.0562257 C224.674972,21.5978645 223.987635,22.200732 223.347701,22.8342138 C219.081476,16.8879621 210.47792,15.8235242 203.794167,20.5758157 C201.850664,21.9393324 200.310082,23.6584467 199.172422,25.5659572 C195.001001,23.3052041 189.976336,23.3523031 185.994525,26.1782445 C180.519535,30.0639139 178.978954,37.7881537 182.107519,44.1229724 C178.670837,43.9110267 175.305259,45.0649528 172.840329,47.6553991 C167.886767,52.7656431 168.289688,61.549611 173.693574,67.2956918 C174.025391,67.625385 174.38091,67.9550781 174.712728,68.2612218 C174.523118,68.4496179 174.333508,68.6144645 174.143898,68.8028605 C169.451049,73.6776095 169.474751,81.7079929 174.215002,86.7240389 C177.675385,90.3742132 182.652648,91.4103917 186.918874,89.8325744 C185.378292,94.2127836 186.113031,99.158181 189.241597,102.478662 C193.697432,107.165015 201.234431,106.90597 206.093188,101.842825 C206.946433,100.947944 207.657471,99.9588644 208.250002,98.8991364 C212.326618,104.00938 219.294787,104.97491 223.940233,101.065691 C228.23016,97.4390667 229.012301,90.915852 226.073346,85.7820584 C238.421699,75.8441645 221.190887,59.2653083 210.833439,69.3915983 C216.071416,71.817198 216.782454,78.0107196 212.302917,80.2008242 C210.169804,81.2134532 207.775977,81.896389 205.856176,81.2605522 C197.726646,78.6230069 198.840605,67.6489345 199.741252,64.7523445 C203.29644,53.2366334 220.219136,50.9758802 231.311323,55.615134 C236.999624,57.9700852 260.226853,67.1543947 241.26585,117.927142"/>
    <path fill="#FFD72E" fill-rule="nonzero" d="M386.870359,177.56719 C392.303924,174.051093 395.611312,167.581474 394.666344,160.689923 C393.957618,154.618795 390.177747,149.743141 385.216665,147.281873 C386.634117,144.422114 387.106601,141.210745 386.870359,137.858732 C385.689149,128.71688 377.656922,122.22382 368.207243,122.856718 C369.152211,120.934585 369.624695,118.848367 369.388453,116.668387 C368.443485,109.823717 361.592468,105.088707 354.032725,106.073214 C350.016612,106.588908 346.472982,108.651685 344.346805,111.511444 C341.748143,104.010437 333.952158,99.134782 325.683689,100.236492 C320.250124,100.916271 315.761526,103.869793 312.926623,107.971906 C308.910509,105.299672 303.476944,103.986996 297.807137,104.737097 C286.467522,106.213858 278.435295,114.675932 279.616505,123.67714 C279.852747,126.56034 281.033957,129.162252 282.923893,131.27191 L266.150713,142.640624 L281.742683,164.838918 C281.742683,164.838918 304.18567,147.633482 323.321269,148.571108 C344.819288,149.602497 355.450177,159.306925 354.505209,177.098377 C353.560241,192.592645 337.495787,192.475442 334.424642,184.81035 C331.117254,177.168699 338.204513,173.277551 338.204513,173.277551 C328.518593,163.784089 318.832672,171.42574 317.41522,177.778156 C314.107833,176.981173 310.800445,177.59063 308.201783,179.817492 C303.476944,183.73208 303.00446,191.162765 307.020573,196.413471 C307.965541,197.397978 308.674267,198.265282 309.619235,198.945061 C307.020573,203.234699 307.256815,209.329267 310.800445,213.876753 C315.0528,219.432187 322.376301,220.6511 327.337383,216.595868 C327.337383,216.502106 327.573625,216.384902 327.573625,216.29114 C328.046109,217.39285 328.754835,218.44768 329.463561,219.432187 C333.715916,224.98762 341.275659,225.995568 346.472982,221.682489 C348.362918,219.994762 349.78037,217.697579 350.252854,215.236311 C350.725338,215.56448 350.96158,215.91609 351.197822,216.244259 C357.103871,221.940336 366.317308,221.518404 371.750873,215.330073 C375.530744,211.134197 376.711954,205.367798 375.058261,200.281177 C376.003228,200.281177 376.711954,200.257737 377.42068,200.163974 C386.161633,199.015382 392.540166,192.40512 391.595198,185.372925 C391.122714,182.184997 389.469021,179.465882 386.870359,177.56719"/>
    <path stroke="#000" stroke-width="2.847" d="M386.870359,177.56719 C392.303924,174.051093 395.611312,167.581474 394.666344,160.689923 C393.957618,154.618795 390.177747,149.743141 385.216665,147.281873 C386.634117,144.422114 387.106601,141.210745 386.870359,137.858732 C385.689149,128.71688 377.656922,122.22382 368.207243,122.856718 C369.152211,120.934585 369.624695,118.848367 369.388453,116.668387 C368.443485,109.823717 361.592468,105.088707 354.032725,106.073214 C350.016612,106.588908 346.472982,108.651685 344.346805,111.511444 C341.748143,104.010437 333.952158,99.134782 325.683689,100.236492 C320.250124,100.916271 315.761526,103.869793 312.926623,107.971906 C308.910509,105.299672 303.476944,103.986996 297.807137,104.737097 C286.467522,106.213858 278.435295,114.675932 279.616505,123.67714 C279.852747,126.56034 281.033957,129.162252 282.923893,131.27191 L266.150713,142.640624 L281.742683,164.838918 C281.742683,164.838918 304.18567,147.633482 323.321269,148.571108 C344.819288,149.602497 355.450177,159.306925 354.505209,177.098377 C353.560241,192.592645 337.495787,192.475442 334.424642,184.81035 C331.117254,177.168699 338.204513,173.277551 338.204513,173.277551 C328.518593,163.784089 318.832672,171.42574 317.41522,177.778156 C314.107833,176.981173 310.800445,177.59063 308.201783,179.817492 C303.476944,183.73208 303.00446,191.162765 307.020573,196.413471 C307.965541,197.397978 308.674267,198.265282 309.619235,198.945061 C307.020573,203.234699 307.256815,209.329267 310.800445,213.876753 C315.0528,219.432187 322.376301,220.6511 327.337383,216.595868 C327.337383,216.502106 327.573625,216.384902 327.573625,216.29114 C328.046109,217.39285 328.754835,218.44768 329.463561,219.432187 C333.715916,224.98762 341.275659,225.995568 346.472982,221.682489 C348.362918,219.994762 349.78037,217.697579 350.252854,215.236311 C350.725338,215.56448 350.96158,215.91609 351.197822,216.244259 C357.103871,221.940336 366.317308,221.518404 371.750873,215.330073 C375.530744,211.134197 376.711954,205.367798 375.058261,200.281177 C376.003228,200.281177 376.711954,200.257737 377.42068,200.163974 C386.161633,199.015382 392.540166,192.40512 391.595198,185.372925 C391.122714,182.184997 389.469021,179.465882 386.870359,177.56719 Z M327.064501,186.866525 C337.420936,211.046809 376.728314,193.207752 357.898432,157.483182 C345.659009,134.208787 307.528499,135.393412 290.346232,151.53683 L327.064501,186.866525 Z"/>
    <path fill="#FFD72E" fill-rule="nonzero" d="M21.0116126 36.4464642C23.5689074 39.6822188 29.1484598 38.997278 33.5656055 34.9821081 38.2152325 30.9669381 39.8426019 25.0858951 37.2853071 21.8501405 34.7280122 18.6143859 28.9159785 19.275708 24.4988328 23.3144966 20.0816872 27.3296665 18.4543177 33.2107096 21.0116126 36.4464642M1.26652897 16.5083324C3.80787045 19.8267917 9.58364653 19.3162595 13.9732363 15.348032 18.5938572 11.4030104 19.9800435 5.48547813 17.438702 2.19022485 14.8973605-1.12823443 9.12158444-.617702233 4.50096358 3.3273193.111373753 7.29554683-1.27481251 13.2130791 1.26652897 16.5083324M35.3417608 54.9507966C38.225125 58.4064235 44.2321337 57.7980385 48.7974603 53.5636788 53.6030673 49.329319 55.2850297 43.0994565 52.6419459 39.6438296 49.7585817 36.1638673 43.751573 36.7965877 39.1862464 41.006612 34.3806395 45.2409717 32.698677 51.4951697 35.3417608 54.9507966" transform="translate(246.354 105.58)"/>
    <path stroke="#000" stroke-width="2.375" d="M266.266195,142.026912 C268.82349,145.262667 274.403042,144.577726 278.820188,140.562556 C283.469815,136.547386 285.097184,130.666343 282.53989,127.430589 C279.982595,124.194834 274.170561,124.856156 269.753415,128.894945 C265.33627,132.910115 263.7089,138.791158 266.266195,142.026912 Z M247.620908,122.08878 C250.162249,125.40724 255.938025,124.896708 260.327615,120.92848 C264.948236,116.983458 266.334422,111.065926 263.793081,107.770673 C261.251739,104.452214 255.475963,104.962746 250.855342,108.907767 C246.465753,112.875995 245.079566,118.793527 247.620908,122.08878 Z M281.626802,159.555816 C284.349979,162.819463 290.023265,162.244877 294.334963,158.24576 C298.873592,154.246642 300.462112,148.362883 297.965866,145.099236 C295.242689,141.812605 289.569403,142.410174 285.257705,146.386308 C280.719076,150.385426 279.130556,156.292168 281.626802,159.555816 Z"/>
    <path fill="#FFD72E" fill-rule="nonzero" d="M236.456212 115.401411C242.785868 103.118652 240.000819 90.1832994 240.000819 90.1832994 240.000819 90.1832994 261.015277 99.3429277 251.647386 125.376782 250.634641 124.514425 241.773123 118.128323 236.456212 115.401411M281.928294 169.368635C294.863006 161.0848 313.441955 164.820149 313.441955 164.820149 313.441955 164.820149 299.566537 142.179359 276.04888 159.22983 276.989586 160.093789 280.046882 164.007012 281.928294 169.368635"/>
    <path stroke="#000" stroke-width="2.847" d="M236.456212,115.401411 C242.785868,103.118652 240.000819,90.1832994 240.000819,90.1832994 C240.000819,90.1832994 261.015277,99.3429277 251.647386,125.376782 C250.634641,124.514425 241.773123,118.128323 236.456212,115.401411 Z"/>
    <path stroke="#000" stroke-width="2.795" d="M281.928294,169.368635 C294.863006,161.0848 313.441955,164.820149 313.441955,164.820149 C313.441955,164.820149 299.566537,142.179359 276.04888,159.22983 C276.989586,160.093789 280.046882,164.007012 281.928294,169.368635 Z"/>
    <g fill-rule="nonzero" transform="translate(152.872 116.578)">
      <path fill="#050102" d="M49.490835,46.0704619 C47.0958608,48.1391175 12.1339338,60.6953757 3.44628239,48.9088498 C-5.89881295,36.2804292 6.5221806,22.1365981 8.35363145,23.1468717 C10.1616022,24.1571454 10.7486056,39.3593584 20.0467407,42.1736921 C29.3213956,44.9880258 46.6732183,43.2801823 46.6732183,43.2801823 L49.490835,46.0704619 Z"/>
      <path fill="#FFD72E" d="M93.3432073,27.2032622 C97.8579372,32.6609966 107.125015,31.7992491 114.491153,25.2882677 C121.857291,18.7772863 124.233465,9.05868906 119.956352,3.60095466 C115.67924,-1.85677974 106.174545,-1.01896963 99.0460241,5.49201175 C91.6798857,12.0269306 89.0660947,21.7455278 93.3432073,27.2032622"/>
      <path fill="#FFD72E" d="M111.578371,40.1478694 C115.144634,44.6070272 123.465916,43.5097475 130.122942,37.7431927 C137.017719,31.9532916 139.395228,23.6886746 135.828964,19.2295168 C132.2627,14.7937054 123.941418,15.8676387 117.284392,21.6575399 C110.627367,27.4240947 108.012107,35.7120581 111.578371,40.1478694"/>
    </g>
    <path stroke="#000" stroke-width="2.847" d="M245.115101,143.909925 C249.629831,149.17274 258.896909,148.341769 266.263047,142.063323 C273.629185,135.784877 276.005359,126.413372 271.728246,121.150557 C267.451134,115.887742 257.946439,116.69563 250.817918,122.974076 C243.45178,129.275605 240.837989,138.64711 245.115101,143.909925 Z M263.350265,156.726281 C266.916528,161.185439 275.23781,160.088159 281.894836,154.321604 C288.789613,148.531703 291.167122,140.267086 287.600858,135.807928 C284.034594,131.372117 275.713312,132.44605 269.056287,138.235951 C262.399261,144.002506 259.784001,152.290469 263.350265,156.726281 Z"/>
    <path fill="#FFD72E" fill-rule="nonzero" d="M230.95723,122.120724 C256.968117,136.870592 272.337128,163.245155 276.295812,172.668024 C279.555906,171.034411 280.720225,168.524803 283.747454,167.151621 C273.501447,144.991306 254.406615,123.825363 236.476102,114.378819 C234.846056,117.148858 233.006432,119.492738 230.95723,122.120724"/>
    <path stroke="#000" stroke-width="2.847" d="M230.95723,122.120724 C256.968117,136.870592 272.337128,163.245155 276.295812,172.668024 C279.555906,171.034411 280.720225,168.524803 283.747454,167.151621 C273.501447,144.991306 254.406615,123.825363 236.476102,114.378819 C234.846056,117.148858 233.006432,119.492738 230.95723,122.120724 Z"/>
    <path fill="#000" fill-rule="nonzero" d="M254.74276,134.563039 C265.203818,144.655539 275.664875,158.686 278.993393,169.462338 C278.517891,170.099014 280.657653,168.990726 279.706647,169.438757 C283.74842,170.947916 284.461674,171.938301 288.741197,175.640457 C290.880959,177.574067 292.782969,179.106806 293.971726,182.573155 C294.68498,185.025538 294.68498,187.525083 294.68498,190.024627 C295.160482,198.30142 292.782969,206.083021 289.2167,208.205275 C284.461674,211.129271 284.223922,204.927571 281.608658,200.588739 C276.61588,191.981818 262.588553,186.275311 258.546781,179.342612 C257.595776,177.550486 255.693766,168.896403 255.693766,168.896403 C255.693766,168.896403 243.330698,177.385422 235.960407,178.257904 C228.423691,179.130387 224.595895,173.376719 210.521017,173.706847 C205.599565,178.045679 200.678113,179.719902 196.541241,181.488447 C192.237942,183.351315 189.979305,175.852682 184.083072,172.032624 C186.317935,170.287659 202.508798,173.376719 202.984301,163.284219 C200.559238,165.312151 165.158068,177.621228 156.36127,166.06673 C146.898768,153.686911 159.475812,139.821514 161.330272,140.8119 C163.160957,141.802285 163.755336,156.705229 173.170287,159.46416 C182.561464,162.223091 200.131285,160.548868 200.131285,160.548868 C200.131285,160.548868 199.536907,160.195159 199.08518,159.84145 C198.752328,161.044061 175.761777,159.204774 175.761777,159.204774 C175.761777,159.204774 172.647234,153.144558 174.834546,149.654628 C175.738001,148.546339 175.833102,148.546339 175.833102,148.546339 L178.115514,143.877379 C178.115514,143.877379 179.470697,142.014511 181.420258,142.816252 C183.369818,143.617992 187.554241,143.476509 187.554241,143.476509 C187.554241,143.476509 206.50302,128.149114 212.779655,130.7194 C213.350258,125.720311 221.505128,113.411234 233.511569,119.188483 C234.248598,118.740452 233.535344,119.660095 234.105947,119.919482 C235.722656,119.966643 245.470459,125.67315 254.74276,134.563039"/>
    <path fill="#E7423F" fill-rule="nonzero" d="M156.501941,155.07346 C156.289244,156.09054 156.194712,157.083405 156.171079,158.027836 C156.171079,160.982213 157.092764,163.767075 158.959766,166.309776 C165.57699,175.342419 192.471275,167.326857 201.262729,164.081886 C193.180264,166.648803 177.937017,165.849669 172.028782,164.396697 C165.151597,162.871076 160.992199,152.894002 160.165046,147.396925 L160.165046,147.372709 C158.817969,149.067843 157.187296,151.780057 156.501941,155.07346"/>
    <g fill="#FFD72E" fill-rule="nonzero" transform="translate(183.666 133.075)">
      <path d="M49.0741633,6.14314407 C48.6165067,5.72587391 44.5891286,2.94407282 42.7813851,3.12952623 C42.2321971,2.59634768 39.7379687,1.08953876 41.0880556,0.486815191 C41.7974234,0.16227173 43.1475103,1.11022302e-13 43.4221043,1.11022302e-13 C43.7195811,1.11022302e-13 46.7172318,0.509996866 47.3579511,0.533178542 C50.2640705,0.950448705 55.984778,5.30860374 54.8406365,12.9817384 C54.6118082,14.5349107 50.2640705,7.23268283 49.0741633,6.14314407"/>
      <polygon points="3.299 14.797 5.076 14.297 6.599 15.058 6.576 15.819 5.814 17.319 4.545 18.557 2.515 19.796 1.246 19.796 .508 19.296 0 18.275 .761 17.036 3.299 14.797"/>
      <circle cx="46.191" cy="7.699" r="4.399"/>
    </g>
  </g>
</svg>
