<svg xmlns="http://www.w3.org/2000/svg" xmlns:xlink="http://www.w3.org/1999/xlink" width="406.402" height="492.691" viewBox="-176.306 -213.897 406.402 492.691"><path fill="#FFF" d="M26.772-212.377h201.816V84.271c0 106.586-90.297 193-201.68 193-111.406 0-201.695-86.416-201.695-193v-296.648H26.772z"/><path fill="#16A74E" d="M-174.787 84.271c0 106.586 90.289 193 201.695 193 74.484 0 139.5-38.643 174.453-96.104L-174.787-210.11V84.271z"/><path fill="#E8423F" d="M-51.091-27.659c-1.176-.457-6.078-1.512-7.328.625-7.047 12.047 4.504 38.688 15.352 44.016 5.84 2.84 5.914.832 5.898.184-.153-7.536-21.664-30.45-13.922-44.825"/><path fill="none" stroke="#010202" stroke-width="3.048" d="M-51.091-27.659c-1.176-.457-6.078-1.512-7.328.625-7.047 12.047 4.504 38.688 15.352 44.016 5.84 2.84 5.914.832 5.898.184-.153-7.536-21.664-30.45-13.922-44.825z"/><path fill="#FFD730" d="M48.393 130.498c-19.262-3.75-49.18 5.719-49.18 5.719s-17.672 7.656-21.402 17.102c-3.758 9.492.379 13.328.379 13.328s9.008 15.297 3.031 21.898c-11.074 2.758-29.336-.141-33.879-6.391-4.707-6.438 3.031-10.688 3.168-15.281.293-9.75-7.426-13.984-10.387-12.719-1.863.805 3.922 4.625.914 8.969-3.512 5.031-8.633-2.891-13.41-5.328-4.773-2.453-9.391 1.148-9.391 1.148s4.809 1.508 5.887 2.508c1.074 1.016 1.234 5.734-1.152 7-3.605 1.953-12.832-2.344-18.629 6.109 4.879-1.523 6.848-.094 7.277.25 3.449 2.609-2.133 8.078 6.418 12.641-6.137.148-8.168.297-9.57.703 6.488.789 4.531 7.844 9.035 9.688 4.488 1.875 7.992 1.391 8.758 2.102 34.711 30.57 91.754 8.031 95.578 3.867.941-.969-6.098-8.797-7.402-11.508-.758-1.521 2.68-21.508 7.289-23.211 6.473-6.695 30.934-11.641 30.934-11.641s-2.657-19.985-4.266-26.953"/><path fill="#FFD730" d="M48.393 130.498c-19.262-3.75-49.18 5.719-49.18 5.719s-17.672 7.656-21.402 17.102c-3.758 9.492.379 13.328.379 13.328s9.008 15.297 3.031 21.898c-11.074 2.758-29.336-.141-33.879-6.391-4.707-6.438 3.031-10.688 3.168-15.281.293-9.75-7.426-13.984-10.387-12.719-1.863.805 3.922 4.625.914 8.969-3.512 5.031-8.633-2.891-13.41-5.328-4.773-2.453-9.391 1.148-9.391 1.148s4.809 1.508 5.887 2.508c1.074 1.016 1.234 5.734-1.152 7-3.605 1.953-12.832-2.344-18.629 6.109 4.879-1.523 6.848-.094 7.277.25 3.449 2.609-2.133 8.078 6.418 12.641-6.137.148-8.168.297-9.57.703 6.488.789 4.531 7.844 9.035 9.688 4.488 1.875 7.992 1.391 8.758 2.102 34.711 30.57 91.754 8.031 95.578 3.867.941-.969-6.098-8.797-7.402-11.508-.758-1.521 2.68-21.508 7.289-23.211 6.473-6.695 30.934-11.641 30.934-11.641s-2.657-19.985-4.266-26.953"/><path fill="none" stroke="#010202" stroke-width="3.048" stroke-miterlimit="17" d="M48.393 130.498c-19.262-3.75-49.18 5.719-49.18 5.719s-17.672 7.656-21.402 17.102c-3.758 9.492.379 13.328.379 13.328s9.008 15.297 3.031 21.898c-11.074 2.758-29.336-.141-33.879-6.391-4.707-6.438 3.031-10.688 3.168-15.281.293-9.75-7.426-13.984-10.387-12.719-1.863.805 3.922 4.625.914 8.969-3.512 5.031-8.633-2.891-13.41-5.328-4.773-2.453-9.391 1.148-9.391 1.148s4.809 1.508 5.887 2.508c1.074 1.016 1.234 5.734-1.152 7-3.605 1.953-12.832-2.344-18.629 6.109 4.879-1.523 6.848-.094 7.277.25 3.449 2.609-2.133 8.078 6.418 12.641-6.137.148-8.168.297-9.57.703 6.488.789 4.531 7.844 9.035 9.688 4.488 1.875 7.992 1.391 8.758 2.102 34.711 30.57 91.754 8.031 95.578 3.867.941-.969-6.098-8.797-7.402-11.508-.758-1.521 2.68-21.508 7.289-23.211 6.473-6.695 30.934-11.641 30.934-11.641s-2.657-19.985-4.266-26.953z"/><path fill="none" stroke="#010202" stroke-width="3.048" d="M-65.205 163.544s-5.336 14.516 1.242 23.844c6.574 9.328 13.344 8.297 18.879 25.781m-34.23-43.593s-.754 3.117 4.781 6.148c-2.039 2.656-2.445 19.234 1.441 24.25"/><path fill="#FFD730" d="M-3.13 64.974c0-.07 0-.164-.008-.313 0 .016-.008.047-.008.063.008.086.016.18.016.25m0 0c.023.18.023.18 0 0m147.297 78.149c-11.477-16.906-35.547-29.938-48-34.422-15.055-11.407-18.165-11.438-22.696-14.657 2.188-14.781-10.164-32.703-10.164-32.703s-5.781-6.578-18.508-6.641c3.344 2.625 16.891 13.422 13.367 16.031-15.383-26.828-37.68-17.906-37.68-17.906s9.168 1.719 11.652 7.172c2.52 5.469 11.895 26.344 22.059 36.031 3.242 3.109 9.852 8.047 18.313 11.047 20.781 7.359 50.555 25.578 56.82 33.719 3.273 4.234 5.375 10.078 5.273 12.188-.109 2.094-2.297 4.031-5.391 3.625-3.906-.5-50.492-30.594-50.492-30.594s-10.047-7.266-30.438-12.281C34.932 95.654-4.189 77.154-12.466 70.357c-.059.078-.121.156-.168.219 4.367-5.25 7.68-10.922 10.039-15.938-.656 5.344-.594 8.844-.543 10.016.086-1.906 20.344-22.438 16.504-31.855 14.664-5.801 12.801-7.457 12.121-13.082-.516.199-1.625.129-2.992 0 .973.066 1.973.082 2.992 0-.02-7.505-18.426-11.438-17.914-12.438.504-.984 5.961 1.438 7.113.391.414-.426-23.09-28.313-28.426-27.559-2.063.656-3.152 2.543-5.457 1.246-2.316-1.297-7.805-6.816-9.934-7.168.137.785-2.488 2.816-2.488 2.816s-3.137 1.082-5.672 2.887c-2.543 1.816-2.367 7.969.145 10.488.137.129-2.129 6.625-2.129 6.625s3.93-5.297 4.641-5.297c.688 0 7.961 4.594 8.254 8.891.547 7.766-12.809 19.605-13.305 19.688-2.75.422-7.988-9.457-9.293-10.129-.504-.25-2.563-2.184-5.281 7.785-.199.766.574 2.453 1.922 4.637v-.016s-10.914-7.59-21.793-8.527c1.832.113 3.496.41 4.75.801-3.781-7.922-11.352-38.344-7.711-54.594 24.594-9.309 22.039-13.199 21.777-17.871 3.672-4.59-2.023-10.109-2.023-10.109l-2.188 6.184s-2.484 1.672-5.559-.512c-3.07-2.168-1.086-10.434-2.391-15.105-1.313-4.641-6.586-9.434-6.586-9.434s1.207 3.707 1.434 4.809c.199 1.113-.496 3.266-4.832 3.031-4.328-.23-4.168-4.773-6.57-6.934-2.43-2.184-7.309-3.395-7.309-3.395s3.27 7.113 2.496 8.172c-2.211.23-5 6.598-6.777 7.148-1.762.523-6.953-7.605-11.031-2.148 5.039-.578 5.504 2.172 5.598 3.117.313 3.479-8.16 16.801-1.504 20.77-6.406 14.816.168 23.672.168 23.672s-4.941 24.641-5.52 53.422a7.463 7.463 0 0 1 1.785 1.875c-15.359-13.297-24.84-54.145-24-59.184.438-2.609 1.047-3.594 1.047-3.594s1.961.281 3.984-.266c2.047-.543 2.664-1.063 2.664-1.063s5.816-.527 7.352-1.016c1.52-.488 7.098-11.113 4.16-18.234-.816 1.754-1.902 5.836-4.273 6.426-2.375.609-2.102-1.609-5.84-3.145 1.16-11.109-9.656-23.039-9.656-23.039s3.633 7.422 1.227 8.758c-2.395 1.344-6.512 2.594-6.512 2.594l-1.25 12.855c.191-2.672.395-6.656.395-11.902-1.465-3.344-4.602-9.008-8.73-13.703 1.922 3.063 4.219 8.438-.664 15.422.176.473.52 1.504 3.402 7.785-3.273-5.754-15.105-13.145-15.105-13.145s2.977 11.313-2.953 17.785c4.203 1.855 1.234 39.063 11.785 40.965 2.68 5.563 5.656 72.262 19.641 89.98 1.758.117 15.598-.078 15.598-.078l-2.652.656s17.973 20 24.566 25c9.07 6.938 47.887 13.266 74.434 15.938 26.551 2.688 39.68 12.359 40.543 11.031.496-1.063-6.137-8.734-4.816-9.109 2.809-.781 14.922 38.438 25.828 47.625 10.922 9.234 37.281 12.906 38.906 21.625 1.313 6.828-2.766 25.078-13.516 23.672-1.602-.234-6.313-17.266-9.016-18.531-2.719-1.25-9.93-2.75-16.328.813 1.078.328 7.641 1.859 10.203 2.461 2.219 2.281-1.609 6.836-2.938 7.328-3.031 1.063-5.43.344-7.805.836-6.461 1.391-10.414 10.281-10.414 10.281s11.75.359 12.25 6.688c6.328-3.547 8.328-6.328 12.734-3.656-14.289 3.25-15.422 6.734-17.836 16.805 5.383-2.891 8.586-5.219 10.18-4.164 1.563 1.078 3.469 2.344 5.906 1.406a19.06 19.06 0 0 0 1.586-.688c-1.195.789-2.164 1.531-2.406 2.031-.789 1.688-1.18 9.82-.164 10.844.477-1.047 1.625-5.078 4.313-5.156 2.672-.125 12.047 1.969 13.359 0 1.297-1.984-.969.156 1.875-3.148 2.844-3.242 15.422-8.18 18.281-10.211 3.328-6.719 30.328-32.313 29.125-50.531-17.125-3.203-16.5-6.953-18.508-9.922-11.773-2.719-30.039-33.5-33.203-38.25 4.609 4.844 46.656 31.805 57.25 34.906 12.851 3.749 26.359-9.743 16.281-24.594M17.803 19.251c-2.711-.164-5.504-.125-7.301.906 2.118-1.199 4.622-1.159 7.301-.906m-53.812 67.09"/><path fill="none" stroke="#010202" stroke-width="3.048" d="M-102.212-28.249c6.41-.984 12.824-9.707 19.855-20.738 7.035-11.047 14.77-13.543 16.891-13.281m-37.184 9.898s13.695-14.504 23.313-17.336c-3.664-9.898.512-9.266.512-9.266m-42.153 26.145s-8.633 8.906-9.074 19.145M46.237 210.451c8.484.922 23.391 10.953 21.109 4M45.799-24.315c-.797 2.441-.734 2.754 3.398 6.984C41.69-2.737 47.081 7.951 47.081 7.951"/><path fill="#E8423F" d="M9.182 139.63s15.305 7.703 20.848 7.492c-.992-2.742-3.969-8.727-3.969-8.727s-5.887-3.366-16.879 1.235"/><path fill="none" stroke="#010202" stroke-width="3.048" d="M9.182 139.63s15.305 7.703 20.848 7.492c-.992-2.742-3.969-8.727-3.969-8.727s-5.887-3.366-16.879 1.235z"/><path fill="#FFD730" d="M150.065-18.729c-2.188-1.184-24.445-4.906-35.516-3.168-11.078 1.719-13.063 12.766-13.797 17.832-.688 5.031.813 12.855-15.047 9.98C78.963 4.701 70.393-3.69 70.456-8.018c.094-5.984 7.438-8.41 7.641-13.082.063-1.406.141-13.031-8.82-13.031-.766 2.473 3.297 9.047-2.18 9.641-5.266.563-9.672-7.016-14.219-9.871-3.453-2.199-8.078-.656-8.078-.656l6.031 3.816s-.141 5.129-2.375 6.313c-4.266 2.246-12.984-5.098-20.953 3.641 5.168-.656 6.664.781 8.086 1.109 1.539 3.816-1.914 10.641 4.133 13.281-1.25-.16-9.805-.754-9.645-.457 5.121 1.723 4.285 6.281 4.285 6.281s1.969 6.246 11.227 7.457c14.57 19.887 53.773 35.355 79.43 33.996-.344-20.375 6.289-26.094 18.406-28.141.968-4.617 6.429-30.043 6.64-31.008M-52.244-160.698c-.254.984-3.145 10.613 2.551 20.262.105-.27-.055-1.805-.055-1.805s3.57-2.523 4.984-5.352c.672-1.32 5.488-3.195 8.184-6.5 2.762-4.094.559-12.848-4.816-17.598.313 4.168 1.367 6.664.656 7.406-2.871 3.115-11.246 2.611-11.504 3.587"/><path fill="none" stroke="#010202" stroke-width="3.048" d="M-52.244-160.698c-.254.984-3.145 10.613 2.551 20.262.105-.27-.055-1.805-.055-1.805s3.57-2.523 4.984-5.352c.672-1.32 5.488-3.195 8.184-6.5 2.762-4.094.559-12.848-4.816-17.598.313 4.168 1.367 6.664.656 7.406-2.871 3.115-11.246 2.611-11.504 3.587z"/><path fill="#E8423F" d="M67.854-186.377c-1.266-.168-6.398-.008-7.102 2.605-4.063 14.762 13.953 40.258 26.031 43.082 6.516 1.504 6.086-.688 5.922-1.344-1.999-8.05-28.968-26.906-24.851-44.343"/><path fill="none" stroke="#010202" stroke-width="3.048" d="M150.065-18.729c-2.188-1.184-24.445-4.906-35.516-3.168-11.078 1.719-13.063 12.766-13.797 17.832-.688 5.031.813 12.855-15.047 9.98C78.963 4.701 70.393-3.69 70.456-8.018c.094-5.984 7.438-8.41 7.641-13.082.063-1.406.141-13.031-8.82-13.031-.766 2.473 3.297 9.047-2.18 9.641-5.266.563-9.672-7.016-14.219-9.871-3.453-2.199-8.078-.656-8.078-.656l6.031 3.816s-.141 5.129-2.375 6.313c-4.266 2.246-12.984-5.098-20.953 3.641 5.168-.656 6.664.781 8.086 1.109 1.539 3.816-1.914 10.641 4.133 13.281-1.25-.16-9.805-.754-9.645-.457 5.121 1.723 4.285 6.281 4.285 6.281s1.969 6.246 11.227 7.457c14.57 19.887 53.773 35.355 79.43 33.996-.344-20.375 6.289-26.094 18.406-28.141.968-4.617 6.429-30.043 6.64-31.008zM67.854-186.377c-1.266-.168-6.398-.008-7.102 2.605-4.063 14.762 13.953 40.258 26.031 43.082 6.516 1.504 6.086-.688 5.922-1.344-1.999-8.05-28.968-26.906-24.851-44.343z"/><defs><path id="a" d="M-176.306-213.897h406.402v492.691h-406.402z"/></defs><clipPath id="b"><use xlink:href="#a" overflow="visible"/></clipPath><path clip-path="url(#b)" fill="#FFD730" d="M223.346-2.713c-.859-8.266-9.609-29.953-30.938-62.457-15.063-22.93-16.313-34.688-13.516-44.77 13.844-2.008 32.079-20.695 31.579-32.008-.517-11.336-7.392-17.094-7.392-17.094s-3.906 24.449-8.969 23.055c1.734-2.504 7.016-10.344 7.094-21.398.094-11.043-15.609-20.832-17.797-20.977 1.453 2.008 7.555 8.367 6 13.277-1.578 4.898-5.688 10.523-11.281 17.883-5.672 7.422-13.016 19.664-13.891 31.375-.891 11.602 5.516 25.473 8.406 33.848 3.094 8.879 24.094 42.77 24.094 42.77S221.82-1.459 213.329 5.51c-2.578 2.129-13.508 1.488-19.625-7-5.734-7.938-4.969-7.609-9.883-14.953-6.969-10.438-11.328-9.672-11.609-10.934-22.461-37.625-53.82-58.543-58.445-61.281 0 0 7.25-7.063 9.461-14.895-.148 2.742-.703 9.734-.703 9.734s20.211-22.633 17.883-34.43c26.133-2.344 16.508-14.816 14.313-16.059.148-1.488-14.938-7.91-14.938-9.32 0 0 .344-.207.844-.414 4.953 1.48 6.156 1.191 6.078.414-.063-.766-20.594-23.91-29.141-25.559-2.859 1.992-3.344.848-5.188 1.199-2.836.449-9.836-8.734-13.359-8.941-.359 1.406-3.625 3.086-3.625 3.086s-7.078 2.129-8.484 4.734c-1.422 2.602 1.203 8.77 1.203 8.77l-1.148 5.84s3.773-4.648 3.969-5.008c1.906 2.832 8 2.527 9.477 10.656 1.484 8.121-4.734 10.801-7.133 15.68-2.422 4.855-4.898 3.105-6.945 2.758-3.039-.535-10.133-7.637-10.398-7.637-3.195 0-4.898 8.336-4.836 9.465.922-.344 1.328 3.031 2.25 3.484.406.195 1 .563 1.656 1-11.016-7.336-29.125-5.504-29-4.965.141.52 4.961 2.461 4.672 3.688-.203.871-8.594-1.258-19.863 2.703.129-.047.242-.098.363-.145 0 0-20.008-20.703-14.664-35.457 6.75-1.527 12.094-.926 16.094-2.48 6.664-2.582 9.805-10.367 9.703-14.031-6.508 7.059-8.469 5.25-9.551 4.777-4.016-1.816.387-12.168 0-15.887-.367-3.715-5.254-8.105-5.254-8.105s1.512 5.504-6.512 8.105c-3.785 1.215-6.906-4.336-9.547-6.672-2.664-2.313-7.664-2.699-7.664-2.699s4.008 6.043 2.875 7.633c-2.617.059-4.992 4.289-8.457 5.074-3.465.789-6.824-6.992-12.73-1.906 4.418-.422 4.801.848 5.25 1.586 2.063 3.352-1.121 4.367-2.504 17.488-.625 5.719-.105 11.773.504 16.734 1.367 11.273 9.801 24.074 14.582 50.105.02.016.066.039.121.055-17.727-7.25-37.512-12.25-47.785-22.496-10.68-10.656-9.246-27.16-7.863-29.648 0-.871-7.16-11.672-20.742-13.336 7.152 5.809 6.238 3.984.984 12.336 3.504 3.887 5.391 7.73 6.406 10.488-1-2.078-2.832-4.992-6.273-8.992-3.637-1.129-9.52-1.344-17.102.648 10.102 1.727 8.152 13.273 8.152 13.273s2.598 1.742 7.75 4.398c-5.641-2.406-22.766 1.176-22.766 1.176s13.848 1.184 12.598 9.777c6.984 4.605 15.113 13.945 18.754 15.918 1.391.832.742 1.52 7.742 3C-31.373-81.42 9.108-56.85 13.604-55.147c5.121-1.109 14.121-.734 14.121-.734s-3.762.488-7.625.918c6.738 8.785 30.434 10.41 61.074 14.035 41.109 4.836 57.344 27.766 59.719 28.141.734-1.984-1.375-3.125-1.641-10.344 6.875 11.328-1.234 44.969 11.016 57.563 11.75 12.082 28.359 22.543 32.578 28.262 1.328 1.773 3.016 5.492 2.125 15.82-.375 4.75-3.875 7.359-7.297 13.438-2.203 1.094-5.047 1.344-8.688.031-21.063-7.563-27.359 3.484-27.359 3.484s12.766-1.375 12.375 6.094c1.078-.195 2.328-.289 3.625-.328-3 1.07-5.922 3.547-7.75 8.695 5.5-3.133 10.484 3.227 12.891 6.422 2.391 3.211 5.156.461 5.156.461s6.563-7.625 12.031-7.719c-.594.344-16.594 4.328-12.453 21.852 2.125-11.07 14.844-2.578 18.047-6.867.188-.789-.078-3.172 1.734-5.563 1.75-2.391 12-6 12-6s10.172-16.531 10.734-26.148c.164-2.641 2.547-15.789 2.766-38.945-17.438-1.516-18.313-13.102-19.93-25.711-1.117-8.672-3.922-14.902-5.594-17.965 3.297 5.109 12.836 17.391 27.07 14.109 9.752-2.29 9.884-12.337 9.017-20.567M77.096-132.506c-.258-.25-.57-.48-.852-.711.298.246.594.48.852.711m-1.226-.993c-.281-.191-.563-.398-.852-.602.289.212.57.411.852.602"/><defs><path id="c" d="M-176.306-213.897h406.402v492.691h-406.402z"/></defs><clipPath id="d"><use xlink:href="#c" overflow="visible"/></clipPath><path clip-path="url(#d)" fill="none" stroke="#010202" stroke-width="3.048" stroke-miterlimit="16" d="M113.752-88.651c4.625 2.738 35.984 23.656 58.445 61.281.273 1.262 4.641.504 11.602 10.934 4.922 7.344 4.164 7.016 9.891 14.953 6.109 8.488 17.046 9.129 19.625 7 8.484-6.969-16.592-44.719-16.592-44.719s-20.984-33.891-24.086-42.77c-2.883-8.383-9.289-22.246-8.406-33.848.867-11.711 8.211-23.953 13.883-31.375 5.594-7.359 9.711-12.984 11.281-17.879 1.563-4.914-4.539-11.273-6-13.281 2.188.145 17.891 9.934 17.805 20.977-.086 11.055-5.359 18.887-7.102 21.398 5.07 1.395 8.969-23.055 8.969-23.055s6.875 5.758 7.391 17.094c.508 11.313-17.734 30-31.57 32.012-2.805 10.078-1.539 21.836 13.508 44.766 21.33 32.504 30.08 54.184 30.938 62.457.875 8.23.75 18.277-9.031 20.543-17.859 4.129-28.344-16.281-28.344-16.281s5.25 7.516 6.875 20.145c1.625 12.609 2.5 24.203 19.938 25.703-.22 23.172-2.608 36.313-2.767 38.953-.563 9.609-10.742 26.141-10.742 26.141s-10.242 3.609-12 6c-1.82 2.391-1.539 4.789-1.734 5.563-3.195 4.297-15.922-4.188-18.055 6.875-4.141-17.531 11.859-21.516 12.461-21.859-5.477.094-12.031 7.719-12.031 7.719s-2.773 2.766-5.164-.453c-2.406-3.188-7.391-9.547-12.883-6.422 5-14.219 18.492-8.125 18.492-8.125s-9.117-1.188-14.367-.234c.398-7.469-12.375-6.094-12.375-6.094s6.297-11.047 27.359-3.492c3.641 1.313 6.492 1.063 8.695-.031 3.422-6.086 6.914-8.695 7.289-13.445.891-10.328-.805-14.047-2.125-15.813-4.219-5.719-20.836-16.188-32.578-28.262-12.242-12.594-4.148-46.234-11.016-57.563.266 7.219 2.375 8.359 1.641 10.344-2.375-.375-18.609-23.297-59.727-28.145-30.634-3.621-54.333-5.246-61.067-14.031 3.863-.441 7.625-.918 7.625-.918s-9-.379-14.121.734c-4.496-1.703-44.977-26.273-70.328-56.809-7-1.48-6.352-2.168-7.742-3-3.641-1.977-11.77-11.313-18.754-15.918 1.25-8.586-12.598-9.777-12.598-9.777s18.734-3.926 23.477-.824c-5.613-2.848-8.461-4.758-8.461-4.758s1.949-11.547-8.152-13.273c7.574-1.992 13.465-1.777 17.102-.648 8.258 9.586 7.387 13.063 7.387 13.063s-.891-7.199-7.512-14.551c5.254-8.352 6.168-6.527-.984-12.336 13.582 1.664 20.742 12.465 20.742 13.336-1.383 2.496-2.816 18.992 7.863 29.648 14.602 14.559 48.457 18.488 68.191 33.496 13.145 10.008 11.238 25.793-1.965 27.094 5.574 5.188 29.203 4.043 29.203 4.043s-4.508 4.23-6 5.621c2.016 1.492 28 4.984 44.242-13.828-2.258 5.109-3.633 7.719-3.633 7.719s6.616.998 28.092-21.795z"/><path fill="none" stroke="#010202" stroke-width="3.048" stroke-miterlimit="9" d="M21.87-70.42c5.574 5.188 29.211 4.043 29.211 4.043l-6 5.621c2.016 1.488 27.984 4.984 44.234-13.828-2.266 5.109-3.641 7.719-3.641 7.719s6.609 1 28.094-21.793c0 0 7.25-7.063 9.461-14.895-.148 2.742-.703 9.734-.703 9.734s20.211-22.633 17.883-34.43c26.133-2.344 16.508-14.816 14.313-16.059-.688-.137-7.438 0-13.195-.27-5.789-.273-7.563 5.504-7.563 5.504s-3.984 9.453-12.688 20.84c-12.867 16.957-33.539-5.09-44.164-14.273-10.586-9.176-31.227-7.145-31.094-6.566.148.521 4.961 2.461 4.672 3.688-.281 1.229-16.922-3.563-34.941 11.391.816 0 9.242-.113 8.93 2.176-.129 1.105-11.664 2.48-15.539 15.801.832.262 10.379 5.223 14.707 8.504C36.971-87.506 35.081-71.721 21.87-70.42"/><path fill="none" stroke="#010202" stroke-width="3.048" d="M9.131-106.018c3.875-13.32 15.418-14.695 15.539-15.801.309-2.289-8.121-2.176-8.93-2.176 5.406-4.48 10.695-7.184 15.441-8.832 0 0-20.008-20.703-14.664-35.457 6.75-1.527 12.094-.926 16.094-2.48 6.664-2.582 9.813-10.367 9.703-14.031-6.5 7.059-8.469 5.25-9.551 4.777-4.016-1.816.379-12.168 0-15.887-.367-3.715-5.254-8.104-5.254-8.104s1.512 5.504-6.512 8.104c-3.785 1.215-6.906-4.336-9.547-6.672-2.664-2.313-7.664-2.699-7.664-2.699s4.008 6.043 2.875 7.633c-2.617.059-4.992 4.289-8.457 5.074-3.465.789-6.824-6.992-12.73-1.906 4.418-.422 4.801.848 5.25 1.586 2.063 3.352-1.121 4.367-2.504 17.488-.625 5.719-.105 11.773.504 16.734 1.367 11.273 9.801 24.074 14.582 50.105.587.345 5.825 2.544 5.825 2.544z"/><path fill="none" stroke="#010202" stroke-width="3.048" stroke-miterlimit="5" d="M154.721-144.299c-.016.281-7.445 0-13.203-.27-5.781-.273-7.563 5.504-7.563 5.504s-3.984 9.453-12.688 20.84c-12.875 16.957-33.547-5.09-44.156-14.273-1.148-1-2.875-2.176-3.75-2.602-.922-.453-1.328-3.828-2.25-3.484-.078-1.129 1.625-9.465 4.828-9.465.266 0 7.359 7.102 10.391 7.637 2.047.348 4.531 2.105 6.953-2.758 2.391-4.879 8.609-7.559 7.125-15.68-1.477-8.121-7.57-7.824-9.477-10.656-.195.359-3.969 5.008-3.969 5.008l1.148-5.84s-2.625-6.168-1.203-8.77c1.406-2.605 8.484-4.734 8.484-4.734s3.266-1.68 3.625-3.086c3.516.207 10.516 9.391 13.359 8.941 1.844-.352 2.328.793 5.188-1.199 8.547 1.648 29.078 24.801 29.141 25.559.078.785-1.125 1.066-6.078-.414-.5.199-.844.414-.844.414-.014 1.418 15.072 7.839 14.939 9.328z"/><path fill="#010202" d="M114.213-172.17c1.148.145 11.836 2.887 13.719 15.391-.422.688-13.719-2.063-13.719-6.023 0-4.466 4.586-5.431 0-9.368"/><path fill="#E8423F" d="M120.393-14.331c8.328-.047 18.344.344 20.813 4.41.047 1.688.625 5.484.906 8.164-4.11-.581-21.719-11.644-21.719-12.574"/><path fill="none" stroke="#010202" stroke-width="3.048" d="M-104.533 30.662s1.16-5.938 12.961-4.672c1.227-2.199-7.559-3.938-7.414-4.609.168-.688 12.688-5.934 21.262-3.984-1.809-1.375-3.102-1.949-5.559-2.168 4.328-1.781 10.582-1.406 13.895-.391-3.781-7.922-11.352-38.344-7.711-54.594 24.594-9.309 22.039-13.199 21.777-17.871 3.672-4.59-2.023-10.109-2.023-10.109l-2.188 6.184s-2.488 1.672-5.559-.512c-3.07-2.168-1.086-10.434-2.391-15.105-1.313-4.641-6.586-9.434-6.586-9.434s1.207 3.707 1.434 4.809c.199 1.113-.496 3.266-4.832 3.031-4.328-.23-4.168-4.773-6.57-6.934-2.43-2.184-7.309-3.395-7.309-3.395s3.27 7.113 2.492 8.172c-2.207.23-5 6.598-6.773 7.148-1.762.523-6.953-7.605-11.031-2.148 5.039-.578 5.504 2.172 5.598 3.117.313 3.479-8.16 16.801-1.504 20.77-6.406 14.816.168 23.672.168 23.672s-4.941 24.641-5.52 53.422c2.727 1.983 3.383 5.601 3.383 5.601zM18.42-196.209c.594 2.52-5.199 4.574-7.855 9.688-11.922 2.984-20.113 12.543-22.504 18.801m3.465 19.557c2.27-1.129 16.574-30.457 28.758-35.777 6.609-2.879 6.082.656 10.984-2.52m89.125 172.129c8.328-.047 18.344.344 20.813 4.41.047 1.688.625 5.484.906 8.164-4.11-.581-21.719-11.644-21.719-12.574z"/><path fill="none" stroke="#010202" stroke-width="3.048" stroke-miterlimit="17" d="M-39.283-3.002s3.926-5.297 4.641-5.297c.688 0 7.961 4.594 8.254 8.887.547 7.77-12.809 19.609-13.305 19.691-2.75.422-7.988-9.457-9.293-10.129-.504-.25-2.563-2.184-5.281 7.785-.816 3.031 13.855 20.906 19.625 25.953C-15.65 60.529.596 34.998 2.557 33.029c5.719-5.672 4.098-10.719 7.938-12.871 4.078-2.313 9.543-.031 14.973-.441C25.452 12.212 7.045 8.279 7.557 7.279c.504-.984 5.961 1.438 7.113.391.414-.426-23.09-28.313-28.426-27.559-2.063.656-3.152 2.543-5.457 1.246-2.32-1.297-7.809-6.816-9.934-7.168.137.785-2.488 2.816-2.488 2.816s-3.137 1.082-5.672 2.887c-2.547 1.816-2.367 7.969.145 10.488.133.121-2.121 6.618-2.121 6.618z"/><path fill="none" stroke="#010202" stroke-width="3.048" stroke-miterlimit="7" d="M-52.345 22.564c4.039 6.547 13.375 17.543 17.703 21.324C-15.65 60.529.596 35.005 2.557 33.037c5.719-5.672 4.098-10.719 7.938-12.871 4.078-2.313 13.102.281 14.973-.441.68 5.625 2.547 7.281-12.117 13.082 3.863 9.473-16.68 30.215-16.504 31.918.176 1.711-.426-2.242.551-10.078-5.527 11.625-15.91 26.836-33.418 31.703.457-.898 1.898-3.508 3.473-7.461-24 23.398-48.277 14.844-48.277 14.844s1.695-1.453 6.016-5.125c-15.953-.766-22.855-2.781-37.602-14.688 9.129-1.266 13.25-10.234 14.281-18.688 1.047-8.438-2.891-9.766-4.922-14.422-2.063-4.672-1.488-10.164-1.488-10.164s1.16-5.938 12.961-4.672c1.223-2.199-7.559-3.938-7.414-4.609.168-.688 12.688-5.934 21.262-3.984-1.809-1.375-4.031-2.422-6.496-2.621 12.814-5.274 31.881 7.804 31.881 7.804z"/><path fill="none" stroke="#010202" stroke-width="3.048" stroke-miterlimit="10" d="M-12.458 70.357c-5.504 6.5-13.504 13.188-23.543 15.984.453-.906 1.895-3.5 3.469-7.453-24 23.391-48.277 14.836-48.277 14.836s1.695-1.453 6.016-5.125c-15.953-.773-22.855-2.789-37.602-14.695 9.129-1.258 13.25-10.227 14.281-18.688 1.047-8.438-2.887-9.766-4.922-14.422-2.063-4.672-1.488-10.156-1.488-10.156s-.184-2.281-1.605-3.738c-15.359-13.293-24.84-54.141-24-59.184.438-2.605 1.047-3.59 1.047-3.59s1.961.281 3.984-.266c2.047-.543 2.664-1.063 2.664-1.063s5.816-.527 7.352-1.016c1.52-.488 7.098-11.113 4.16-18.234-.816 1.754-1.902 5.832-4.273 6.426-2.375.605-2.102-1.609-5.84-3.145 1.16-11.113-9.656-23.039-9.656-23.039s3.633 7.422 1.227 8.758c-2.395 1.344-6.512 2.594-6.512 2.594l-1.695 16.969s.813-5.457.813-16c-1.461-3.344-4.598-9.008-8.727-13.703 1.113 3.398 4.215 8.438-.664 15.422.184.488.559 1.625 4.016 9.129-1.902-5.855-15.719-14.488-15.719-14.488s2.977 11.313-2.953 17.781c4.199 1.859 1.234 39.066 11.785 40.969 2.68 5.563 5.656 72.262 19.641 89.98 1.758.117 15.598-.078 15.598-.078l-2.656.656s17.977 20 24.57 25c9.07 6.938 47.887 13.266 74.43 15.938 26.555 2.688 39.68 12.359 40.547 11.031.496-1.063-1.824-6.906-4.816-9.109 4.16.125 14.922 38.438 25.828 47.625 10.922 9.234 37.281 12.906 38.906 21.625 1.313 6.828-2.766 25.078-13.516 23.672-1.609-.234-6.313-17.266-9.016-18.531-2.719-1.25-9.938-2.75-16.328.813 1.078.328 7.641 1.859 10.203 2.461 2.219 2.273-1.609 6.836-2.938 7.328-3.031 1.063-5.43.344-7.805.836-6.461 1.391-10.414 10.281-10.414 10.281s11.75.359 12.25 6.688c6.328-3.547 8.328-6.328 12.734-3.656-14.297 3.25-15.422 6.734-17.836 16.797 5.375-2.883 8.586-5.211 10.18-4.156 1.563 1.078 3.469 2.344 5.906 1.406 2.422-.898 8.273-4.508 8.273-4.508s-8.289 4.195-9.094 5.852c-.789 1.688-1.18 9.82-.164 10.845.477-1.048 1.625-5.079 4.313-5.157 2.672-.133 12.047 1.969 13.359 0 1.297-1.984-.969.156 1.875-3.148 2.844-3.242 15.422-8.18 18.281-10.211 3.328-6.719 30.328-32.313 29.125-50.531-17.125-3.203-16.5-6.953-18.516-9.922-12.453-2.891-32-36.563-33.633-38.859 0 2.188 46.492 32.203 57.688 35.516 12.852 3.766 26.375-9.734 16.289-24.578-11.469-16.906-35.539-29.938-48-34.422-15.048-11.41-18.165-11.441-22.688-14.66 2.188-14.781-10.164-32.703-10.164-32.703s-5.781-6.578-18.508-6.641c3.344 2.625 16.891 13.422 13.359 16.031-15.359-26.827-37.656-17.905-37.656-17.905s9.168 1.719 11.652 7.172c2.52 5.469 11.895 26.344 22.059 36.031 3.242 3.109 9.852 8.047 18.313 11.047 20.781 7.359 50.555 25.578 56.82 33.719 3.273 4.234 5.375 10.078 5.273 12.188-.109 2.094-2.297 4.031-5.391 3.625-3.906-.5-50.492-30.594-50.492-30.594s-10.047-7.266-30.438-12.281C34.932 95.662-4.177 77.154-12.458 70.357z"/><path fill="#010202" d="M-14.771-11.155C-3.38-8.17-1.314 3.662-1.162 5.005c-1.211.344-12.145-1.969-13.32-6.199-1.082-3.914 5.719-6.863-.289-9.961"/><path fill="none" stroke="#010202" stroke-width="3.048" d="M62.127-25.659s-6.75 12-4.867 19.281C59.885 3.916 72.721 11.951 72.034 26.06"/><path fill="#FFD730" d="M158.331 88.927s-.328-2.852.703-4.234c1-1.375 1.469-5.18 1.344-6.359-.117-1.164.555-1.477-5.906-2.625 5.609-2.164 14.938 1.414 16.828 2.891 1.859 1.422 2.953 10.648 5.5 12.18-1.156 2.188-5.781 1.508-5.781 1.508l-12.688-3.361z"/><defs><path id="e" d="M-176.306-213.897h406.402v492.691h-406.402z"/></defs><clipPath id="f"><use xlink:href="#e" overflow="visible"/></clipPath><path clip-path="url(#f)" fill="none" stroke="#010202" stroke-width="3.048" d="M158.331 88.927s-.328-2.852.703-4.234c1-1.375 1.469-5.18 1.344-6.359-.117-1.164.555-1.477-5.906-2.625 5.609-2.164 14.938 1.414 16.828 2.891 1.859 1.422 2.953 10.648 5.5 12.18-1.156 2.188-5.781 1.508-5.781 1.508l-12.688-3.361z"/><defs><path id="g" d="M-176.306-213.897h406.402v492.691h-406.402z"/></defs><clipPath id="h"><use xlink:href="#g" overflow="visible"/></clipPath><path clip-path="url(#h)" fill="none" stroke="#010202" stroke-width="3.048" stroke-miterlimit="7" d="M-174.548-209.881l375.925 390.55"/><defs><path id="i" d="M-176.306-213.897h406.402v492.691h-406.402z"/></defs><clipPath id="j"><use xlink:href="#i" overflow="visible"/></clipPath><path clip-path="url(#j)" fill="none" stroke="#010202" stroke-width="3.048" d="M26.772-212.377h201.816V84.271c0 106.586-90.297 193-201.68 193-111.406 0-201.695-86.416-201.695-193v-296.648H26.772z"/></svg>