<svg xmlns="http://www.w3.org/2000/svg" width="406.431" height="492.728" viewBox="-175.826 -214.526 406.431 492.728"><path fill="#16A74E" d="M27.249-213.002h201.832V83.662c0 106.594-90.313 193.016-201.688 193.016-111.398 0-201.695-86.422-201.695-193.016v-296.664H27.249z"/><path fill="#FFF" d="M-174.302 19.876v-232.878h403.383V19.876z"/><path fill="#010202" d="M-123.041-185.194v4.473l1.328.07c2.281.121 3.152.434 3.473.602.527.289 1.191.848 1.191 2.758v32.922c0 1.926-.719 2.52-1.27 2.809-.344.191-1.234.504-3.387.574l-1.336.051v4.5h41.891l3.297-18.23h-4.617l-.359.914c-1.883 4.902-4.145 8.223-6.633 9.855-2.543 1.648-5.762 2.496-9.559 2.496-2.715 0-3.602-.379-3.844-.527-.324-.203-.527-.852-.527-1.793v-32.146c0-3.152.688-3.801.824-3.895.32-.242 1.395-.785 4.762-.891l1.375-.039v-4.504l-26.609.001z"/><path fill="#FFD730" d="M-121.08-183.233v.656c1.777.133 3.039.398 3.793.824 1.48.773 2.223 2.285 2.223 4.473v32.918c0 2.207-.781 3.754-2.336 4.543-.781.434-2.039.648-3.68.754v.664h38.289c.16-.832 2.375-13.129 2.59-14.289h-.949c-2.023 5.098-4.449 8.633-7.242 10.449-2.863 1.855-6.43 2.805-10.629 2.805-2.41 0-4.012-.27-4.883-.82-.949-.602-1.457-1.77-1.457-3.465v-32.145c0-2.895.539-4.695 1.609-5.496.953-.703 2.738-1.105 5.336-1.23v-.641h-22.664z"/><path fill="#010202" d="M-77.814-185.194v4.488l1.344.055c2.383.105 3.305.418 3.648.602.512.27 1.199.832 1.199 2.77v32.941c0 1.938-.746 2.535-1.297 2.824-.344.176-1.289.496-3.52.535l-1.375.035v4.508h26.598v-4.543h-1.422c-2.313 0-3.488-.406-4.047-.758-.625-.371-.938-1.242-.938-2.602v-32.953c0-1.941.711-2.512 1.246-2.797.328-.168 1.281-.473 3.801-.57l1.359-.055v-4.48h-26.596z"/><path fill="#FFD730" d="M-75.853-183.233v.648c1.832.117 3.133.367 3.941.789 1.496.777 2.25 2.297 2.25 4.504v32.945c0 2.223-.801 3.77-2.371 4.574-.832.41-2.117.625-3.832.707v.656h22.664v-.641c-1.965-.051-3.469-.367-4.52-1.008-1.238-.746-1.855-2.191-1.855-4.289v-32.945c0-2.238.762-3.766 2.297-4.551.801-.398 2.145-.625 4.078-.75v-.641h-22.652v.002z"/><path fill="#010202" d="M-51.294-185.194v4.473l1.328.07c2.246.129 3.113.434 3.406.609.297.168 1.145.625 1.145 2.762v32.941c0 1.914-.703 2.504-1.23 2.801-.344.184-1.199.496-3.281.559l-1.359.051v4.504h23.215c6.031 0 10.953-1.258 14.641-3.754 3.855-2.594 5.832-6.063 5.832-10.305 0-4.527-2.063-8.102-6.113-10.625a19.855 19.855 0 0 0-3.469-1.645 17.265 17.265 0 0 0 3.688-2.289c2.391-1.914 3.59-4.535 3.59-7.793 0-5.246-2.855-8.918-8.504-10.871-2.801-.984-6.359-1.48-10.512-1.48h-22.375v-.008h-.002zm19.472 6.727c0-.887.16-1.367.344-1.504.078-.063.512-.375 2.063-.375 2.168 0 3.563.625 4.234 1.91.832 1.563 1.262 3.539 1.262 5.875 0 3.094-.574 5.215-1.734 6.297-.738.688-2.395 1.492-6.168 1.648l-.001-13.851zm.344 36.289l-.016-.031c-.082-.152-.297-.656-.328-1.93v-15.574c2.75.047 4.816.414 6.109 1.152 2.41 1.344 3.578 4.109 3.578 8.43 0 2.914-.543 5.152-1.656 6.656-1.031 1.367-2.953 2.074-5.688 2.074-1.569-.008-1.882-.586-1.999-.777"/><path fill="#FFD730" d="M-49.326-183.233v.656c1.75.133 2.984.398 3.734.824 1.441.773 2.145 2.285 2.145 4.473v32.941c0 2.199-.77 3.73-2.281 4.52-.766.426-2 .648-3.59.746v.672h21.246c5.641 0 10.184-1.152 13.543-3.418 3.328-2.238 4.953-5.086 4.953-8.672 0-3.848-1.688-6.789-5.168-8.953-1.801-1.109-3.953-1.91-6.391-2.383l-.457-.094v-1.555l.457-.094c2.297-.426 4.438-1.441 6.406-3.023 1.922-1.547 2.855-3.602 2.855-6.258 0-4.391-2.344-7.352-7.168-9.031-2.59-.898-5.934-1.359-9.871-1.359h-20.414l.001.008zm15.551 4.766c0-1.406.328-2.422 1.031-3 .656-.574 1.754-.848 3.328-.848 2.922 0 4.922 1 5.969 2.961 1 1.84 1.488 4.137 1.488 6.801 0 3.646-.785 6.254-2.344 7.734-1.578 1.488-4.504 2.211-8.922 2.211h-.551l.001-15.859zm0 34.367v-17.574l.527-.008c3.871-.098 6.641.359 8.488 1.41 3.047 1.695 4.594 5.102 4.594 10.141 0 3.344-.688 5.977-2.051 7.824-1.438 1.906-3.855 2.863-7.262 2.863-1.816 0-3.051-.59-3.703-1.75-.378-.648-.585-1.594-.593-2.906"/><path fill="#010202" d="M-6.064-185.194v4.473l1.328.07c2.297.129 3.184.441 3.504.617.547.289 1.234.848 1.234 2.754v32.941c0 1.871-.672 2.457-1.184 2.746-.348.207-1.266.543-3.516.613l-1.359.051v4.504h42.301l3.344-16.93h-4.492l-.359.816c-2.016 4.328-4.297 7.305-6.785 8.832-2.512 1.535-5.84 2.32-9.902 2.32-2.801 0-3.578-.426-3.77-.543-.438-.297-.512-1.242-.512-1.777v-15.016c2.688.16 4.594.758 5.625 1.848 1.297 1.344 2.168 3.832 2.594 7.367l.168 1.227h4.375v-25.707h-4.305l-.207 1.129c-.855 4.434-2 6.383-2.801 7.23-.922.961-2.816 1.496-5.457 1.609v-14.273c0-1.008.199-1.383.281-1.453.031 0 .574-.355 3.113-.355 5.094 0 8.605.715 10.406 2.113 1.77 1.395 3.074 4.145 3.855 8.152l.219 1.129h4.297v-16.488l-41.995.001z"/><path fill="#FFD730" d="M-4.095-183.233v.656c1.785.133 3.031.398 3.801.824 1.504.773 2.262 2.277 2.262 4.473v32.941c0 2.16-.734 3.648-2.184 4.457-.832.48-2.145.719-3.871.816v.672h38.723c.164-.809 2.344-11.824 2.578-12.992h-.875c-2.125 4.496-4.594 7.656-7.344 9.352-2.832 1.727-6.512 2.598-10.938 2.598-2.441 0-4.047-.285-4.887-.879-.906-.629-1.344-1.785-1.344-3.398v-17.039h.543c4.031 0 6.855.848 8.473 2.543 1.512 1.609 2.504 4.238 3.031 7.984h.719v-21.793h-.734c-.754 3.703-1.801 6.273-3.199 7.746-1.504 1.582-4.203 2.328-8.281 2.27h-.543v-16.289c0-1.469.344-2.461 1.047-3.008.688-.527 2.047-.766 4.297-.766 5.641 0 9.438.824 11.621 2.527 2.07 1.633 3.547 4.633 4.477 8.863h.703v-12.559l-38.075.001z"/><path fill="#010202" d="M39.409-185.194v4.434l1.281.109c2.852.242 3.539.688 3.641.785.289.215.961 1.078.961 4.008v30.098c0 2.918-.602 3.703-.797 3.854-.313.297-1.234.805-3.75.926l-1.344.066v4.488h25.594v-4.512l-1.359-.051c-2.656-.094-3.484-.695-3.719-.934-.25-.25-.805-1.129-.805-3.852v-9.156c3.523 4.719 13.82 18.492 13.82 18.492H89.26v-4.316l-1.328-.105c-.461-.039-.859-.105-1.133-.207-.078-.043-.273-.152-.57-.551-.016-.027-9.859-13.203-13.297-17.801 1.867-.602 3.719-1.418 5.422-2.664 3.219-2.418 4.859-5.738 4.859-9.875 0-5.645-3.063-9.582-9.102-11.727-2.945-1.008-6.82-1.504-11.469-1.504H39.409v-.005zm19.718 6.61c0-.395.07-.93.328-1.145.016-.016.492-.371 2.711-.371 2.813 0 4.617.984 5.656 3.105.617 1.32.945 3.215.945 5.633 0 3.703-.766 6.137-2.211 7.031-1.492.914-4.016 1.449-7.43 1.609l.001-15.862z"/><path fill="#FFD730" d="M41.377-183.233v.68c2.117.215 3.508.59 4.195 1.152 1.133.91 1.672 2.727 1.672 5.535v30.094c0 2.715-.453 4.449-1.406 5.328-.875.777-2.359 1.219-4.469 1.379v.664h21.672v-.656c-2.219-.152-3.734-.625-4.563-1.504-.891-.953-1.328-2.656-1.328-5.211v-32.813c0-1.203.359-2.105 1.078-2.672.672-.547 1.906-.809 3.922-.809 3.547 0 6.047 1.414 7.422 4.199.758 1.602 1.148 3.801 1.148 6.504 0 4.551-1.031 7.398-3.148 8.711-2.031 1.25-5.242 1.891-9.836 1.961h-.508l1 1.273s15.359 20.559 15.688 21.008h13.375v-.602c-.438-.055-.867-.113-1.211-.238-.523-.195-1.031-.625-1.461-1.242l-14.984-20.07.891-.168c2.328-.434 4.578-1.418 6.672-2.945 2.719-2.031 4.047-4.75 4.047-8.289 0-4.789-2.539-8.008-7.781-9.871-2.734-.918-6.359-1.398-10.813-1.398H41.377z"/><path fill="#010202" d="M86.784-185.194l-.078 16.488h4.641l.148-1.281c.359-4.398 1.93-7.285 4.766-8.832 1.313-.703 3.195-1.125 5.578-1.305v34.344c0 2.816-.625 3.707-.906 3.945-.25.258-1.234.871-4.375.871h-1.406v4.527h27.078v-4.527h-1.406c-3.234 0-4.203-.59-4.492-.855-.25-.238-.875-1.117-.875-3.961v-34.359c2.43.168 4.313.594 5.578 1.289 2.586 1.504 4.211 4.496 4.805 8.922l.156 1.207h4.609l-.094-16.488H86.784v.015z"/><path fill="#FFD730" d="M88.737-183.233c0 .984-.047 11.566-.047 12.566h.898c.531-4.742 2.43-8.094 5.727-9.887 1.836-.992 4.508-1.535 7.883-1.633l.578-.016v36.414c0 2.672-.5 4.441-1.5 5.395-.922.863-2.656 1.305-5.172 1.359v.633h23.141v-.633c-2.586-.047-4.344-.488-5.281-1.352-.977-.945-1.453-2.703-1.453-5.402v-36.414l.578.016c3.469.098 6.109.641 7.891 1.633 3.063 1.766 4.969 5.109 5.688 9.887h.922c0-1-.047-11.582-.047-12.566H88.737z"/><path fill="#010202" d="M158.573-201.553a6.934 6.934 0 0 0-1.438 1.375l-10.594 13.016h6.953l9.438-6.246c.953-.625 1.688-1.227 2.203-1.832.672-.754 1.016-1.746 1.016-2.961 0-1.207-.422-2.25-1.219-3.098-.828-.855-1.93-1.301-3.242-1.301-1.102-.008-2.148.359-3.117 1.047m-27.18 16.359v4.473l1.328.07c2.297.129 3.164.441 3.492.617.555.289 1.227.848 1.227 2.754v32.941c0 1.871-.656 2.457-1.164 2.746-.359.207-1.266.543-3.531.613l-1.344.051v4.504h42.297l3.344-16.93h-4.484l-.375.816c-2.016 4.328-4.297 7.305-6.773 8.832-2.523 1.535-5.836 2.32-9.898 2.32-2.805 0-3.578-.426-3.758-.543-.461-.297-.523-1.242-.523-1.777v-15.016c2.672.16 4.594.758 5.625 1.848 1.297 1.344 2.141 3.832 2.602 7.367l.133 1.227h4.391v-25.707h-4.313l-.211 1.129c-.836 4.434-1.961 6.383-2.781 7.23-.938.961-2.836 1.496-5.461 1.609v-14.273c0-1.008.219-1.383.297-1.453 0 0 .578-.355 3.109-.355 5.086 0 8.594.715 10.383 2.113 1.766 1.395 3.078 4.145 3.883 8.152l.203 1.129h4.313v-16.488l-42.011.001z"/><path fill="#FFD730" d="M159.706-199.944c-.375.254-.742.59-1.031.988 0 0-5.891 7.234-8 9.832h2.227c.25-.191 8.922-5.926 8.922-5.926.813-.527 1.422-1.016 1.844-1.488.313-.391.5-.953.5-1.672 0-.695-.219-1.266-.656-1.734-.438-.473-1.047-.699-1.828-.699-.682 0-1.322.226-1.978.699m-26.36 16.711v.656c1.805.133 3.063.398 3.836.824 1.453.766 2.242 2.27 2.242 4.461v32.945c0 2.16-.734 3.648-2.195 4.457-.82.48-2.133.719-3.875.816v.672h38.75a7809.77 7809.77 0 0 1 2.547-12.992h-.859c-2.125 4.496-4.594 7.656-7.344 9.352-2.844 1.727-6.516 2.598-10.938 2.598-2.453 0-4.047-.285-4.906-.879-.883-.633-1.328-1.785-1.328-3.396v-17.039h.563c4 0 6.844.848 8.453 2.543 1.531 1.609 2.508 4.238 3.039 7.984h.688v-21.785h-.703c-.773 3.703-1.82 6.273-3.203 7.746-1.508 1.582-4.195 2.328-8.258 2.27h-.563v-16.289c0-1.469.344-2.461 1.047-3.008.672-.527 2.047-.766 4.313-.766 5.609 0 9.406.824 11.609 2.527 2.063 1.633 3.578 4.633 4.438 8.863h.766v-12.559h-38.119v-.001z"/><path fill="#010202" d="M-17.998-123.772v4.473l1.313.074c2.309.137 3.199.445 3.512.609.527.285 1.246.863 1.246 2.758v32.938c0 1.871-.688 2.469-1.184 2.75-.359.199-1.281.535-3.527.617l-1.359.047v4.496h42.293l3.344-16.918h-4.47l-.379.813c-2.016 4.336-4.293 7.305-6.781 8.836-2.512 1.535-5.84 2.301-9.891 2.301-2.816 0-3.59-.398-3.781-.52-.441-.313-.512-1.246-.512-1.793V-97.28c2.688.164 4.605.766 5.637 1.855 1.266 1.352 2.16 3.832 2.578 7.367l.16 1.23h4.391v-25.734h-4.297l-.215 1.152c-.855 4.43-1.984 6.375-2.801 7.223-.902.961-2.816 1.504-5.453 1.617v-14.289c0-1.016.215-1.398.293-1.465.016-.016.578-.352 3.098-.352 5.113 0 8.594.711 10.406 2.113 1.785 1.398 3.082 4.145 3.875 8.152l.199 1.129h4.297v-16.492h-41.992v.002z"/><path fill="#FFD730" d="M-16.033-121.803v.656c1.785.129 3.035.395 3.816.816 1.488.77 2.234 2.289 2.234 4.473v32.938c0 2.168-.723 3.656-2.168 4.477-.816.449-2.145.715-3.871.809v.664h38.719c.168-.801 2.344-11.824 2.559-13h-.84c-2.145 4.504-4.605 7.664-7.375 9.354-2.816 1.727-6.488 2.598-10.906 2.598-2.453 0-4.047-.289-4.902-.879-.887-.633-1.344-1.77-1.344-3.402v-17.039h.574c4 0 6.832.855 8.441 2.551 1.527 1.594 2.512 4.234 3.047 7.977h.688v-21.79h-.734c-.734 3.719-1.785 6.277-3.184 7.75-1.504 1.578-4.184 2.328-8.281 2.281l-.543-.008v-16.281c0-1.48.344-2.473 1.063-3.023.672-.512 2.035-.77 4.281-.77 5.641 0 9.441.832 11.609 2.543 2.094 1.625 3.574 4.625 4.473 8.852h.734v-12.555h-38.09v.008z"/><path fill="#010202" d="M28.112-123.772l-.078 16.492h4.641l.125-1.271c.383-4.41 1.938-7.297 4.789-8.84 1.297-.695 3.18-1.137 5.578-1.297v34.336c0 2.816-.641 3.695-.906 3.945-.281.27-1.266.863-4.391.863h-1.398v4.527h27.07v-4.527h-1.391c-3.234 0-4.219-.594-4.516-.84-.227-.25-.852-1.129-.852-3.969v-34.344c2.43.168 4.313.598 5.547 1.297 2.602 1.496 4.242 4.488 4.836 8.902l.156 1.219h4.594l-.078-16.492H28.112v-.001z"/><path fill="#FFD730" d="M30.065-121.803c0 .969-.047 11.563-.063 12.555h.898c.531-4.746 2.445-8.098 5.719-9.875 1.859-1 4.516-1.551 7.906-1.629l.578-.027v36.418c0 2.672-.5 4.434-1.5 5.375-.938.879-2.672 1.32-5.188 1.387v.621h23.141v-.622c-2.57-.066-4.328-.508-5.266-1.363-.977-.941-1.484-2.703-1.484-5.398v-36.418l.578.027c3.484.078 6.141.629 7.922 1.629 3.063 1.746 4.953 5.098 5.688 9.875h.922c0-.992-.047-11.586-.047-12.555H30.065z"/><path fill="#010202" d="M-96.623-62.331v4.375l1.246.145c2.504.281 3.402.77 3.707 1.031.086.066.68.691.68 3.771v30.098c0 2.75-.512 3.574-.738 3.813-.238.234-1.055.801-3.59.984l-1.305.098v4.441h25.359v-4.488l-1.352-.051c-2.504-.094-3.426-.604-3.746-.902-.184-.184-.797-.984-.797-3.887v-11.313c3.367-.016 6.047-.113 7.895-.281 2.176-.184 4.391-.75 6.559-1.625 3.02-1.313 5.211-3.094 6.547-5.293 1.313-2.184 1.969-4.527 1.969-7.02 0-5.078-1.738-8.734-5.195-10.871-3.223-2.016-7.934-3.016-13.957-3.016h-23.281l-.001-.009zm19.465 6.051c0-.348.055-.609.152-.656.176-.098.727-.313 2.23-.313 2.414 0 3.961.703 4.762 2.141.91 1.707 1.383 4 1.383 6.844 0 4.031-.863 6.621-2.57 7.719-.695.438-2.277.969-5.949 1.145v-16.88h-.008z"/><path fill="#FFD730" d="M-94.654-60.37v.688c2.063.266 3.473.719 4.277 1.426.914.797 1.344 2.512 1.344 5.246v30.098c0 2.574-.414 4.277-1.285 5.184-.816.816-2.234 1.313-4.336 1.504v.672h21.414v-.641c-2.121-.16-3.598-.594-4.473-1.406-.934-.906-1.414-2.625-1.414-5.313v-13.25h.574c4.008 0 7.074-.094 9.105-.281 1.992-.164 4.008-.672 6.016-1.5 2.578-1.129 4.465-2.656 5.578-4.492a11.342 11.342 0 0 0 1.695-6c0-4.422-1.379-7.422-4.266-9.199-2.918-1.816-7.273-2.734-12.918-2.734h-21.311v-.002zm15.528 4.09c0-1.164.398-1.953 1.176-2.379.68-.375 1.719-.559 3.168-.559 3.16 0 5.328 1.078 6.48 3.168 1.094 1.984 1.633 4.605 1.633 7.785 0 4.734-1.168 7.887-3.496 9.375-1.449.918-4.195 1.422-8.395 1.504h-.574V-56.28h.008z"/><path fill="#010202" d="M-37.775-63.331l-15.391 38.129c-1.426 3.527-2.184 4.887-2.578 5.422-.766 1.051-1.688 1.578-2.926 1.656l-1.305.098v4.441h16.664V-18.1l-1.375-.016c-1.754-.016-2.641-.199-3.082-.344-.984-.328-.984-.656-.984-.781 0-.359.113-1.281.84-3.375-.016.016 1.031-2.836 1.578-4.328h13.359c.438 1.078 1.344 3.246 1.344 3.246l.855 2.246c.406 1.25.457 1.801.457 1.969 0 .625-.129.855-.16.891-.266.109-1.129.359-3.891.469l-1.359.051v4.488h24.816v-4.578l-1.457.047c-1.078.035-1.84-.328-2.391-1.109-.543-.719-1.609-2.625-3.672-7.488l-15.512-36.609h-3.832v-.01h.002zm-2.078 19.672c1.293 3.113 3.652 8.801 4.652 11.234h-9.031c.922-2.402 3.137-8.089 4.379-11.234"/><path fill="#FFD730" d="M-36.439-61.354c-.281.688-14.902 36.887-14.902 36.887-1.234 3.031-2.168 4.938-2.832 5.84-.984 1.363-2.281 2.129-3.848 2.363v.703h12.75v-.641c-1.313-.047-2.375-.16-3.098-.391-1.934-.656-2.359-1.816-2.359-2.656 0-.875.313-2.168.938-4 0-.016 2.063-5.688 2.063-5.688h16.051l1.871 4.484.887 2.363c.375 1.16.543 2.016.543 2.605 0 1.426-.453 2.344-1.375 2.723-.703.277-2.031.469-4.016.574v.625h20.871v-.641c-1.473-.098-2.641-.719-3.488-1.871-.855-1.199-2.145-3.785-3.871-7.871 0 0-13.543-32-15-35.41h-1.185v.002zm-4.07 13.984h1.23l7.031 16.902h-14.871l6.61-16.902z"/><path fill="#010202" d="M-15.326-62.331l-.082 16.473h4.656l.113-1.266c.391-4.406 1.934-7.293 4.801-8.84 1.293-.703 3.168-1.125 5.543-1.309v34.344c0 2.813-.609 3.703-.855 3.949-.281.25-1.281.871-4.41.871h-1.422v4.516h27.094v-4.516h-1.406c-3.215 0-4.199-.605-4.488-.855-.25-.23-.855-1.125-.855-3.965v-34.344c2.422.164 4.297.605 5.559 1.293 2.609 1.488 4.215 4.488 4.801 8.922l.16 1.199h4.59l-.078-16.473-43.721.001z"/><path fill="#FFD730" d="M-13.376-60.37c0 .984-.047 11.559-.047 12.543h.906c.527-4.734 2.438-8.078 5.719-9.855 1.84-1 4.504-1.559 7.902-1.641l.563-.016v36.41c0 2.672-.488 4.422-1.504 5.375-.922.871-2.641 1.313-5.184 1.375v.625h23.156v-.609c-2.59-.063-4.344-.504-5.262-1.375-1-.938-1.473-2.703-1.473-5.391v-36.41l.559.016c3.488.082 6.145.641 7.906 1.641 3.078 1.754 4.969 5.098 5.703 9.855h.922c-.02-.984-.066-11.559-.066-12.543h-39.8z"/><path fill="#010202" d="M29.409-62.331v4.41l1.281.109c2.852.25 3.523.703 3.641.785.289.23.945 1.098.945 4.016v30.098c0 2.934-.586 3.703-.781 3.871-.328.297-1.25.801-3.766.918l-1.32.066v4.473h25.594v-4.488l-1.367-.051c-2.672-.109-3.5-.703-3.719-.934-.242-.266-.797-1.129-.797-3.855v-9.16c3.516 4.734 13.813 18.488 13.813 18.488h16.313v-4.328l-1.313-.082a4.33 4.33 0 0 1-1.141-.215c-.094-.031-.297-.145-.563-.543-.031-.035-9.867-13.203-13.313-17.816 1.875-.594 3.719-1.41 5.445-2.656 3.211-2.41 4.852-5.719 4.852-9.875 0-5.637-3.063-9.574-9.094-11.734-2.969-1-6.828-1.488-11.484-1.488H29.409v-.009zm19.718 6.618c0-.41.055-.922.313-1.16.016-.016.508-.375 2.711-.375 2.828 0 4.617.984 5.648 3.109.641 1.328.953 3.219.953 5.625 0 3.719-.766 6.16-2.195 7.047-1.508.922-4.016 1.441-7.43 1.594v-15.84z"/><path fill="#FFD730" d="M31.362-60.37v.672c2.109.215 3.508.59 4.195 1.146 1.148.918 1.688 2.734 1.688 5.543v30.098c0 2.719-.469 4.453-1.422 5.328-.859.766-2.344 1.215-4.469 1.375v.656h21.672v-.641c-2.203-.16-3.719-.641-4.547-1.512-.906-.938-1.328-2.641-1.328-5.199v-32.801c0-1.215.344-2.145 1.047-2.688.688-.543 1.938-.816 3.938-.816 3.563 0 6.063 1.422 7.422 4.215.773 1.609 1.164 3.785 1.164 6.488 0 4.563-1.031 7.426-3.148 8.719-2.031 1.234-5.242 1.891-9.852 1.953h-.508c.117.168.984 1.281.984 1.281s15.391 20.559 15.719 21h13.359v-.586c-.438-.063-.867-.125-1.195-.246-.523-.215-1.031-.625-1.461-1.25L59.604-37.698l.906-.168c2.328-.426 4.594-1.406 6.688-2.953 2.719-2.031 4.031-4.734 4.031-8.281 0-4.797-2.539-8.016-7.766-9.871-2.734-.918-6.375-1.391-10.828-1.391H31.362v-.008z"/><path fill="#010202" d="M78.456-62.331v4.473l1.328.047c2.383.129 3.313.441 3.656.594.508.281 1.18.855 1.18 2.781v32.938c0 1.938-.734 2.543-1.273 2.832-.359.168-1.313.504-3.508.543l-1.383.035v4.504h26.578v-4.531h-1.414c-2.328 0-3.484-.422-4.063-.766-.609-.359-.922-1.234-.922-2.609v-32.934c0-1.938.727-2.531 1.234-2.801.344-.16 1.297-.457 3.82-.578l1.344-.047v-4.473H78.456v-.008z"/><path fill="#FFD730" d="M80.424-60.37v.656c1.82.098 3.133.359 3.922.77 1.492.781 2.258 2.309 2.258 4.508v32.938c0 2.234-.797 3.785-2.359 4.578-.836.406-2.141.621-3.828.719v.641h22.625v-.625c-1.938-.063-3.438-.375-4.5-1.016-1.234-.754-1.859-2.184-1.859-4.297v-32.938c0-2.23.781-3.766 2.297-4.543.797-.391 2.156-.637 4.063-.734v-.656l-22.619-.001z"/><path fill="#010202" d="M104.854-62.331v4.457l1.328.063c2.289.145 3.164.457 3.484.625.563.281 1.25.855 1.25 2.75v32.938c0 1.871-.672 2.473-1.188 2.754-.359.199-1.266.543-3.531.621l-1.344.051v4.488h42.328l3.328-16.922h-4.484l-.406.832c-1.984 4.328-4.266 7.297-6.766 8.816-2.508 1.527-5.836 2.313-9.875 2.313-2.813 0-3.609-.391-3.766-.512-.461-.328-.531-1.266-.531-1.801v-15c2.672.168 4.594.785 5.641 1.855 1.266 1.344 2.156 3.832 2.578 7.375l.156 1.234h4.391v-25.738h-4.297l-.219 1.16c-.828 4.426-1.984 6.363-2.797 7.219-.922.965-2.828 1.504-5.453 1.621v-14.285c0-1.02.234-1.41.297-1.473 0 0 .563-.359 3.109-.359 5.094 0 8.578.719 10.391 2.125 1.766 1.395 3.078 4.129 3.844 8.145l.25 1.129h4.281v-16.473h-42l.001-.008z"/><path fill="#FFD730" d="M106.799-60.37v.656c1.805.129 3.07.406 3.82.801 1.5.797 2.266 2.297 2.266 4.488v32.934c0 2.16-.734 3.656-2.188 4.473-.813.473-2.141.703-3.891.816v.656h38.734c.164-.801 2.344-11.816 2.563-12.984h-.844c-2.125 4.512-4.602 7.672-7.375 9.359-2.813 1.719-6.484 2.594-10.898 2.594-2.477 0-4.055-.297-4.906-.875-.898-.637-1.375-1.781-1.375-3.406v-17.031h.57c4.016 0 6.859.855 8.477 2.543 1.508 1.609 2.508 4.25 3.031 7.984h.727v-21.801h-.742c-.766 3.719-1.805 6.281-3.195 7.77-1.508 1.559-4.203 2.313-8.281 2.262h-.578v-16.285c0-1.488.359-2.473 1.078-3.02.672-.527 2.047-.781 4.313-.781 5.609 0 9.406.84 11.578 2.543 2.094 1.625 3.578 4.625 4.5 8.84h.719v-12.543H106.8l-.001.007z"/><path fill="none" stroke="#010202" stroke-width="3.048" d="M-174.318 19.912h403.43M27.249-213.002h201.832V83.662c0 106.594-90.313 193.016-201.688 193.016-111.398 0-201.695-86.422-201.695-193.016v-296.664H27.249z"/></svg>