<svg xmlns="http://www.w3.org/2000/svg" width="406.794" height="493.177" viewBox="-176.752 -214.492 406.794 493.177"><path fill="#E8423F" d="M26.506-212.967h202.012V83.958c0 106.703-90.391 193.203-201.867 193.203l-.145-490.128z"/><path fill="#FFF" d="M26.651 277.163c-111.504 0-201.879-86.5-201.879-193.204v-296.926H26.506l.145 490.13zm113.148-445.064l13.571 36.895h36.117l-28.524 19.554 10.852 35.016-32.016-20.633-31.757 20.633 10.835-35.281-28.75-19.289h36.094z"/><path fill="none" stroke="#010202" stroke-width="3.048" d="M139.799-167.901l13.571 36.895h36.117l-28.524 19.554 10.852 35.016-32.016-20.633-31.757 20.633 10.835-35.281-28.75-19.289h36.094z"/><path fill="#FFF" d="M139.799-78.151l13.571 36.93h36.117l-28.524 19.527 10.852 35.016-32.016-20.625-31.757 20.625 10.835-35.281-28.75-19.262h36.094z"/><path fill="none" stroke="#010202" stroke-width="3.048" d="M139.799-78.151l13.571 36.93h36.117l-28.524 19.527 10.852 35.016-32.016-20.625-31.757 20.625 10.835-35.281-28.75-19.262h36.094z"/><path fill="#FFF" d="M139.799 11.603l13.571 36.918h36.117l-28.524 19.555 10.852 35.015-32.016-20.625-31.757 20.625 10.835-35.281-28.75-19.289h36.094z"/><path fill="none" stroke="#010202" stroke-width="3.048" d="M139.799 11.603l13.571 36.918h36.117l-28.524 19.555 10.852 35.015-32.016-20.625-31.757 20.625 10.835-35.281-28.75-19.289h36.094z"/><path fill="#FFF" d="M139.799 101.38l13.571 36.907h36.117l-28.524 19.546 10.852 35-32.016-20.625-31.757 20.625 10.835-35.281-28.75-19.265h36.094z"/><path fill="none" stroke="#010202" stroke-width="3.048" d="M139.799 101.38l13.571 36.907h36.117l-28.524 19.546 10.852 35-32.016-20.625-31.757 20.625 10.835-35.281-28.75-19.265h36.094z"/><path fill="#E8423F" d="M-86.47-167.901l13.57 36.895h36.094l-28.496 19.554 10.855 35.016-32.023-20.633-31.758 20.633 10.855-35.281-28.777-19.289h36.098z"/><path fill="none" stroke="#010202" stroke-width="3.048" d="M-86.47-167.901l13.57 36.895h36.094l-28.496 19.554 10.855 35.016-32.023-20.633-31.758 20.633 10.855-35.281-28.777-19.289h36.098z"/><path fill="#E8423F" d="M-86.47-78.151l13.57 36.93h36.094l-28.496 19.527 10.855 35.016L-86.47-7.303l-31.758 20.625 10.855-35.281-28.777-19.262h36.098z"/><path fill="none" stroke="#010202" stroke-width="3.048" d="M-86.47-78.151l13.57 36.93h36.094l-28.496 19.527 10.855 35.016L-86.47-7.303l-31.758 20.625 10.855-35.281-28.777-19.262h36.098z"/><path fill="#E8423F" d="M-86.47 11.603l13.57 36.918h36.094l-28.496 19.555 10.855 35.015-32.023-20.625-31.758 20.625 10.855-35.281-28.777-19.289h36.098z"/><path fill="none" stroke="#010202" stroke-width="3.048" d="M-86.47 11.603l13.57 36.918h36.094l-28.496 19.555 10.855 35.015-32.023-20.625-31.758 20.625 10.855-35.281-28.777-19.289h36.098z"/><path fill="#E8423F" d="M-86.47 101.38l13.57 36.907h36.094l-28.496 19.546 10.855 35-32.023-20.625-31.758 20.625 10.855-35.281-28.777-19.265h36.098z"/><path fill="none" stroke="#010202" stroke-width="3.048" d="M-86.47 101.38l13.57 36.907h36.094l-28.496 19.546 10.855 35-32.023-20.625-31.758 20.625 10.855-35.281-28.777-19.265h36.098z"/><path fill="#E8423F" d="M26.588-126.862l-32.019 20.367L5.452-141.51l-28.52-19.543h36.11l13.546-36.641z"/><path fill="#FFF" d="M26.588-197.694l13.571 36.922h36.117L47.502-141.51l11.133 35.289-32.047-20.641z"/><path fill="none" stroke="#010202" stroke-width="3.048" d="M26.588-197.694l13.571 36.922h36.117L47.502-141.51l11.133 35.289-32.047-20.641-32.019 20.367L5.452-141.51l-28.52-19.543h36.11z"/><path fill="#E8423F" d="M26.588-37.1L-5.431-16.741 5.452-51.756l-28.52-19.539h36.11l13.546-36.641z"/><path fill="#FFF" d="M26.588-107.936l13.571 36.914h36.117L47.502-51.756l11.133 35.277L26.588-37.1z"/><path fill="none" stroke="#010202" stroke-width="3.048" d="M26.588-107.936l13.571 36.914h36.117L47.502-51.756l11.133 35.277L26.588-37.1-5.431-16.741 5.452-51.756l-28.52-19.539h36.11z"/><path fill="#E8423F" d="M26.588 52.662L-5.431 73.021l10.883-35-28.52-19.555h36.11l13.546-36.633z"/><path fill="#FFF" d="M26.588-18.167l13.571 36.915h36.117L47.502 38.021l11.133 35.266-32.047-20.625z"/><path fill="none" stroke="#010202" stroke-width="3.048" d="M26.588-18.167l13.571 36.915h36.117L47.502 38.021l11.133 35.266-32.047-20.625-32.019 20.359 10.883-35-28.52-19.555h36.11z"/><path fill="#E8423F" d="M26.588 142.435l-32.019 20.359 10.883-35.015-28.52-19.555h36.11l13.546-36.656z"/><path fill="#FFF" d="M26.588 71.568l13.571 36.922h36.117l-28.774 19.289 11.133 35.273-32.047-20.617z"/><path fill="none" stroke="#010202" stroke-width="3.048" d="M26.588 71.568l13.571 36.922h36.117l-28.774 19.289 11.133 35.273-32.047-20.617-32.019 20.359 10.883-35.015-28.52-19.555h36.11z"/><path fill="#FFF" d="M26.588 161.349l13.571 36.906h36.117l-28.774 19.266 11.133 35.289-32.047-20.633z"/><path fill="#E8423F" d="M26.588 232.177l-32.019 20.374 10.883-35.03-28.52-19.547h36.11l13.546-36.625z"/><path fill="none" stroke="#010202" stroke-width="3.048" d="M26.506-212.967l.145 490.129m-.145-490.129h202.012V83.958c0 106.703-90.391 193.203-201.867 193.203-111.504 0-201.879-86.5-201.879-193.203v-296.926l201.734.001h0zm.082 374.316l13.57 36.906h36.117l-28.789 19.266 11.148 35.28-32.047-20.625-32.02 20.375 10.875-35.03-28.512-19.547h36.109l13.549-36.625z"/></svg>