<svg width="26" height="18" viewBox="0 0 26 18" xmlns="http://www.w3.org/2000/svg"><g fill="none" fill-rule="evenodd"><path stroke="#C91024" stroke-linecap="round" stroke-linejoin="round" d="M12.5 7V.5H21L25.5 5v12.5h-13"/><path stroke="#C91024" stroke-linecap="round" stroke-linejoin="round" d="M20.5.5v5h5"/><path d="M.527 9.273h1.977c.346 0 .644.018.894.053s.49.121.717.258c.228.137.427.325.598.564.17.24.305.515.402.827.098.31.147.688.147 1.13 0 .844-.2 1.538-.602 2.08-.4.544-1.091.815-2.07.815H.527V9.273zm.758 5.047h1.227a4.3 4.3 0 0 0 .67-.047c.196-.03.395-.115.597-.253.202-.138.37-.365.502-.68.133-.315.2-.732.2-1.25a4.01 4.01 0 0 0-.077-.803 1.89 1.89 0 0 0-.281-.68 1.335 1.335 0 0 0-.47-.449 1.483 1.483 0 0 0-.518-.174 5.438 5.438 0 0 0-.647-.03H1.285v4.366zm7.5-5.144c.802 0 1.458.272 1.969.816.51.544.766 1.262.766 2.153 0 .888-.257 1.602-.77 2.142-.513.54-1.168.81-1.965.81-.825 0-1.49-.28-1.992-.84-.503-.56-.754-1.243-.754-2.05 0-.94.255-1.68.764-2.22.509-.541 1.17-.811 1.982-.811zm-.008 5.273c.581 0 1.052-.203 1.412-.61.361-.405.543-.97.545-1.694 0-.745-.184-1.318-.552-1.72a1.806 1.806 0 0 0-1.389-.6c-.573 0-1.044.196-1.414.59-.37.392-.555.995-.555 1.808 0 .664.181 1.2.543 1.611.362.41.832.615 1.41.615zm8.575-1.265c-.167.643-.458 1.123-.873 1.439-.416.316-.914.475-1.495.475-.937 0-1.62-.294-2.048-.881-.429-.587-.643-1.294-.643-2.12 0-.913.252-1.629.756-2.146.504-.517 1.152-.775 1.943-.775.557 0 1.034.142 1.43.426.396.283.673.699.832 1.246l-.742.175c-.125-.398-.315-.697-.57-.898-.256-.2-.575-.3-.958-.3-.625 0-1.099.204-1.421.614-.323.41-.485.96-.485 1.65 0 .798.17 1.39.51 1.778.34.388.783.582 1.33.582.448 0 .812-.12 1.092-.363.28-.242.476-.607.588-1.094l.754.192zM22.953 15h-.937l-1.149-1.625a10.179 10.179 0 0 1-.531-.8h-.016c0 .046-.567.855-1.703 2.425h-.914l2.219-2.984-1.961-2.743h.902l1.207 1.711c.13.185.227.34.29.465.1-.174.637-.9 1.609-2.176h.824l-2.008 2.696L22.953 15z" fill="#C91024"/></g></svg>