<svg width="19" height="18" viewBox="0 0 19 18" xmlns="http://www.w3.org/2000/svg"><g fill="none" fill-rule="evenodd"><path stroke="#C91024" stroke-linecap="round" stroke-linejoin="round" d="M5.5 7V.5H14L18.5 5v12.5h-13"/><path stroke="#C91024" stroke-linecap="round" stroke-linejoin="round" d="M13.5.5v5h5"/><path d="M.417 9.273h2.16c.341 0 .635.017.881.051.246.034.475.122.686.264.21.142.37.335.478.578.108.244.162.498.162.764 0 .528-.17.952-.51 1.271-.34.32-.884.479-1.634.479H1.175V15H.417V9.273zM1.175 12h1.473c.9 0 1.351-.349 1.351-1.047a1.06 1.06 0 0 0-.176-.607.734.734 0 0 0-.431-.328c-.17-.043-.424-.065-.76-.065H1.175V12zm4.702-2.727h1.976c.346 0 .645.018.895.053s.489.121.716.258c.228.137.428.325.598.564.17.24.305.515.402.827.098.31.147.688.147 1.13 0 .844-.2 1.538-.602 2.08-.4.544-1.09.815-2.07.815H5.877V9.273zm.757 5.047h1.227a4.3 4.3 0 0 0 .67-.047 1.46 1.46 0 0 0 .598-.253c.201-.138.369-.365.501-.68.133-.315.2-.732.2-1.25a4.01 4.01 0 0 0-.076-.803 1.89 1.89 0 0 0-.282-.68 1.335 1.335 0 0 0-.47-.449 1.483 1.483 0 0 0-.518-.174 5.438 5.438 0 0 0-.646-.03H6.634v4.366zm8.983-4.367h-3.105v1.774h2.691v.68h-2.691V15h-.758V9.273h3.863v.68z" fill="#C91024"/></g></svg>