<svg width="72" height="72" viewBox="0 0 72 72" xmlns="http://www.w3.org/2000/svg">
	<title>audio-play</title>
	<defs>
		<filter x="-50%" y="-50%" width="200%" height="200%" filterUnits="objectBoundingBox" id="a">
			<feOffset in="SourceAlpha" result="shadowOffsetOuter1"/>
			<feGaussianBlur stdDeviation="2" in="shadowOffsetOuter1" result="shadowBlurOuter1"/>
			<feColorMatrix values="0 0 0 0 0 0 0 0 0 0 0 0 0 0 0 0 0 0 0.2 0" in="shadowBlurOuter1" result="shadowMatrixOuter1"/>
			<feMerge><feMergeNode in="shadowMatrixOuter1"/><feMergeNode in="SourceGraphic"/>
			</feMerge>
		</filter>
	</defs>
	<g filter="url(#a)" transform="translate(6 6)" fill="none" fill-rule="evenodd">
		<ellipse stroke="#FFF" stroke-width="3" cx="30" cy="30" rx="30" ry="30"/>
		<path d="M38.535 36.94c0 .544-.443.986-.985.986h-.984v-7.12h.984c.542 0 .985.44.985.982v5.153zm-15.102.986h-.985c-.542 0-.983-.442-.983-.985v-5.15c0-.542.44-.983.983-.983h.985v7.12zm14.434-8.555v-.502c0-4.34-3.53-7.867-7.867-7.867-4.338 0-7.868 3.53-7.868 7.868v.504c-1.2.16-2.132 1.177-2.132 2.418v5.153c0 1.352 1.1 2.45 2.448 2.45h1.718c.405 0 .732-.327.732-.73v-8.587c0-.406-.327-.733-.732-.733h-.57v-.473c0-3.53 2.873-6.402 6.404-6.402 3.53 0 6.4 2.872 6.4 6.402v.473h-.567c-.404 0-.733.327-.733.733v8.586c0 .403.33.73.733.73h1.717c1.35 0 2.45-1.098 2.45-2.45V31.79c0-1.242-.933-2.26-2.133-2.417z" fill="#FFF"/>
	</g>
</svg>