<?xml version="1.0" encoding="UTF-8"?>
<svg width="24px" height="24px" viewBox="0 0 24 24" version="1.1" xmlns="http://www.w3.org/2000/svg" xmlns:xlink="http://www.w3.org/1999/xlink">
    <!-- Generator: Sketch 57.1 (83088) - https://sketch.com -->
    <title>Logos/RadioSRFVirus_Square</title>
    <desc>Created with Sketch.</desc>
    <g id="Logos/RadioSRFVirus_Square" stroke="none" stroke-width="1" fill="none" fill-rule="evenodd">
        <g id="Virus">
            <polygon id="Path" fill="#A5FF00" points="0 0 0 23.9957672 23.9957672 23.9957672 23.9957672 0"></polygon>
            <path d="M2.4,3.61481481 L4.47830688,3.61904762 C6.12910053,3.63597884 7.55978836,4.71534392 7.83068783,6.26455026 L11.3269841,20.9396825 L6.34920635,20.9396825 L2.4,3.61481481 Z M21.5957672,3.61481481 L17.6465608,20.9396825 L12.6687831,20.9396825 L16.1650794,6.26455026 C16.4359788,4.71111111 17.8666667,3.63174603 19.5174603,3.61904762 L21.5957672,3.61481481 Z" id="Combined-Shape" fill="#FFFFFF"></path>
            <path d="M17.210582,19.4751323 L17.0962963,19.9830688 L15.242328,19.9830688 L15.2888889,19.7714286 C15.321542,19.6263039 15.4319404,19.5184969 15.5667731,19.4959878 L15.6359788,19.4920635 L17.210582,19.4751323 Z M15.6825397,18.0232804 L17.3544974,18.8275132 L17.2402116,19.3354497 L15.8306878,18.6412698 C15.7000756,18.5868481 15.62544,18.4546809 15.6307711,18.3114073 L15.6402116,18.2391534 L15.6825397,18.0232804 Z M15.8568026,17.297942 L17.6190248,17.6995479 L17.5079247,18.1870485 L15.7457024,17.7854425 L15.8568026,17.297942 Z M16.7534392,15.8391534 C16.8592593,15.8645503 16.9439153,15.9026455 17.0074074,15.9619048 C17.0708995,16.021164 17.1132275,16.0846561 17.1301587,16.152381 L17.1455026,16.2259259 L17.1513228,16.2962963 L18.010582,15.9619048 L17.8962963,16.4613757 L17.0835979,16.757672 L16.8042328,16.6222222 L16.8084656,16.605291 C16.8296296,16.5121693 16.8296296,16.4402116 16.8084656,16.389418 C16.7873016,16.3386243 16.7365079,16.3047619 16.6603175,16.2878307 C16.6010582,16.2751323 16.5502646,16.2793651 16.5121693,16.3047619 C16.4895944,16.3216931 16.4689006,16.3517931 16.4513423,16.3950617 L16.4275132,16.4698413 L16.3809524,16.6687831 L17.7777778,16.9862434 L17.6804233,17.4179894 L15.9195767,17.015873 L16.0761905,16.3216931 C16.1227513,16.1185185 16.2074074,15.9746032 16.3259259,15.8984127 C16.4444444,15.8222222 16.5883598,15.8010582 16.7534392,15.8391534 Z M16.5883598,14.0698413 L17.6846561,14.3195767 C17.8201058,14.3492063 17.9301587,14.3915344 18.010582,14.442328 C18.0910053,14.4931217 18.1544974,14.5566138 18.1925926,14.6285714 C18.2349206,14.7005291 18.2560847,14.7809524 18.2560847,14.8740741 C18.2603175,14.962963 18.247619,15.0603175 18.2222222,15.1703704 C18.1968254,15.2761905 18.162963,15.373545 18.1248677,15.4539683 C18.0867725,15.5343915 18.031746,15.6021164 17.9640212,15.6486772 C17.9005291,15.6952381 17.815873,15.7248677 17.7185185,15.7375661 C17.6536155,15.7460317 17.5793063,15.7432099 17.496845,15.7316089 L17.3671958,15.7079365 L16.2708995,15.4582011 L16.3724868,15.0222222 L17.5068783,15.2804233 C17.5957672,15.3015873 17.6677249,15.3058201 17.7185185,15.2888889 C17.7693122,15.2719577 17.8031746,15.2465608 17.8201058,15.2126984 C17.837037,15.1746032 17.8539683,15.1322751 17.8624339,15.0899471 C17.8793651,15.0179894 17.8793651,14.962963 17.8666667,14.9206349 C17.8539683,14.8783069 17.8285714,14.8444444 17.7862434,14.8190476 C17.7552028,14.7992945 17.722281,14.7833039 17.6849696,14.7710758 L17.6253968,14.7555556 L16.4867725,14.5058201 L16.5883598,14.0698413 Z M16.9693122,12.6137566 L17.2952381,12.7534392 L17.2825397,12.7746032 C17.2529101,12.8296296 17.2232804,12.9015873 17.1936508,12.9862434 C17.1640212,13.0708995 17.1386243,13.1513228 17.1216931,13.2232804 C17.1047619,13.2910053 17.1047619,13.3502646 17.1174603,13.3968254 C17.1301587,13.4433862 17.168254,13.4687831 17.2359788,13.4857143 C17.2910053,13.4984127 17.3333333,13.4941799 17.362963,13.4687831 C17.3925926,13.4433862 17.4222222,13.405291 17.447619,13.3587302 L17.447619,13.3587302 L17.5365079,13.1724868 C17.6169312,13.015873 17.7100529,12.9100529 17.8116402,12.8592593 C17.9132275,12.8126984 18.0359788,12.8 18.1756614,12.8338624 C18.3153439,12.8634921 18.4253968,12.9269841 18.4973545,13.015873 C18.5693122,13.1047619 18.6074074,13.2063492 18.6074074,13.3206349 C18.6074074,13.4306878 18.5989418,13.5365079 18.5777778,13.6338624 L18.5777778,13.6338624 L18.5508132,13.7420341 C18.5316872,13.8125808 18.5100529,13.8793651 18.4846561,13.9386243 C18.4465608,14.0275132 18.4169312,14.0994709 18.3957672,14.1417989 C18.3619048,14.2095238 18.3619048,14.2137566 18.357672,14.2179894 L18.357672,14.2179894 L18.3449735,14.2306878 L18.010582,14.0825397 L18.0232804,14.0613757 C18.0698413,13.968254 18.1079365,13.8835979 18.1375661,13.8074074 C18.1671958,13.7312169 18.1883598,13.6550265 18.205291,13.5915344 C18.2306878,13.4857143 18.2349206,13.4095238 18.2179894,13.362963 C18.205291,13.3164021 18.162963,13.2910053 18.0952381,13.2740741 C18.0359788,13.2613757 17.9936508,13.2656085 17.9640212,13.2910053 C17.9343915,13.3206349 17.9005291,13.3671958 17.8708995,13.4306878 L17.8708995,13.4306878 L17.7862434,13.6084656 C17.7185185,13.7396825 17.6338624,13.837037 17.5322751,13.8878307 C17.4306878,13.9428571 17.3037037,13.9513228 17.1597884,13.9174603 C17.0751323,13.8962963 17.0031746,13.8666667 16.9439153,13.8285714 C16.8846561,13.7904762 16.8338624,13.7354497 16.8,13.6719577 C16.7619048,13.6042328 16.7407407,13.5280423 16.7365079,13.4433862 C16.7322751,13.3587302 16.7407407,13.2571429 16.7661376,13.1470899 C16.8,12.9904762 16.8677249,12.8169312 16.9608466,12.6306878 L16.9608466,12.6306878 L16.9693122,12.6137566 Z" id="Combined-Shape" fill="#A5FF00" fill-rule="nonzero"></path>
        </g>
    </g>
</svg>