<?xml version="1.0" encoding="UTF-8"?>
<svg width="80px" height="80px" viewBox="0 0 80 80" version="1.1" xmlns="http://www.w3.org/2000/svg" xmlns:xlink="http://www.w3.org/1999/xlink">
    <!-- Generator: Sketch 50.2 (55047) - http://www.bohemiancoding.com/sketch -->
    <title>Atoms/Logos/RadioSRF2_Square</title>
    <desc>Created with Sketch.</desc>
    <defs></defs>
    <g id="Atoms/Logos/RadioSRF2_Square" stroke="none" stroke-width="1" fill="none" fill-rule="evenodd">
        <g id="Logo" fill-rule="nonzero">
            <rect id="BG" fill="#BA1A73" x="0" y="0" width="23.9957672" height="23.9957672"></rect>
            <g id="Shadow" transform="translate(4.486772, 4.402116)" fill="#8C1D60">
                <path d="M12.9058201,0.00846560847 C13.7693122,0.969312169 14.2391534,2.22222222 14.2391534,3.68253968 C14.2391534,6.7978836 12.6433862,8.51640212 9.03703704,11.0772487 L6.35767196,12.9693122 L0.177777778,12.9693122 L1.55767196,14.3492063 L1.92592593,13.7439153 L2.75132275,13.7439153 L1.78201058,15.3185185 L2.88253968,17.1936508 L2.01481481,17.1936508 L1.01164021,15.5005291 L1.0962963,15.1068783 L1.49417989,14.4507937 L0.783068783,13.7396825 L0.783068783,17.189418 L0.0338624339,17.189418 L2.49312169,19.589418 L19.5089947,19.589418 L19.5089947,6.6031746 C16.1439153,3.23809524 13.168254,0.262433862 12.9058201,0.00846560847 Z M5.55767196,15.9068783 C5.55767196,16.9820106 5.07089947,17.2656085 4.24126984,17.2656085 C3.41587302,17.2656085 2.92486772,16.9820106 2.92486772,15.9068783 L2.92486772,13.7439153 L3.69100529,13.7439153 L3.69100529,15.978836 C3.69100529,16.4910053 3.88994709,16.6179894 4.23703704,16.6179894 C4.58412698,16.6179894 4.79153439,16.4910053 4.79153439,15.978836 L4.79153439,13.7439153 L5.55343915,13.7439153 L5.55343915,15.9068783 L5.55767196,15.9068783 Z M7.75026455,17.1936508 L5.97248677,17.1936508 L5.97248677,13.7439153 L6.73862434,13.7439153 L6.73862434,16.5248677 L7.75449735,16.5248677 L7.75449735,17.1936508 L7.75026455,17.1936508 Z M12.1608466,15.9068783 C12.1608466,16.9820106 11.6740741,17.2656085 10.8444444,17.2656085 C10.0190476,17.2656085 9.52804233,16.9820106 9.52804233,15.9068783 L9.52804233,14.4126984 L8.84656085,14.4126984 L8.84656085,17.189418 L8.08465608,17.189418 L8.08465608,14.4126984 L7.14074074,14.4126984 L7.14074074,13.7396825 L10.2899471,13.7396825 L10.2899471,15.9746032 C10.2899471,16.4867725 10.4888889,16.6137566 10.8359788,16.6137566 C11.1830688,16.6137566 11.3904762,16.4867725 11.3904762,15.9746032 L11.3904762,13.7396825 L12.1566138,13.7396825 L12.1566138,15.9068783 L12.1608466,15.9068783 Z M14.3830688,17.1936508 L13.5153439,15.805291 L13.6380952,15.2677249 C14.0063492,15.2677249 14.1968254,15.1449735 14.1968254,14.8063492 C14.1968254,14.5354497 14.0698413,14.3915344 13.7142857,14.3915344 L13.2825397,14.3915344 L13.2825397,17.1978836 L12.5291005,17.1978836 L12.5291005,13.7481481 L13.8328042,13.7481481 C14.6116402,13.7481481 14.9714286,14.1544974 14.9714286,14.7851852 C14.9714286,15.3693122 14.6412698,15.631746 14.2814815,15.7248677 L15.2507937,17.2021164 L14.3830688,17.2021164 L14.3830688,17.1936508 Z" id="Shape"></path>
                <path d="M9.67619048,4 C9.67619048,2.42962963 8.54179894,1.57460317 6.94179894,1.57460317 C5.4984127,1.57460317 3.44550265,2.27301587 1.94708995,3.70793651 L6.47195767,8.23280423 C8.77037037,6.47195767 9.67619048,5.48148148 9.67619048,4 Z" id="Shape"></path>
            </g>
            <g id="2-Kultur" transform="translate(4.486772, 2.285714)" fill="#FFFFFF">
                <rect id="Rectangle-path" x="0.0380952381" y="15.8603175" width="1" height="3.44973545"></rect>
                <polygon id="Shape" points="2.75132275 15.8603175 1.92592593 15.8603175 1.1005291 17.2232804 1.01587302 17.621164 2.01481481 19.3100529 2.88677249 19.3100529 1.78201058 17.4349206"></polygon>
                <path d="M4.79153439,18.0952381 C4.79153439,18.6074074 4.58412698,18.7343915 4.23703704,18.7343915 C3.88994709,18.7343915 3.69100529,18.6074074 3.69100529,18.0952381 L3.69100529,15.8603175 L2.92486772,15.8603175 L2.92486772,18.0232804 C2.92486772,19.0984127 3.41587302,19.3820106 4.24126984,19.3820106 C5.07089947,19.3820106 5.55767196,19.0984127 5.55767196,18.0232804 L5.55767196,15.8603175 L4.7957672,15.8603175 L4.7957672,18.0952381 L4.79153439,18.0952381 Z" id="Shape"></path>
                <polygon id="Shape" points="6.73862434 15.8603175 5.97248677 15.8603175 5.97248677 19.3100529 7.75026455 19.3100529 7.75026455 18.6412698 6.73862434 18.6412698"></polygon>
                <path d="M11.394709,18.0952381 C11.394709,18.6074074 11.1873016,18.7343915 10.8402116,18.7343915 C10.4931217,18.7343915 10.2941799,18.6074074 10.2941799,18.0952381 L10.2941799,15.8603175 L7.14497354,15.8603175 L7.14497354,16.5333333 L8.08465608,16.5333333 L8.08465608,19.3100529 L8.84656085,19.3100529 L8.84656085,16.5333333 L9.52804233,16.5333333 L9.52804233,18.0275132 C9.52804233,19.1026455 10.0190476,19.3862434 10.8444444,19.3862434 C11.6740741,19.3862434 12.1608466,19.1026455 12.1608466,18.0275132 L12.1608466,15.8645503 L11.394709,15.8645503 L11.394709,18.0952381 Z" id="Shape"></path>
                <path d="M14.2814815,17.837037 C14.6455026,17.7439153 14.9714286,17.4814815 14.9714286,16.8973545 C14.9714286,16.2666667 14.6116402,15.8603175 13.8328042,15.8603175 L12.5291005,15.8603175 L12.5291005,19.3100529 L13.2825397,19.3100529 L13.2825397,16.5079365 L13.7142857,16.5079365 C14.0656085,16.5079365 14.1968254,16.6518519 14.1968254,16.9227513 C14.1968254,17.2613757 14.0021164,17.384127 13.6380952,17.384127 L13.5153439,17.9216931 L14.3830688,19.3100529 L15.2507937,19.3100529 L14.2814815,17.837037 Z" id="Shape"></path>
                <path d="M7.23386243,0.0169312169 C5.24867725,0.0169312169 3.5047619,0.575661376 1.94708995,1.43068783 L1.94708995,5.82857143 C3.44550265,4.39365079 5.4984127,3.6952381 6.94179894,3.6952381 C8.54179894,3.6952381 9.67619048,4.54603175 9.67619048,6.12063492 C9.67619048,7.66560847 8.68571429,8.67724868 6.15873016,10.594709 L0.177777778,15.0857143 L6.36190476,15.0857143 L9.04126984,13.1936508 C12.647619,10.637037 14.2433862,8.91851852 14.2433862,5.7989418 C14.2433862,2.30687831 11.568254,0.0169312169 7.23386243,0.0169312169 Z" id="Shape"></path>
            </g>
        </g>
    </g>
</svg>