<?xml version="1.0" encoding="UTF-8"?>
<svg width="24px" height="24px" viewBox="0 0 24 24" version="1.1" xmlns="http://www.w3.org/2000/svg" xmlns:xlink="http://www.w3.org/1999/xlink">
    <!-- Generator: Sketch 50.2 (55047) - http://www.bohemiancoding.com/sketch -->
    <title>Atoms/Logos/RadioSRF4_Square</title>
    <desc>Created with Sketch.</desc>
    <defs></defs>
    <g id="Atoms/Logos/RadioSRF4_Square" stroke="none" stroke-width="1" fill="none" fill-rule="evenodd">
        <g id="4-News">
            <polygon id="Path" fill="#AF1121" points="0 0 0 23.9957672 23.9957672 23.9957672 23.9957672 0"></polygon>
            <polygon id="Path" fill="#FFFFFF" points="12.0126984 8.22010582 8.04656085 14.0148148 12.0126984 14.0148148 12.0126984 17.5661376 5.62116402 17.5661376 3.67407407 14.4465608 12.0126984 2.33227513"></polygon>
            <polygon id="Path" fill="#FFFFFF" points="17.9047619 18.6539683 14.7555556 20.5587302 17.9047619 20.5587302 17.9047619 21.5957672 12.8804233 21.5957672 12.8804233 20.5375661 16.0761905 18.6497354 12.8804233 18.6497354 12.8804233 17.6084656 17.9047619 17.6084656"></polygon>
            <polygon id="Path" fill="#FFFFFF" points="17.9047619 16.6857143 12.8804233 16.6857143 12.8804233 13.4391534 13.8582011 13.4391534 13.8582011 15.5386243 14.8571429 15.5386243 14.8571429 13.6507937 15.826455 13.6507937 15.826455 15.5386243 16.9227513 15.5386243 16.9227513 13.3206349 17.9005291 13.4391534 17.9005291 16.6857143"></polygon>
            <polygon id="Path" fill="#FFFFFF" points="17.9047619 8.72380952 14.3661376 9.53650794 17.9047619 10.3661376 17.9047619 11.5386243 12.8804233 12.8 12.8804233 11.5301587 16.4486772 10.8825397 12.8804233 10.0444444 12.8804233 8.96084656 16.4486772 8.11851852 12.8804233 7.47513228 12.8804233 6.25608466 17.9047619 7.53439153"></polygon>
            <path d="M17.9470899,5.07089947 C17.9005291,5.34603175 17.8624339,5.54920635 17.8285714,5.68888889 C17.794709,5.82433862 17.773545,5.9005291 17.7693122,5.90899471 L16.8592593,5.73121693 C16.9354497,5.44761905 16.9862434,5.18518519 17.0201058,4.94814815 C17.0539683,4.71111111 17.0666667,4.49100529 17.0666667,4.3005291 C17.0666667,3.97883598 17.0285714,3.75026455 16.9481481,3.61904762 C16.8677249,3.48783069 16.7153439,3.42433862 16.4910053,3.42433862 C16.2962963,3.42433862 16.1608466,3.47936508 16.0888889,3.58518519 C16.0126984,3.69100529 15.9534392,3.84761905 15.9026455,4.05079365 L15.7756614,4.5968254 C15.6825397,4.9989418 15.5132275,5.3037037 15.2719577,5.5026455 C15.0306878,5.70582011 14.7047619,5.8031746 14.2899471,5.8031746 C14.0571429,5.8031746 13.8455026,5.76931217 13.6592593,5.6973545 C13.4730159,5.62962963 13.3121693,5.51957672 13.1809524,5.36719577 C13.0497354,5.21904762 12.9481481,5.02857143 12.8804233,4.8 C12.8126984,4.57142857 12.7746032,4.2962963 12.7746032,3.97883598 C12.7746032,3.52592593 12.8465608,3.00952381 12.9904762,2.43386243 L13.8624339,2.59047619 C13.815873,2.76825397 13.7777778,2.98835979 13.7481481,3.24656085 C13.7142857,3.5047619 13.7015873,3.74603175 13.7015873,3.96190476 C13.7015873,4.16931217 13.7396825,4.34285714 13.8116402,4.48253968 C13.8835979,4.61798942 14.0275132,4.68994709 14.247619,4.68994709 C14.4253968,4.68994709 14.5566138,4.63915344 14.637037,4.54179894 C14.7174603,4.44021164 14.7767196,4.31322751 14.8148148,4.15238095 L14.9502646,3.56825397 C15.0645503,3.08571429 15.2465608,2.74708995 15.4920635,2.55238095 C15.7375661,2.35767196 16.0592593,2.26031746 16.4529101,2.26031746 C16.8550265,2.26031746 17.1809524,2.35767196 17.426455,2.55238095 C17.6719577,2.74708995 17.8328042,2.99259259 17.9047619,3.2973545 C17.9767196,3.5978836 18.0148148,3.88994709 18.0190476,4.17354497 C18.0148148,4.4994709 17.9936508,4.8 17.9470899,5.07089947 Z" id="Path" fill="#FFFFFF"></path>
        </g>
    </g>
</svg>