<?xml version="1.0" encoding="UTF-8"?>
<svg width="24px" height="24px" viewBox="0 0 24 24" version="1.1" xmlns="http://www.w3.org/2000/svg" xmlns:xlink="http://www.w3.org/1999/xlink">
    <!-- Generator: Sketch 50.2 (55047) - http://www.bohemiancoding.com/sketch -->
    <title>Atoms/Logos/RadioSRF3_Square</title>
    <desc>Created with Sketch.</desc>
    <defs>
        <linearGradient x1="47.8233623%" y1="50.0080946%" x2="98.8748224%" y2="50.0080946%" id="linearGradient-1">
            <stop stop-color="#808080" offset="0%"></stop>
            <stop stop-color="#BFBFBF" offset="100%"></stop>
        </linearGradient>
        <linearGradient x1="50%" y1="0%" x2="50%" y2="99.7764632%" id="linearGradient-2">
            <stop stop-color="#FFFFFF" stop-opacity="0.05" offset="0%"></stop>
            <stop stop-color="#FFFFFF" stop-opacity="0.25" offset="100%"></stop>
        </linearGradient>
    </defs>
    <g id="Atoms/Logos/RadioSRF3_Square" stroke="none" stroke-width="1" fill="none" fill-rule="evenodd">
        <g id="3">
            <polyline id="BG" fill="#000000" fill-rule="nonzero" points="23.9957672 23.9957672 0 23.9957672 0 0 23.9957672 0 23.9957672 23.9957672"></polyline>
            <path d="M8.83386243,4.52910053 L8.4952381,2.97989418 C7.85185185,3.71216931 7.36931217,4.58835979 7.0984127,5.55767196 L7.43703704,6.94603175 C7.70793651,6.03597884 8.19047619,5.21481481 8.83386243,4.52910053 Z" id="Shape" fill="#E5E5E5" fill-rule="nonzero"></path>
            <polyline id="Shape" fill="#E5E5E5" fill-rule="nonzero" points="11.505291 13.9174603 11.005291 13.189418 11.005291 10.1714286 11.505291 11.0941799 11.505291 13.9174603"></polyline>
            <path d="M16.1608466,7.6952381 C16.0846561,9.06666667 14.962963,10.1714286 13.5830688,10.1714286 L11.0010582,10.1714286 L11.2,11.0941799 L13.7820106,11.0941799 C15.2084656,11.0941799 16.3640212,9.98518519 16.3640212,8.63915344 C16.3640212,8.3047619 16.2920635,7.98730159 16.1608466,7.6952381 Z" id="Shape" fill="url(#linearGradient-1)" fill-rule="nonzero"></path>
            <path d="M3.71216931,17.2021164 C3.71216931,16.7407407 3.75449735,16.2920635 3.83068783,15.8518519 L3.69100529,15.3312169 C3.61481481,15.7883598 3.57248677,16.2582011 3.57248677,16.7365079 C3.57248677,17.8624339 3.7968254,18.9375661 4.20740741,19.9195767 C3.88571429,19.0687831 3.71216931,18.1544974 3.71216931,17.2021164 Z" id="Shape" fill="#E5E5E5"></path>
            <polygon id="Shape" fill="#BFBFBF" fill-rule="nonzero" points="8.4952381 2.97566138 8.83386243 4.52910053 18.7301587 4.52910053 18.3915344 2.97566138"></polygon>
            <path d="M20.1608466,7.06031746 L19.8603175,5.82857143 C19.6063492,4.75343915 19.0941799,3.77989418 18.3915344,2.97989418 L18.7301587,4.52910053 C19.3989418,5.24444444 19.8984127,6.10793651 20.1608466,7.06031746 Z" id="Shape" fill="#B2B2B2" fill-rule="nonzero"></path>
            <polygon id="Shape" fill="#8C8C8C" points="3.68677249 15.3312169 3.83068783 15.8518519 8.85079365 15.8518519 8.71111111 15.3312169"></polygon>
            <path d="M19.1619048,12.237037 C19.7121693,12.9100529 20.1566138,13.6677249 20.4613757,14.4846561 C20.2074074,13.6169312 19.8010582,12.8084656 19.2719577,12.0846561 C19.2380952,12.1354497 19.2,12.1862434 19.1619048,12.237037 Z" id="Shape" fill="#666666" fill-rule="nonzero"></path>
            <path d="M10.8486772,20.173545 L5.1005291,21.6296296 C4.22010582,20.3555556 3.70793651,18.8359788 3.70793651,17.2021164 C3.70793651,16.7407407 3.75026455,16.2920635 3.82645503,15.8518519 L8.84656085,15.8518519 L8.84656085,17.2952381 L8.85079365,17.2952381 C8.89312169,18.5693122 9.6973545,19.6613757 10.8486772,20.173545 Z M11.2677249,8.08888889 C11.5343915,7.00952381 12.5544974,6.20529101 13.7777778,6.20529101 C15.2042328,6.20529101 16.3597884,7.29312169 16.3597884,8.63915344 C16.3597884,9.98518519 15.2042328,11.0941799 13.7777778,11.0941799 L11.1957672,11.0941799 L11.1957672,13.9174603 L12.4486772,13.9174603 L12.4486772,13.9216931 C14.3153439,13.9809524 15.8137566,15.4285714 15.8137566,17.2021164 C15.8137566,17.8962963 15.5851852,18.5396825 15.1957672,19.0730159 L20.9439153,17.6169312 C20.952381,17.4814815 20.9566138,17.3417989 20.9566138,17.2021164 C20.9566138,15.3312169 20.2835979,13.6084656 19.157672,12.2328042 C19.9238095,11.2169312 20.3724868,9.97671958 20.3724868,8.63492063 C20.3724868,7.06031746 19.7502646,5.61693122 18.7259259,4.52063492 L8.83386243,4.52063492 C8.19047619,5.20634921 7.70793651,6.02751323 7.43703704,6.93333333 L11.2677249,8.08888889 Z" id="Shape" fill="#FFFFFF"></path>
            <polygon id="Page-1" fill="url(#linearGradient-2)" points="0 0 0 14.7026197 23.9547465 8.81188732 23.9547465 0"></polygon>
        </g>
    </g>
</svg>