<?xml version="1.0" encoding="UTF-8"?>
<svg width="80px" height="80px" viewBox="0 0 80 80" version="1.1" xmlns="http://www.w3.org/2000/svg" xmlns:xlink="http://www.w3.org/1999/xlink">
    <!-- Generator: Sketch 50.2 (55047) - http://www.bohemiancoding.com/sketch -->
    <title>Atoms/Logos/RadioSRFVirus_Square</title>
    <desc>Created with Sketch.</desc>
    <defs></defs>
    <g id="Atoms/Logos/RadioSRFVirus_Square" stroke="none" stroke-width="1" fill="none" fill-rule="evenodd">
        <g id="Virus">
            <polygon id="Path" fill="#A5FF00" points="0 0 0 23.9957672 23.9957672 23.9957672 23.9957672 0"></polygon>
            <path d="M6.34920635,20.9396825 L2.4,3.61481481 L4.47830688,3.61904762 C6.12910053,3.63597884 7.55978836,4.71534392 7.83068783,6.26455026 L11.3269841,20.9396825 L6.34920635,20.9396825 Z" id="Path" fill="#FFFFFF"></path>
            <path d="M17.6465608,20.9396825 L12.6687831,20.9396825 L16.1650794,6.26455026 C16.4359788,4.71111111 17.8666667,3.63174603 19.5174603,3.61904762 L21.5957672,3.61481481 L17.6465608,20.9396825 Z" id="Path" fill="#FFFFFF"></path>
            <path d="M17.210582,19.4751323 L15.6359788,19.4920635 C15.4708995,19.4835979 15.3269841,19.6021164 15.2888889,19.7714286 L15.242328,19.9830688 L17.0962963,19.9830688 L17.210582,19.4751323 Z" id="Shape" fill="#A5FF00" fill-rule="nonzero"></path>
            <path d="M15.6402116,18.2391534 C15.6021164,18.4084656 15.6783069,18.5777778 15.8306878,18.6412698 L17.2402116,19.3354497 L17.3544974,18.8275132 L15.6825397,18.0232804 L15.6402116,18.2391534 Z" id="Shape" fill="#A5FF00" fill-rule="nonzero"></path>
            <rect id="Rectangle-path" fill="#A5FF00" fill-rule="nonzero" transform="translate(16.676662, 17.767515) rotate(-77.161703) translate(-16.676662, -17.767515) " x="16.4523232" y="16.8638126" width="1" height="1.80740546"></rect>
            <path d="M17.1301587,16.152381 C17.1132275,16.0846561 17.0708995,16.021164 17.0074074,15.9619048 C16.9439153,15.9026455 16.8592593,15.8645503 16.7534392,15.8391534 C16.5883598,15.8010582 16.4444444,15.8222222 16.3259259,15.8984127 C16.2074074,15.9746032 16.1227513,16.1185185 16.0761905,16.3216931 L15.9195767,17.015873 L17.6804233,17.4179894 L17.7777778,16.9862434 L16.3809524,16.6687831 L16.4275132,16.4698413 C16.4486772,16.3851852 16.4783069,16.3301587 16.5121693,16.3047619 C16.5502646,16.2793651 16.6010582,16.2751323 16.6603175,16.2878307 C16.7365079,16.3047619 16.7873016,16.3386243 16.8084656,16.389418 C16.8296296,16.4402116 16.8296296,16.5121693 16.8084656,16.605291 L16.8042328,16.6222222 L17.0835979,16.757672 L17.8962963,16.4613757 L18.010582,15.9619048 L17.1513228,16.2962963 C17.1513228,16.2497354 17.1428571,16.2031746 17.1301587,16.152381 Z" id="Shape" fill="#A5FF00" fill-rule="nonzero"></path>
            <path d="M17.6253968,14.7555556 C17.6888889,14.768254 17.7396825,14.789418 17.7862434,14.8190476 C17.8285714,14.8444444 17.8539683,14.8783069 17.8666667,14.9206349 C17.8793651,14.962963 17.8793651,15.0179894 17.8624339,15.0899471 C17.8539683,15.1322751 17.837037,15.1746032 17.8201058,15.2126984 C17.8031746,15.2465608 17.7693122,15.2719577 17.7185185,15.2888889 C17.6677249,15.3058201 17.5957672,15.3015873 17.5068783,15.2804233 L16.3724868,15.0222222 L16.2708995,15.4582011 L17.3671958,15.7079365 C17.5026455,15.7375661 17.621164,15.7502646 17.7185185,15.7375661 C17.815873,15.7248677 17.9005291,15.6952381 17.9640212,15.6486772 C18.031746,15.6021164 18.0867725,15.5343915 18.1248677,15.4539683 C18.162963,15.373545 18.1968254,15.2761905 18.2222222,15.1703704 C18.247619,15.0603175 18.2603175,14.962963 18.2560847,14.8740741 C18.2560847,14.7809524 18.2349206,14.7005291 18.1925926,14.6285714 C18.1544974,14.5566138 18.0910053,14.4931217 18.010582,14.442328 C17.9301587,14.3915344 17.8201058,14.3492063 17.6846561,14.3195767 L16.5883598,14.0698413 L16.4867725,14.5058201 L17.6253968,14.7555556 Z" id="Shape" fill="#A5FF00" fill-rule="nonzero"></path>
            <path d="M17.8116402,12.8592593 C17.7100529,12.9100529 17.6169312,13.015873 17.5365079,13.1724868 L17.447619,13.3587302 C17.4222222,13.405291 17.3925926,13.4433862 17.362963,13.4687831 C17.3333333,13.4941799 17.2910053,13.4984127 17.2359788,13.4857143 C17.168254,13.4687831 17.1301587,13.4433862 17.1174603,13.3968254 C17.1047619,13.3502646 17.1047619,13.2910053 17.1216931,13.2232804 C17.1386243,13.1513228 17.1640212,13.0708995 17.1936508,12.9862434 C17.2232804,12.9015873 17.2529101,12.8296296 17.2825397,12.7746032 L17.2952381,12.7534392 L16.9693122,12.6137566 L16.9608466,12.6306878 C16.8677249,12.8169312 16.8,12.9904762 16.7661376,13.1470899 C16.7407407,13.2571429 16.7322751,13.3587302 16.7365079,13.4433862 C16.7407407,13.5280423 16.7619048,13.6042328 16.8,13.6719577 C16.8338624,13.7354497 16.8846561,13.7904762 16.9439153,13.8285714 C17.0031746,13.8666667 17.0751323,13.8962963 17.1597884,13.9174603 C17.3037037,13.9513228 17.4306878,13.9428571 17.5322751,13.8878307 C17.6338624,13.837037 17.7185185,13.7396825 17.7862434,13.6084656 L17.8708995,13.4306878 C17.9005291,13.3671958 17.9343915,13.3206349 17.9640212,13.2910053 C17.9936508,13.2656085 18.0359788,13.2613757 18.0952381,13.2740741 C18.162963,13.2910053 18.205291,13.3164021 18.2179894,13.362963 C18.2349206,13.4095238 18.2306878,13.4857143 18.205291,13.5915344 C18.1883598,13.6550265 18.1671958,13.7312169 18.1375661,13.8074074 C18.1079365,13.8835979 18.0698413,13.968254 18.0232804,14.0613757 L18.010582,14.0825397 L18.3449735,14.2306878 L18.357672,14.2179894 C18.3619048,14.2137566 18.3619048,14.2095238 18.3957672,14.1417989 C18.4169312,14.0994709 18.4465608,14.0275132 18.4846561,13.9386243 C18.5227513,13.8497354 18.552381,13.7439153 18.5777778,13.6338624 C18.5989418,13.5365079 18.6074074,13.4306878 18.6074074,13.3206349 C18.6074074,13.2063492 18.5693122,13.1047619 18.4973545,13.015873 C18.4253968,12.9269841 18.3153439,12.8634921 18.1756614,12.8338624 C18.0359788,12.8 17.9132275,12.8126984 17.8116402,12.8592593 Z" id="Shape" fill="#A5FF00" fill-rule="nonzero"></path>
        </g>
    </g>
</svg>