<?xml version="1.0" encoding="UTF-8"?>
<svg width="80px" height="80px" viewBox="0 0 80 80" version="1.1" xmlns="http://www.w3.org/2000/svg" xmlns:xlink="http://www.w3.org/1999/xlink">
    <!-- Generator: Sketch 50.2 (55047) - http://www.bohemiancoding.com/sketch -->
    <title>Atoms/Logos/RadioSRFMusikwelle_Square</title>
    <desc>Created with Sketch.</desc>
    <defs></defs>
    <g id="Atoms/Logos/RadioSRFMusikwelle_Square" stroke="none" stroke-width="1" fill="none" fill-rule="evenodd">
        <g id="Musikwelle" fill-rule="nonzero">
            <rect id="Rectangle-path" fill="#0082C8" x="0" y="0" width="23.9957672" height="23.9957672"></rect>
            <path d="M23.3777778,6.06560847 C23.5047619,5.47724868 23.1068783,5.02010582 22.615873,4.9989418 C22.0359788,4.97354497 21.3079365,5.44761905 20.4359788,7.10687831 C19.0603175,6.71322751 18.6539683,5.18518519 19.2042328,4.31322751 C19.6825397,3.55555556 20.431746,3.6952381 20.5291005,4.15238095 C20.5544974,4.27936508 20.5417989,4.41904762 20.4783069,4.44444444 C20.3809524,4.48253968 20.2878307,4.36825397 20.1227513,4.36825397 C19.8391534,4.36825397 19.6275132,4.6010582 19.6275132,4.89312169 C19.6275132,5.18095238 19.8984127,5.41798942 20.1820106,5.41798942 C21.1132275,5.41798942 21.2402116,4.14814815 20.7365079,3.64444444 C20.2031746,3.10687831 19.0941799,3.11111111 18.5608466,4 C17.6846561,5.45185185 18.8783069,7.04338624 20.3513228,7.28042328 C20.0634921,7.85185185 19.8772487,8.24973545 19.5597884,9.11322751 C19.3354497,9.71851852 18.831746,10.3492063 18.5862434,10.3492063 C18.3746032,10.3492063 18.3492063,10.0148148 18.5142857,9.62116402 L18.962963,8.56719577 C19.0857143,8.31322751 19.0433862,8.23280423 18.9079365,8.23280423 L18.0698413,8.23280423 C18.0190476,8.23280423 18.0021164,8.26666667 18.031746,8.30899471 C18.0529101,8.34285714 18.0825397,8.41481481 18.0529101,8.48677249 L17.773545,9.12592593 C17.5365079,9.67619048 17.1978836,10.1037037 16.9777778,10.3153439 C17.2232804,9.84126984 16.9185185,9.18518519 16.8253968,8.92698413 C16.6560847,8.45714286 16.8677249,8.32592593 16.8973545,8.3047619 C16.952381,8.27089947 16.952381,8.22433862 16.8973545,8.22433862 L16.0592593,8.22433862 C15.9492063,8.22433862 15.8730159,8.31746032 15.8391534,8.44444444 C15.7291005,8.7957672 15.5555556,9.15978836 15.3566138,9.47724868 C15.2973545,9.45185185 15.2338624,9.43492063 15.1619048,9.43492063 C14.8656085,9.43492063 14.6328042,9.7015873 14.6328042,10.0783069 C14.6328042,10.1417989 14.637037,10.2010582 14.6455026,10.2603175 C14.4888889,10.357672 14.3407407,10.3957672 14.2095238,10.3492063 C14.0063492,10.2772487 13.9724868,10.0148148 14.1375661,9.62116402 L14.5862434,8.56719577 C14.7089947,8.31322751 14.6666667,8.23280423 14.5312169,8.23280423 L13.6931217,8.23280423 C13.642328,8.23280423 13.6253968,8.26666667 13.6550265,8.30899471 C13.6761905,8.34285714 13.7058201,8.41481481 13.6761905,8.48677249 L13.3671958,9.2021164 C13.3671958,9.2021164 13.3671958,9.2021164 13.3671958,9.2021164 L13.2740741,9.41375661 C13.015873,9.95978836 12.605291,10.4253968 12.3386243,10.3492063 C12.1312169,10.2899471 12.1015873,10.0148148 12.2666667,9.62116402 L12.7153439,8.56719577 C12.8380952,8.31322751 12.7957672,8.23280423 12.6603175,8.23280423 L11.8222222,8.23280423 C11.7714286,8.23280423 11.7544974,8.26666667 11.784127,8.30899471 C11.805291,8.34285714 11.8349206,8.41481481 11.805291,8.48677249 L11.4031746,9.41798942 C10.9502646,10.4507937 11.178836,11.1407407 11.7925926,11.178836 C12.2201058,11.2042328 12.6730159,10.8867725 13.0328042,10.3703704 C13.0285714,10.8571429 13.2613757,11.1534392 13.6592593,11.178836 C14.0063492,11.2 14.3957672,10.9756614 14.7555556,10.6285714 C14.9798942,11.0349206 15.4539683,11.157672 15.8137566,11.157672 C16.6306878,11.157672 17.1132275,10.6878307 17.405291,10.2306878 C17.3544974,10.810582 17.5153439,11.1746032 17.9470899,11.1746032 C18.357672,11.1746032 18.8444444,10.7216931 19.1195767,10.3280423 L18.8740741,11.0222222 C18.8529101,11.0814815 18.8571429,11.1280423 18.9291005,11.1280423 L19.7798942,11.1280423 C19.8306878,11.1280423 19.8730159,11.1026455 19.8984127,11.026455 L20.3005291,9.85396825 C20.605291,8.97777778 21.405291,8.52486772 21.5449735,8.85079365 C21.752381,9.34603175 21.0074074,9.77354497 20.5714286,9.73544974 C20.5291005,9.73121693 20.4867725,9.73968254 20.4825397,9.77777778 C20.4740741,9.81587302 20.5164021,9.84126984 20.5544974,9.85396825 C21.0455026,10.0148148 20.7195767,11.0814815 21.6846561,11.1619048 C22.789418,11.2550265 23.1534392,10.0444444 23.1619048,9.82010582 C23.1661376,9.7015873 23.0984127,9.64656085 23.0433862,9.81164021 C22.9037037,10.2137566 22.573545,10.4931217 22.247619,10.4719577 C21.8412698,10.4465608 21.9851852,9.91746032 21.6126984,9.76507937 C22.3195767,9.63809524 22.8698413,9.0031746 22.5185185,8.4021164 C22.2772487,7.98730159 21.3121693,8.07195767 20.6687831,8.82116402 C20.8,8.46984127 21.0074074,7.92804233 21.2275132,7.37354497 C22.2687831,7.42433862 23.2042328,6.86137566 23.3777778,6.06560847 Z M21.8793651,5.87089947 C22.226455,5.17248677 22.810582,5.14708995 22.8148148,5.70582011 C22.8190476,6.26455026 22.2984127,7.09417989 21.2952381,7.2042328 C21.4941799,6.70899471 21.7015873,6.21798942 21.8793651,5.87089947 Z M16.173545,10.0190476 C16.152381,10.3492063 15.978836,10.7724868 15.5301587,10.7724868 C15.221164,10.7724868 15.1026455,10.5396825 15.0687831,10.3619048 C15.1111111,10.3703704 15.1449735,10.3703704 15.1619048,10.3703704 C15.415873,10.3703704 15.6232804,10.162963 15.6232804,9.9047619 C15.6232804,9.8031746 15.589418,9.71851852 15.5470899,9.64656085 C15.6825397,9.41375661 15.7968254,9.21481481 15.8814815,8.98201058 C15.9873016,9.31216931 16.2031746,9.54497354 16.173545,10.0190476 Z" id="Shape" fill="#FFFFFF"></path>
            <path d="M16.5883598,5.23597884 C17.0793651,5.1047619 17.6550265,5.43492063 17.8582011,6.26455026 C17.8624339,6.27724868 17.8539683,6.28994709 17.8455026,6.28994709 C17.837037,6.28994709 17.8412698,6.27724868 17.837037,6.26455026 C17.4984127,5.37566138 16.8084656,5.46878307 16.6687831,5.51534392 C16.1439153,5.68042328 16.1989418,6.4042328 16.4656085,6.42962963 C16.5714286,6.44232804 16.5798942,6.34920635 16.5502646,6.2984127 C16.4613757,6.2010582 16.4825397,5.99365079 16.6560847,5.95555556 C16.8253968,5.91746032 16.9312169,6.07830688 16.952381,6.18412698 C16.973545,6.29417989 16.9481481,6.52275132 16.6687831,6.5989418 C15.9195767,6.8021164 15.6825397,5.47724868 16.5883598,5.23597884 Z" id="Shape" fill="#FFFFFF"></path>
            <path d="M2.58201058,7.06031746 C4.35555556,7.06031746 4.73650794,8.73650794 3.81798942,9.70582011 C3.13650794,10.421164 2.06984127,10.1502646 2.06984127,9.41375661 C2.06984127,9.01587302 2.35767196,8.73227513 2.73439153,8.73227513 C3.02222222,8.73227513 3.35238095,8.95661376 3.35238095,9.43068783 C3.35238095,9.59153439 3.47936508,9.54074074 3.54285714,9.46878307 C3.93227513,9.03703704 3.76296296,7.4031746 2.47195767,7.4031746 C0.626455026,7.4031746 0.203174603,10.7216931 2.75132275,10.7216931 C5.61693122,10.7216931 6.26878307,4 8.42751323,4.51216931 C9.13439153,4.68148148 8.96084656,5.39259259 8.6984127,5.5026455 C8.48677249,5.5957672 8.28359788,5.36296296 8.43597884,5.28253968 C8.61375661,5.18941799 8.63492063,4.85925926 8.44021164,4.81693122 C7.42010582,4.58835979 8.03386243,7.4962963 7.85185185,9.16825397 C9.11746032,7.17037037 11.0603175,4.08042328 12.5502646,4.50793651 C13.2486772,4.70687831 13.0835979,5.38835979 12.821164,5.4984127 C12.6095238,5.59153439 12.4063492,5.35873016 12.5544974,5.27830688 C12.7322751,5.18518519 12.7492063,4.85502646 12.5587302,4.81269841 C11.8984127,4.66031746 11.0391534,7.36084656 10.7047619,8.5968254 C10.1968254,10.4804233 11.0518519,11.7714286 11.8179894,11.4878307 C11.9703704,11.4328042 11.9153439,11.5259259 11.8306878,11.610582 C11.5047619,11.9238095 10.810582,12.3259259 10.0740741,11.9746032 C8.77883598,11.3566138 9.26984127,8.34708995 10.3873016,6.13333333 C9.37142857,7.22539683 7.71640212,10.2222222 7.0984127,10.6878307 C6.55238095,11.1026455 6.20529101,10.8952381 6.3957672,10.5481481 C7.0010582,9.46455026 6.54814815,7.77566138 6.61587302,6.62433862 C6.01904762,7.83915344 5.02010582,11.5809524 2.66666667,11.5809524 C-0.613756614,11.5851852 -0.253968254,7.06031746 2.58201058,7.06031746 Z" id="Shape" fill="#FFFFFF"></path>
            <path d="M10.0190476,20.3132275 C9.14285714,20.3132275 9.1047619,19.0222222 9.84550265,19.0222222 C10.1375661,19.0222222 10.205291,19.2592593 10.205291,19.3693122 C10.205291,19.4793651 10.1333333,19.6571429 9.95978836,19.6571429 C9.78201058,19.6571429 9.72275132,19.4539683 9.79047619,19.3439153 C9.81164021,19.2888889 9.78201058,19.2 9.68465608,19.2338624 C9.43068783,19.3185185 9.38835979,20.0465608 10.1079365,20.0465608 C10.2306878,20.0465608 10.8994709,20.0465608 11.0560847,19.1026455 C11.0603175,19.0899471 11.0560847,19.0772487 11.0603175,19.0730159 C11.0687831,19.0730159 11.0772487,19.0814815 11.0772487,19.0941799 C11.0391534,19.9449735 10.5269841,20.3132275 10.0190476,20.3132275 Z" id="Shape" fill="#FFFFFF"></path>
            <path d="M9.25291005,18.3407407 C8.49100529,18.2095238 8.27513228,17.5449735 8.28783069,16.9100529 C7.65291005,17.9809524 6.4042328,18.5058201 5.66349206,18.3407407 C4.80846561,18.1544974 4.72380952,17.0962963 5.24867725,15.9534392 C5.63386243,15.1068783 6.65820106,13.2783069 6.17566138,12.4994709 C5.46031746,11.3439153 3.06031746,12.0846561 3.06455026,14.1417989 C3.06455026,14.8021164 3.66137566,15.6656085 4.53756614,15.242328 C4.62222222,15.2 4.70687831,15.0941799 4.55449735,15.047619 C4.1015873,14.9164021 4.00846561,14.5015873 4.08888889,14.226455 C4.19470899,13.8624339 4.54603175,13.6677249 4.92698413,13.7777778 C5.63809524,13.9851852 5.63809524,14.9968254 4.71957672,15.5386243 C3.96190476,15.9830688 2.74285714,15.7671958 2.42539683,14.8063492 C1.53650794,12.1100529 6.23492063,10.2518519 7.47513228,12.389418 C7.98730159,13.2740741 7.22539683,14.4634921 6.7005291,15.6275132 C6.34920635,16.4148148 6.11640212,17.2190476 6.55661376,17.3925926 C7.31851852,17.7015873 8.28359788,16.4190476 9.32063492,13.9259259 L9.66349206,13.1386243 C9.6973545,13.0666667 9.66349206,12.9904762 9.64232804,12.9608466 C9.61269841,12.9185185 9.62539683,12.8846561 9.68042328,12.8846561 L10.9206349,12.8846561 C11.0560847,12.8846561 11.0984127,12.9650794 10.9756614,13.2190476 L9.85396825,15.8306878 C9.48571429,16.6814815 9.53227513,17.3587302 10.031746,17.4349206 C11.6698413,17.6888889 13.0328042,12.973545 12.2116402,12.6095238 C11.9026455,12.4740741 11.7798942,12.8296296 11.7164021,12.7153439 C11.5851852,12.4698413 12.1185185,11.4835979 12.8,11.7206349 C14.2772487,12.2412698 12.0888889,18.8232804 9.25291005,18.3407407 Z" id="Shape" fill="#FFFFFF"></path>
            <path d="M12.9904762,21.5534392 C11.0518519,21.5534392 10.8148148,19.0010582 12.042328,17.7650794 C12.0592593,17.7481481 12.0804233,17.7354497 12.0931217,17.7439153 C12.1015873,17.7566138 12.0931217,17.773545 12.0761905,17.7989418 C10.8444444,19.4835979 11.9661376,21.1089947 13.0920635,21.1089947 C13.8751323,21.1089947 14.0275132,20.4190476 13.7904762,20.1185185 C13.7058201,20.0169312 13.5957672,20 13.578836,20.1185185 C13.5492063,20.3259259 13.4095238,20.4783069 13.1936508,20.4783069 C12.8465608,20.4783069 12.7153439,20.2116402 12.7153439,19.9703704 C12.7153439,19.7587302 12.8973545,19.3354497 13.4095238,19.3354497 C14.5566138,19.3354497 14.615873,21.5534392 12.9904762,21.5534392 Z" id="Shape" fill="#FFFFFF"></path>
            <path d="M21.8624339,16.7238095 C21.8539683,16.9439153 21.5492063,18.1714286 20.0719577,18.1714286 C19.6190476,18.1714286 19.1661376,17.8920635 19.0179894,17.362963 C18.7005291,17.7820106 18.2222222,18.1756614 17.6804233,18.1756614 C17.2783069,18.1756614 17.1174603,17.8243386 17.1132275,17.3968254 C16.7957672,17.7989418 16.3301587,18.1756614 15.805291,18.1756614 C15.3566138,18.1756614 15.2084656,17.7354497 15.242328,17.2402116 C14.8867725,17.7354497 14.3449735,18.1714286 13.5915344,18.1714286 C13.0412698,18.1714286 12.4867725,17.7566138 12.4867725,16.9777778 C12.4867725,15.2846561 14.5354497,14.6878307 15.0349206,15.4582011 C15.4116402,16.0380952 14.8740741,16.9989418 13.8455026,16.8761905 C13.7015873,16.8592593 13.6380952,16.8296296 13.642328,16.7873016 C13.6465608,16.7153439 13.7396825,16.7365079 13.8455026,16.7280423 C14.3830688,16.6899471 14.7047619,15.9238095 14.3957672,15.6359788 C14.1121693,15.373545 13.405291,15.8984127 13.4899471,16.8761905 C13.5322751,17.362963 13.7820106,17.5746032 14.0867725,17.5746032 C14.5904762,17.5746032 15.1492063,17.1005291 15.6148148,16.0677249 L16.8719577,13.1767196 C16.9058201,13.1047619 16.8761905,13.0285714 16.8507937,12.9989418 C16.821164,12.9566138 16.8338624,12.9227513 16.8888889,12.9227513 L17.8285714,12.9227513 C17.9640212,12.9227513 18.0063492,13.0031746 17.8835979,13.2571429 L16.4783069,16.4952381 C16.389418,16.7322751 16.215873,17.2867725 16.5460317,17.2867725 C16.8338624,17.2867725 17.0708995,16.973545 17.3037037,16.5037037 C17.3121693,16.4825397 17.3206349,16.4656085 17.3291005,16.4486772 L18.7513228,13.1809524 C18.7851852,13.1089947 18.7555556,13.0328042 18.7301587,13.0031746 C18.7005291,12.9608466 18.7174603,12.9269841 18.768254,12.9269841 L19.7079365,12.9269841 C19.8433862,12.9269841 19.8857143,13.0074074 19.762963,13.2613757 L18.357672,16.4994709 C18.2687831,16.7365079 18.0952381,17.2910053 18.4253968,17.2910053 C18.6285714,17.2910053 18.8063492,17.1343915 18.9756614,16.8761905 C19.0645503,15.2677249 21.0328042,14.7174603 21.5195767,15.4666667 C21.8962963,16.0465608 21.3587302,17.0074074 20.3301587,16.8846561 C20.1862434,16.8677249 20.1227513,16.8380952 20.1269841,16.7957672 C20.1312169,16.7238095 20.2243386,16.7449735 20.3301587,16.7365079 C20.8677249,16.6984127 21.189418,15.9322751 20.8804233,15.6444444 C20.5968254,15.3820106 19.8899471,15.9068783 19.9746032,16.8846561 C20.0719577,18.0232804 21.4560847,17.5661376 21.7439153,16.7280423 C21.7989418,16.5502646 21.8666667,16.6095238 21.8624339,16.7238095 Z" id="Shape" fill="#FFFFFF"></path>
            <path d="M18.3068783,7.50899471 C18.3407407,7.22962963 18.5989418,7.0010582 18.8825397,6.9968254 C19.1661376,6.99259259 19.3693122,7.21269841 19.3312169,7.49206349 C19.2973545,7.77142857 19.0391534,8 18.7555556,8.0042328 C18.4719577,8.00846561 18.2730159,7.78835979 18.3068783,7.50899471 Z" id="Shape" fill="#FFFFFF"></path>
        </g>
    </g>
</svg>