<?xml version="1.0" encoding="UTF-8"?>
<svg width="24px" height="24px" viewBox="0 0 24 24" version="1.1" xmlns="http://www.w3.org/2000/svg" xmlns:xlink="http://www.w3.org/1999/xlink">
    <!-- Generator: Sketch 50.2 (55047) - http://www.bohemiancoding.com/sketch -->
    <title>Atoms/Logos/RadioSwissClassic</title>
    <desc>Created with Sketch.</desc>
    <defs></defs>
    <g id="Atoms/Logos/RadioSwissClassic" stroke="none" stroke-width="1" fill="none" fill-rule="evenodd">
        <g id="Page-1">
            <polygon id="Fill-1" fill="#09A1DE" points="0 24 24 24 24 1.47104551e-15 0 1.47104551e-15"></polygon>
            <g id="Group-24" transform="translate(2.000000, 4.081515)" fill="#FFFFFF">
                <path d="M9.45836123,7.90139912 L10.7614449,11.123637 L8.15178855,11.123637 L9.45836123,7.90139912 Z M7.23989427,11.7381216 L6.45265198,13.679267 L7.02188546,13.9100687 L7.90269604,11.7379101 L11.0099031,11.7379101 L11.8882819,13.9098573 L12.4578326,13.6794784 L10.618185,9.13068546 C10.9989075,9.33537269 11.3677885,9.37385727 11.6665727,9.37385727 C12.1335683,9.37385727 12.6209692,9.15151366 12.9507313,8.75842115 C13.4469075,9.30069427 13.9798767,9.37385727 14.3601762,9.37385727 C15.0604053,9.37385727 15.8163524,8.79986608 15.8163524,7.87232423 C15.8163524,6.93854449 15.2814802,6.53752247 14.715207,6.11281762 C14.6292511,6.04853568 14.5405463,5.98203348 14.4501498,5.9108793 C13.759859,5.37008634 13.5182731,5.1389674 13.5182731,4.66837709 C13.5182731,4.29050925 13.8648458,4.01635947 14.3420969,4.01635947 C14.4495154,4.01635947 14.8150132,4.04649163 15.0108194,4.43556652 L15.5594361,4.15919648 C15.2782026,3.60085286 14.7462907,3.40198062 14.3420969,3.40198062 C13.5222907,3.40198062 12.904,3.94636828 12.904,4.66837709 C12.904,5.48004229 13.4191013,5.88360176 14.0711189,6.39436828 C14.1651101,6.46805991 14.2574097,6.53731101 14.3466432,6.6041304 C14.880141,7.00420088 15.2020793,7.24568106 15.2020793,7.87232423 C15.2020793,8.47761057 14.6995595,8.75958414 14.3601762,8.75958414 C14.027348,8.75958414 13.6407048,8.68768987 13.2682291,8.17914361 C13.3204581,8.01251806 13.3500617,7.8313022 13.3500617,7.63602467 C13.3500617,6.54767225 12.7210925,6.0761304 12.0553304,5.57720529 C11.952141,5.49970749 11.8455683,5.4198837 11.7367753,5.33445639 C10.9095683,4.68666784 10.5970396,4.38640352 10.5970396,3.79813921 C10.5970396,3.31031542 11.0377093,2.95634185 11.6448987,2.95634185 C11.7821322,2.95634185 12.2495507,2.99493216 12.4997004,3.49174273 L13.0483172,3.21579559 C12.72437,2.57170749 12.110837,2.34206872 11.6448987,2.34206872 C10.6973744,2.34206872 9.98287225,2.96818326 9.98287225,3.79813921 C9.98287225,4.74101145 10.5896388,5.21635947 11.3578502,5.8180511 C11.4702379,5.90601586 11.5801938,5.98858855 11.6866608,6.06841233 C12.3184846,6.54206872 12.7356828,6.85502026 12.7356828,7.63602467 C12.7356828,8.40254449 12.0978326,8.75958414 11.6665727,8.75958414 C11.1679648,8.75958414 10.58763,8.62700264 10.0621674,7.64236828 C9.97494273,7.47891454 9.87957709,7.28131101 9.77955947,7.05748722 L9.45920705,6.26495859 L7.48888106,11.1238485 L5.9581674,11.1238485 L5.9581674,8.06125815 C6.50371806,7.90192775 7.02156828,7.62481762 7.48962115,7.23584846 L7.09705727,6.76335507 C6.74498678,7.0562185 6.36077533,7.27454449 5.9581674,7.41590132 L5.9581674,4.60525815 L5.34378855,4.60525815 L5.34378855,7.56867665 C5.18297797,7.59267665 5.02037004,7.60536388 4.85638767,7.60536388 C2.95404405,7.60536388 1.34699559,6.02950485 1.34699559,4.16405991 C1.34699559,2.25579559 2.92560352,0.703302203 4.86590308,0.703302203 C5.67936564,0.703302203 6.48796476,1.02037709 7.0845815,1.57322291 L7.50209692,1.1227207 C6.79319824,0.465839648 5.8322467,0.088923348 4.86590308,0.088923348 C2.58696035,0.088923348 0.732828194,1.9170467 0.732828194,4.16405991 C0.732828194,6.36243877 2.62121586,8.219637 4.85638767,8.219637 C5.02015859,8.219637 5.18287225,8.20864141 5.34378855,8.18876476 L5.34378855,11.7381216 L7.23989427,11.7381216 Z" id="Fill-2"></path>
                <path d="M16.8878414,15.5186925 C15.3379912,15.5186925 14.0287753,14.2349568 14.0287753,12.7153445 C14.0287753,11.2792564 15.1889163,10.0529304 16.618978,9.91083348 L16.618978,12.6190273 L17.2333568,12.6190273 L17.2333568,9.92056035 C17.774467,9.99372335 18.3053216,10.2378467 18.7015859,10.6046132 L19.1191013,10.154111 C18.6038943,9.67685991 17.9309427,9.37564405 17.2333568,9.30121233 L17.2333568,6.56108899 L16.618978,6.56108899 L16.618978,9.29465727 C14.8284934,9.43421674 13.4143965,10.9146044 13.4143965,12.7153445 C13.4143965,14.5679965 15.0050573,16.1330714 16.8878414,16.1330714 C17.6875595,16.1330714 18.4548194,15.8464458 19.1066256,15.3041727 L18.7139559,14.8319965 C18.1736916,15.28123 17.5422907,15.5186925 16.8878414,15.5186925" id="Fill-4"></path>
                <path d="M16.567563,5.48588899 C16.567563,5.68359824 16.7283736,5.84440881 16.9261885,5.84440881 C17.1243207,5.84440881 17.2843912,5.68359824 17.2843912,5.48588899 C17.2843912,5.28743965 17.1243207,5.12684053 16.9261885,5.12684053 C16.7283736,5.12684053 16.567563,5.28743965 16.567563,5.48588899" id="Fill-6"></path>
            </g>
        </g>
    </g>
</svg>