<?xml version="1.0" encoding="utf-8"?>
<!-- Generator: Adobe Illustrator 16.0.4, SVG Export Plug-In . SVG Version: 6.00 Build 0)  -->
<!DOCTYPE svg PUBLIC "-//W3C//DTD SVG 1.1//EN" "http://www.w3.org/Graphics/SVG/1.1/DTD/svg11.dtd">
<svg version="1.1" id="Ebene_1" xmlns="http://www.w3.org/2000/svg" xmlns:xlink="http://www.w3.org/1999/xlink" x="0px" y="0px"
     width="279.976px" height="279.96px" viewBox="0 0 279.976 279.96" enable-background="new 0 0 279.976 279.96"
     xml:space="preserve">
<g>
	<g>
		<defs>
			<rect id="SVGID_1_" width="279.976" height="279.96"/>
		</defs>
        <clipPath id="SVGID_2_">
			<use xlink:href="#SVGID_1_"  overflow="visible"/>
		</clipPath>
        <polygon clip-path="url(#SVGID_2_)" fill="#AF001E" points="279.975,279.96 -0.024,279.96 -0.024,-0.04 279.975,-0.04
			279.975,279.96 		"/>
	</g>
    <path fill="#FFFFFF" d="M95.36,190.576l-0.749,3.073c-0.224,0.88-0.299,1.317-0.299,1.61c0,0.731,0.227,1.316,0.749,2.195
		l8.89,15.665c0.746,1.245,1.346,1.755,3.139,1.755h8.143c1.047,0,2.315-0.658,1.121-2.488l-10.908-17.712
		c3.661-2.269,7.77-5.489,7.77-12.591c0-9.147-5.23-14.273-16.736-14.273H79.821c-1.495,0-1.945,0.514-1.945,1.977v43.111
		c0,1.467,0.45,1.977,1.945,1.977h6.872c1.497,0,1.945-0.51,1.945-1.977v-36.377h7.096c4.481,0,6.648,1.611,6.648,5.711
		c0,3.731-1.718,4.903-3.436,5.635C96.78,188.746,96.031,187.794,95.36,190.576"/>
    <path fill="#FFFFFF" d="M180.599,190.576l-0.748,3.073c-0.224,0.88-0.3,1.317-0.3,1.61c0,0.731,0.227,1.316,0.749,2.195
		l8.89,15.665c0.746,1.245,1.346,1.755,3.139,1.755h8.143c1.047,0,2.315-0.658,1.121-2.488l-10.908-17.712
		c3.661-2.269,7.771-5.489,7.771-12.591c0-9.147-5.23-14.273-16.736-14.273H165.06c-1.495,0-1.945,0.514-1.945,1.977v43.111
		c0,1.467,0.45,1.977,1.945,1.977h6.872c1.496,0,1.944-0.51,1.944-1.977v-36.377h7.096c4.481,0,6.648,1.611,6.648,5.711
		c0,3.731-1.719,4.903-3.436,5.635C182.019,188.746,181.27,187.794,180.599,190.576"/>
    <path fill="#FFFFFF" d="M131.666,212.898c0,1.467,0.448,1.977,1.942,1.977h6.875c1.494,0,1.942-0.51,1.942-1.977v-36.155h12.701
		c1.494,0,1.942-0.514,1.942-1.977v-4.979c0-1.463-0.448-1.977-1.942-1.977h-36.16c-1.497,0-1.944,0.514-1.944,1.977v4.979
		c0,1.463,0.448,1.977,1.944,1.977h12.7V212.898L131.666,212.898z"/>
    <path fill="#FFFFFF" d="M189.026,112.937c1.662-2.306,3.364-4.548,4.936-6.878c2.934-4.345,5.875-8.689,8.639-13.141
		c1.131-1.82,1.888-3.889,2.672-5.9c0.9-2.306,1.638-4.674,2.457-7.011c0.137-0.389,0.31-0.771,0.506-1.134
		c0.504-0.931,0.89-2.104,2.109-2.216c1.587-0.146,3.143,0.163,4.467,1.164c0.558,0.422,0.426,0.97,0.238,1.531
		c-1.384,4.157-2.692,8.339-4.153,12.468c-2.074,5.858-4.446,11.619-6.351,17.53c-2.813,8.731-5.375,17.544-7.949,26.351
		c-1.22,4.174-2.266,8.401-3.306,12.625c-1.379,5.596-1.979,11.251-1.002,16.991c0.089,0.525,0.228,1.044,0.288,1.572
		c0.094,0.807-0.301,1.168-0.96,0.742c-0.977-0.631-1.967-1.353-2.688-2.247c-2.354-2.92-2.711-6.358-2.233-9.936
		c0.797-5.97,2.171-11.826,3.887-17.584c2.383-7.997,4.989-15.929,7.506-23.886c1.481-4.685,2.976-9.365,4.463-14.048
		c0.034-0.109,0.051-0.224-0.049-0.422c-0.357,0.495-0.74,0.974-1.068,1.488c-3.567,5.598-7.124,11.203-10.688,16.804
		c-2.924,4.597-5.696,9.301-8.838,13.746c-1.847,2.613-4.231,4.863-6.476,7.179c-1.196,1.235-2.774,1.874-4.51,2.14
		c-3.814,0.585-6.644-1.971-6.131-5.788c0.217-1.613,0.91-3.162,1.396-4.738c0.066-0.216,0.179-0.418,0.146-0.732
		c-0.745,0.678-1.475,1.374-2.237,2.032c-3.304,2.85-6.606,5.713-10.623,7.556c-1.126,0.516-2.312,0.959-3.518,1.236
		c-4.002,0.918-7.008-1.215-7.571-5.274c-0.408-2.939-0.013-5.776,1.02-8.549c0.357-0.958,0.603-1.958,0.899-2.938
		c-0.083-0.051-0.166-0.103-0.248-0.154c-0.428,0.487-0.889,0.948-1.276,1.464c-2.296,3.058-4.547,6.15-6.872,9.186
		c-1.355,1.77-2.879,3.396-4.82,4.562c-1.407,0.846-2.922,1.323-4.584,1.148c-1.899-0.199-2.68-0.992-2.664-2.878
		c0.008-0.962,0.25-1.924,0.419-2.88c0.06-0.339,0.215-0.662,0.375-1.135c-0.241,0.103-0.348,0.124-0.421,0.185
		c-5.353,4.447-11.397,7.778-17.536,10.992c-4.799,2.512-9.674,4.788-14.879,6.332c-6.632,1.966-13.395,2.795-20.255,1.815
		c-6.298-0.898-11.244-4.091-14.578-9.592c-0.244-0.402-0.482-0.808-0.817-1.368c-0.21,0.438-0.387,0.73-0.498,1.048
		c-1.326,3.769-2.848,7.485-3.895,11.331c-0.819,3.008-1.045,6.176-1.54,9.271c-0.098,0.612-0.199,1.226-0.34,1.829
		c-0.186,0.794-0.806,1.296-1.523,1.269c-0.561-0.021-1.377-0.384-1.598-0.831c-0.442-0.898-0.719-1.95-0.774-2.954
		c-0.174-3.188,0.412-6.309,1.101-9.408c1.726-7.761,4.247-15.289,6.93-22.751c5.159-14.345,10.48-28.633,15.743-42.942
		c0.887-2.412,1.817-4.809,2.733-7.211c0.073-0.192,0.182-0.373,0.289-0.55c0.54-0.891,0.75-0.947,1.623-0.432
		c1.626,0.959,3.105,2.077,4.134,3.704c0.552,0.873,0.615,1.731,0.188,2.692c-5.14,11.584-10.321,23.152-15.355,34.783
		c-1.584,3.659-2.773,7.488-4.116,11.248c-0.182,0.508-0.209,1.072-0.346,1.813c0.444-0.141,0.691-0.188,0.911-0.295
		c11.497-5.605,22.592-11.884,32.798-19.626c8.332-6.32,15.984-13.347,22.264-21.757c3.479-4.658,6.15-9.704,7.241-15.476
		c0.434-2.292,0.415-4.589,0.062-6.894c-0.645-4.208-3.229-6.604-7.161-7.856c-4.526-1.441-9.169-1.658-13.84-1.324
		c-10.9,0.778-21.522,3.057-31.811,6.652c-4.263,1.489-8.314,3.647-12.336,5.741c-8.787,4.573-17.22,9.74-24.692,16.279
		c-6.782,5.936-12.299,12.921-16.211,21.072c-2.726,5.677-2.805,11.485-0.392,17.301c0.348,0.838,0.825,1.648,1.37,2.375
		c0.935,1.248,1.845,1.395,3.272,0.753c0.809-0.364,1.626-0.738,2.478-0.973c1.875-0.517,3.999,0.715,4.605,2.571
		c0.237,0.723,0.063,1.2-0.594,1.646c-3.096,2.104-6.11,1.793-9.173-0.097c-6.78-4.184-9.844-11.485-8.052-19.474
		c1.392-6.203,4.358-11.688,8.026-16.808c6.769-9.447,15.274-17.076,25.001-23.388c9.828-6.377,20.516-10.787,31.88-13.557
		c5.013-1.222,10.056-2.362,15.137-3.247c6.131-1.068,12.335-1.466,18.545-0.647c4.713,0.622,9.172,1.948,12.88,5.125
		c5.547,4.752,7.664,10.645,6.042,17.818c-1.381,6.104-4.353,11.427-8.069,16.374c-5.957,7.931-13.286,14.421-21.459,19.983
		c-10.329,7.03-20.755,13.912-31.576,20.177c-1.31,0.758-2.667,1.437-3.952,2.232c-0.374,0.231-0.718,0.7-0.831,1.124
		c-0.497,1.861,0.028,3.342,1.559,4.637c3.247,2.748,7.064,3.915,11.18,4.374c5.324,0.594,10.513-0.096,15.507-1.954
		c6.589-2.453,13.181-4.916,19.665-7.63c6.116-2.56,11.814-5.952,17.345-9.6c0.421-0.278,0.704-0.779,1.017-1.202
		c1.779-2.405,3.464-4.883,5.341-7.208c1.993-2.468,3.724-2.812,6.713-1.672c0.583,0.222,1.167,0.441,1.734,0.699
		c0.779,0.355,1.355,0.238,1.95-0.449c1.461-1.689,3.204-2.831,5.606-2.377c1.155,0.219,1.578,0.64,1.727,1.808
		c0.257,2.022-0.593,3.823-1.122,5.696c-0.892,3.155-1.725,6.329-2.53,9.507c-0.157,0.618-0.122,1.297-0.101,1.945
		c0.051,1.572,0.812,2.323,2.406,2.34c1.912,0.02,3.573-0.812,5.195-1.685c3.112-1.674,5.626-4.145,8.369-6.312
		c4.363-3.446,8.233-7.418,12.242-11.245c2.498-2.385,5.226-4.481,8.495-5.761C185.745,112.115,187.133,112.086,189.026,112.937
		L189.026,112.937z M186.782,116.593c-0.066-0.105-0.133-0.209-0.199-0.315c-0.398,0.106-0.826,0.151-1.19,0.328
		c-2.039,0.985-3.97,2.14-5.526,3.818c-2.174,2.345-4.382,4.662-6.479,7.074c-1.633,1.876-3.171,3.854-3.977,6.258
		c-0.269,0.803-0.415,1.661-0.498,2.505c-0.035,0.355,0.146,0.857,0.41,1.067c0.158,0.125,0.704-0.124,1.007-0.313
		c0.422-0.266,0.803-0.61,1.161-0.961c5.485-5.368,10.296-11.283,14.409-17.759C186.24,117.757,186.49,117.162,186.782,116.593
		L186.782,116.593z M127.472,135.533c0.074,0.924,0.583,0.96,1.006,0.66c1.005-0.716,2.063-1.419,2.88-2.325
		c3.453-3.821,6.818-7.72,10.234-11.575c0.427-0.481,0.294-0.777-0.165-1.057c-0.902-0.549-1.874-0.486-2.844-0.26
		c-1.744,0.406-3.112,1.412-4.27,2.733c-2.498,2.851-4.463,6.04-6.014,9.483C127.938,133.996,127.708,134.857,127.472,135.533
		L127.472,135.533z"/>
    <path fill="#FFFFFF" d="M270.812,123.331c-0.502,0.472-0.961,1.003-1.514,1.405c-4.247,3.088-8.966,5.095-14.16,5.905
		c-0.909,0.142-1.272,0.507-1.579,1.319c-1.575,4.17-3.94,7.768-7.874,10.109c-0.829,0.493-1.755,0.897-2.689,1.133
		c-3.938,0.992-6.898-1.133-7.168-5.173c-0.1-1.491,0.067-2.999,0.114-4.563c-0.649,0.552-1.326,1.136-2.014,1.71
		c-3.339,2.788-6.862,5.298-10.945,6.897c-1.291,0.506-2.647,0.898-4.009,1.164c-3.69,0.721-6.771-1.045-8.289-4.698
		c-1.093-2.63-1.27-5.256-0.322-8.041c1.261-3.707,2.48-7.417,4.428-10.83c0.641-1.123,1.423-2.188,2.277-3.161
		c1.228-1.397,3.377-1.642,4.974-0.71c1.061,0.619,1.381,1.942,0.639,3.001c-0.729,1.042-1.565,2.011-2.333,3.028
		c-2.206,2.925-4.092,6.038-5.304,9.507c-0.724,2.071-0.919,4.232-0.485,6.394c0.369,1.839,1.386,2.584,3.254,2.377
		c2.64-0.293,5.049-1.294,7.308-2.654c4.491-2.704,8.516-6.033,12.54-9.359c0.261-0.216,0.435-0.552,0.609-0.855
		c1.138-1.975,2.089-4.085,3.438-5.903c1.598-2.153,3.48-4.107,5.339-6.053c1.686-1.765,3.68-1.042,5.049,0.054
		c1.129,0.904,1.03,1.831-0.027,2.796c-2.666,2.437-5.479,4.755-7.869,7.443c-3.263,3.671-4.533,8.25-4.836,13.086
		c-0.093,1.479,0.233,1.693,1.719,1.58c1.582-0.121,2.878-0.833,4.061-1.839c2.189-1.863,3.548-4.268,4.541-6.902
		c0.087-0.231-0.098-0.652-0.283-0.881c-0.818-1.012-1.711-1.965-2.522-2.982c-0.446-0.561-1.034-1.155-0.443-1.971
		c0.576-0.798,1.908-1.278,2.781-0.925c0.454,0.184,0.876,0.495,1.248,0.821c0.444,0.389,0.82,0.855,1.225,1.289
		c0.791,0.847,1.744,1.193,2.898,0.952c4.599-0.959,9.14-2.106,13.456-4.014c0.816-0.361,1.693-0.588,2.543-0.877
		C270.66,123.05,270.736,123.19,270.812,123.331L270.812,123.331z"/>
    <path fill="#FFFFFF" d="M220.307,107.652c0.28-0.793,0.575-1.582,0.837-2.381c0.237-0.724,0.45-1.457,0.652-2.191
		c0.271-0.988,0.49-1.154,1.338-0.633c1.178,0.725,2.341,1.502,3.392,2.396c0.973,0.828,0.768,1.463-0.377,1.971
		c-0.637,0.282-1.219,0.697-1.801,1.089c-0.639,0.428-1.217,0.949-1.877,1.337c-1.094,0.643-1.689,0.339-1.939-0.915
		c-0.04-0.202-0.051-0.409-0.075-0.614C220.407,107.692,220.357,107.672,220.307,107.652L220.307,107.652z"/>
</g>
</svg>
