<?xml version="1.0" encoding="UTF-8"?>
<svg width="24px" height="24px" viewBox="0 0 24 24" version="1.1" xmlns="http://www.w3.org/2000/svg" xmlns:xlink="http://www.w3.org/1999/xlink">
    <!-- Generator: Sketch 50.2 (55047) - http://www.bohemiancoding.com/sketch -->
    <title>Atoms/Logos/RadioSwissPop</title>
    <desc>Created with Sketch.</desc>
    <defs></defs>
    <g id="Atoms/Logos/RadioSwissPop" stroke="none" stroke-width="1" fill="none" fill-rule="evenodd">
        <g id="Page-1">
            <polygon id="Fill-1" fill="#F01F73" points="0 24 24 24 24 0 0 0"></polygon>
            <g id="Group-20" transform="translate(4.969163, 4.416211)" fill="#FFFFFF">
                <path d="M0.668331278,0.717219383 L3.33222555,0.717219383 C4.36041938,0.717219383 5.1969304,1.55394185 5.1969304,2.58255859 C5.1969304,3.6106467 4.36031366,4.44715771 3.3320141,4.44715771 L0.668331278,4.44715771 L0.668331278,0.717219383 Z M5.81130925,2.58255859 C5.81130925,1.21519295 4.69906256,0.102946256 3.33222555,0.102946256 L0.0541638767,0.102946256 L0.0541638767,8.76113128 L0.668331278,8.76113128 L0.668331278,5.06132511 L3.3320141,5.06132511 C4.69895683,5.06132511 5.81130925,3.94928987 5.81130925,2.58255859 Z" id="Fill-18"></path>
                <path d="M13.4896705,9.43137621 C13.1376,9.78334097 12.6694414,9.97713833 12.1716793,9.97713833 L12.1711507,9.97713833 L9.50757357,9.97713833 L9.50736211,6.24751718 L12.1711507,6.24751718 C13.1993445,6.24751718 14.0359612,7.08423965 14.0359612,8.11275066 C14.0359612,8.61072423 13.8419524,9.07909427 13.4896705,9.43137621 M6.80392599,10.898548 C6.28607577,11.4168211 5.59758238,11.7022837 4.8646837,11.7022837 C4.13199648,11.7022837 3.44308018,11.4168211 2.9250185,10.898548 C2.4068511,10.3804863 2.12149427,9.6917815 2.12149427,8.95909427 C2.12149427,8.22651278 2.4068511,7.5377022 2.9250185,7.01974626 C3.44308018,6.50168458 4.13199648,6.21632775 4.8646837,6.21632775 C5.59758238,6.21632775 6.28607577,6.50168458 6.80403172,7.01985198 C7.32230485,7.53780793 7.60766167,8.22651278 7.60766167,8.95909427 C7.60766167,9.6917815 7.32230485,10.3804863 6.80392599,10.898548 M12.1711507,5.63313833 L8.89308899,5.63313833 L8.89319471,9.97713833 L8.06461322,9.97713833 C8.16769692,9.65213392 8.22204053,9.31000176 8.22204053,8.95909427 C8.22204053,8.0625304 7.87261322,7.21946432 7.23846344,6.58552599 C6.60463084,5.95127048 5.76156476,5.60216035 4.8646837,5.60216035 C3.96780264,5.60216035 3.12473656,5.95127048 2.49090396,6.58542026 C1.85664846,7.21935859 1.50732687,8.06242467 1.50732687,8.95909427 C1.50732687,9.85576388 1.85664846,10.69883 2.49079824,11.3327683 C3.12473656,11.9671295 3.96780264,12.3164511 4.8646837,12.3164511 C5.76156476,12.3164511 6.60463084,11.9671295 7.23835771,11.3327683 C7.46186432,11.1095789 7.64900088,10.8599577 7.79892159,10.5915172 L8.89319471,10.5915172 L8.89340617,14.2916405 L9.50778502,14.2916405 L9.50757357,10.5915172 L12.1710449,10.5915172 L12.171785,10.5915172 C12.8334238,10.5915172 13.4559436,10.3336493 13.923785,9.8657022 C14.3922608,9.39754361 14.6502344,8.77502379 14.6502344,8.11275066 C14.6502344,6.74549075 13.5379877,5.63313833 12.1711507,5.63313833" id="Fill-19"></path>
            </g>
        </g>
    </g>
</svg>