<?xml version="1.0" encoding="UTF-8"?>
<svg width="80px" height="80px" viewBox="0 0 80 80" version="1.1" xmlns="http://www.w3.org/2000/svg" xmlns:xlink="http://www.w3.org/1999/xlink">
    <!-- Generator: Sketch 50.2 (55047) - http://www.bohemiancoding.com/sketch -->
    <title>Atoms/Logos/RadioSwissJazz</title>
    <desc>Created with Sketch.</desc>
    <defs></defs>
    <g id="Atoms/Logos/RadioSwissJazz" stroke="none" stroke-width="1" fill="none" fill-rule="evenodd">
        <g id="Page-1">
            <polygon id="Fill-1" fill="#F7B222" points="0 24 24 24 24 0 0 0"></polygon>
            <g id="Group-22" transform="translate(2.431718, 4.204863)" fill="#FFFFFF">
                <path d="M5.07179207,9.31646167 L5.07179207,5.5469815 L7.16222379,8.1008141 L5.07179207,9.31646167 Z M11.9836863,10.860074 L13.7426643,4.27424141 L7.69995066,7.78817974 L4.45762467,3.82680529 L4.45762467,12.2172899 C4.45762467,13.2729727 3.59838238,14.1320035 2.54238238,14.1320035 C1.48680529,14.1320035 0.627985903,13.2729727 0.627985903,12.2172899 L0.0137127753,12.2172899 C0.0137127753,13.6116159 1.14805639,14.7460652 2.54238238,14.7460652 C3.937237,14.7460652 5.07179207,13.6116159 5.07179207,12.2172899 L5.07179207,10.027052 L7.55637357,8.5824 L9.69110485,11.190259 L10.1665586,10.8011841 L8.09410044,8.26955419 L12.7653251,5.55311366 L11.0062414,12.1388405 L16.0143119,9.22659383 L15.7055894,8.69552775 L11.9836863,10.860074 Z" id="Fill-2"></path>
                <polygon id="Fill-4" points="16.4782097 0.0709321586 11.4707736 2.98328458 11.7793903 3.51413921 15.5009762 1.34991013 13.7419982 7.93605991 18.7500687 5.02360176 18.4413463 4.49242996 14.7192317 6.65729339"></polygon>
            </g>
        </g>
    </g>
</svg>