<?xml version="1.0" encoding="UTF-8"?>
<svg width="41px" height="24px" viewBox="0 0 41 24" preserveAspectRatio="xMinYMin meet" version="1.1" xmlns="http://www.w3.org/2000/svg" xmlns:xlink="http://www.w3.org/1999/xlink">
    <!-- Generator: Sketch 51.1 (57501) - http://www.bohemiancoding.com/sketch -->
    <title>SRF1</title>
    <desc>Created with Sketch.</desc>
    <defs></defs>
    <g id="Symbols" stroke="none" stroke-width="1" fill="none" fill-rule="evenodd">
        <g id="Atoms/Logos/SRF1">
            <g id="SRF1">
                <polygon id="Fill-1" fill="#AF001D" points="0 24 16 24 16 -2.02615702e-13 0 -2.02615702e-13"></polygon>
                <path d="M7.09588515,6.16732277 L5.5313703,6.16732277 L5.5313703,3.15472871 C5.5313703,2.92423366 5.45045941,2.8555604 5.22127129,2.8555604 L4.41596436,2.8555604 C4.18582574,2.8555604 4.10610297,2.92423366 4.10610297,3.15472871 L4.10610297,7.52451089 C4.10610297,7.75405545 4.18582574,7.82308515 4.41596436,7.82308515 L11.1893109,7.82308515 C11.4194495,7.82308515 11.4998851,7.75405545 11.4998851,7.52451089 L11.4998851,6.46684752 C11.4998851,6.2365901 11.4194495,6.16732277 11.1893109,6.16732277 L8.52091485,6.16732277 L8.52091485,3.43096634 C8.52091485,3.20106535 8.44083564,3.13179802 8.21034059,3.13179802 L7.40622178,3.13179802 C7.17620198,3.13179802 7.09588515,3.20106535 7.09588515,3.43096634 L7.09588515,6.16732277 Z" id="Fill-2" fill="#FFFFFF"></path>
                <path d="M7.68112871,12.1069782 L8.16457426,12.222701 C8.30310891,12.2563248 8.37178218,12.2676119 8.41716832,12.2676119 C8.53372277,12.2676119 8.62485149,12.2336317 8.76231683,12.1524832 L11.2233861,10.784602 C11.4193069,10.6700673 11.4999802,10.5776317 11.4999802,10.3025822 L11.4999802,9.04792871 C11.4999802,8.88729505 11.396495,8.69303762 11.1092079,8.8748198 L8.32580198,10.5541069 C7.96984158,9.99117624 7.46310891,9.35862178 6.34829703,9.35862178 C4.91067327,9.35862178 4.10607921,10.1636911 4.10607921,11.9351762 L4.10607921,14.4993743 C4.10607921,14.7291564 4.18580198,14.7984238 4.41605941,14.7984238 L11.1892871,14.7984238 C11.4193069,14.7984238 11.4999802,14.7291564 11.4999802,14.4993743 L11.4999802,13.4418297 C11.4999802,13.210503 11.4193069,13.1418297 11.1892871,13.1418297 L5.47324752,13.1418297 L5.47324752,12.0495921 C5.47324752,11.3603644 5.72738614,11.0266218 6.37087129,11.0266218 C6.95720792,11.0266218 7.1419604,11.2907406 7.25649505,11.5553347 C7.39407921,11.8890772 7.24485149,12.0044436 7.68112871,12.1069782" id="Fill-4" fill="#FFFFFF"></path>
                <path d="M10.3140119,21.0018653 L11.200705,21.1405188 C11.3732198,21.1629743 11.4424871,21.0815881 11.4648238,20.9333109 C11.5111604,20.5995683 11.568903,19.7594495 11.568903,18.9441624 C11.568903,17.1149347 10.9702099,15.7806772 9.26965545,15.7806772 C8.26807129,15.7806772 7.52062574,16.2187366 7.12973465,17.7358455 L6.91112079,18.5870139 C6.76213069,19.1605188 6.57785347,19.4264198 6.15310099,19.4264198 C5.55488317,19.4264198 5.4402297,18.8735881 5.4402297,18.3452317 C5.4402297,17.6321228 5.49737822,16.9083208 5.52007129,16.6210337 C5.54347723,16.3212713 5.50854653,16.241905 5.25571485,16.1949743 L4.39302178,16.0566772 C4.22086337,16.0335089 4.15159604,16.114301 4.12902178,16.2636475 C4.08363564,16.5978653 4.0251802,17.333905 4.0251802,18.2649149 C4.0251802,20.1632911 4.85306139,21.0815881 6.16379406,21.0815881 C7.34799208,21.0815881 8.04969505,20.4390535 8.33698218,19.3229347 L8.55595248,18.4715287 C8.73963564,17.7704198 8.94660594,17.4714891 9.38335842,17.4714891 C10.0279129,17.4714891 10.1426851,17.9087168 10.1426851,18.9667366 C10.1426851,19.4493505 10.0737743,20.2881624 10.0504871,20.5764 C10.0279129,20.8753307 10.0621307,20.9561228 10.3140119,21.0018653" id="Fill-6" fill="#FFFFFF"></path>
                <polygon id="Fill-8" fill="#AF001D" points="17 24 41 24 41 -2.0237978e-13 17 -2.0237978e-13"></polygon>
                <polygon id="Fill-10" fill="#FFFFFF" points="26.890705 6.36804356 26.890705 20.0624198 31.5414772 20.0624198 31.5414772 3.10677624"></polygon>
            </g>
        </g>
    </g>
</svg>
