<?xml version="1.0" encoding="UTF-8"?>
<svg width="75px" height="24px" viewBox="0 0 75 24" preserveAspectRatio="xMinYMin meet" version="1.1" xmlns="http://www.w3.org/2000/svg" xmlns:xlink="http://www.w3.org/1999/xlink">
    <!-- Generator: Sketch 51.1 (57501) - http://www.bohemiancoding.com/sketch -->
    <title>SRFzwei</title>
    <desc>Created with Sketch.</desc>
    <defs></defs>
    <g id="Symbols" stroke="none" stroke-width="1" fill="none" fill-rule="evenodd">
        <g id="Atoms/Logos/SRFzwei">
            <g id="SRFzwei">
                <polygon id="Fill-1" fill="#FFB515" points="17 24 75 24 75 1.47451495e-13 17 1.47451495e-13"></polygon>
                <polygon id="Fill-2" fill="#FFFFFF" points="65.3313267 18.4147723 69.7076436 18.4147723 69.7076436 5.69774257 65.3313267 5.69774257"></polygon>
                <path d="M59.9699525,10.6315842 C59.9378733,9.87225743 59.8040911,9.28853465 59.5737149,8.88374257 C59.3415564,8.47954455 58.8899525,8.27566337 58.2148634,8.27566337 C57.605002,8.27566337 57.1456752,8.43748515 56.8419921,8.76089109 C56.5353386,9.08061386 56.3504673,9.7069901 56.2859525,10.6315842 L59.9699525,10.6315842 Z M63.2337149,18.0699208 C63.1355762,18.1016436 62.9416752,18.1508317 62.6528436,18.2177228 C62.3649624,18.2810495 62.0186257,18.3517426 61.6141901,18.4287327 C61.2097545,18.5025149 60.7655168,18.5694059 60.2789822,18.6258416 C59.7923287,18.681802 59.2927248,18.714 58.7826653,18.714 C57.6118931,18.714 56.6029426,18.5907921 55.7547446,18.3517426 C54.9039327,18.1123366 54.2079327,17.7322574 53.6644871,17.2122178 C53.1192594,16.691703 52.7162495,16.0093663 52.4526059,15.1688911 C52.1886059,14.3242574 52.0562495,13.3014059 52.0562495,12.0945149 C52.0562495,9.89720792 52.575101,8.23336634 53.6149426,7.10144554 C54.6525267,5.96857426 56.187101,5.40219802 58.2148634,5.40219802 C59.1699921,5.40219802 59.9998931,5.51471287 60.699695,5.73629703 C61.3996158,5.95764356 61.9853584,6.31324752 62.4545465,6.80180198 C62.9256356,7.2909505 63.2760119,7.91661386 63.5081703,8.68675248 C63.7381901,9.45380198 63.8527248,10.3928911 63.8527248,11.5003366 L63.8527248,13.308297 L56.2859525,13.308297 C56.3351406,13.7231881 56.4246059,14.0645347 56.5564871,14.3386337 C56.6888436,14.6095248 56.8798931,14.8313465 57.1261901,14.9961386 C57.3743881,15.1583168 57.6787842,15.2742772 58.0404475,15.3409307 C58.4030614,15.4078218 58.8493188,15.4396634 59.3770812,15.4396634 C60.4301109,15.4396634 61.3189426,15.3764554 62.0344277,15.2430297 C62.7533584,15.1087723 63.2508238,15.0175248 63.5320515,14.9717822 L63.2337149,18.0699208 Z" id="Fill-3" fill="#FFFFFF"></path>
                <polygon id="Fill-5" fill="#FFFFFF" points="47.3879525 5.69775446 46.4879525 11.4861505 44.9670416 5.69775446 41.4392792 5.69775446 39.9201505 11.4861505 39.0197941 5.69775446 34.2017347 5.69775446 37.1698931 18.4147842 41.3039525 18.4147842 43.0765069 11.9682891 44.8685465 18.4147842 49.0022495 18.4147842 51.9705267 5.69775446"></polygon>
                <polygon id="Fill-7" fill="#FFFFFF" points="22.5998376 5.69775446 22.5998376 9.72072475 27.1605505 9.72072475 22.4007089 15.6641703 22.4007089 18.4147842 33.527798 18.4147842 33.527798 14.3913386 28.5582535 14.3913386 33.3557584 8.45145743 33.0833228 5.69775446"></polygon>
                <polygon id="Fill-9" fill="#FFB515" points="0 24 16 24 16 -2.0237978e-13 0 -2.0237978e-13"></polygon>
                <path d="M7.09587327,6.16732277 L5.53135842,6.16732277 L5.53135842,3.15472871 C5.53135842,2.92423366 5.45044752,2.8555604 5.22125941,2.8555604 L4.41595248,2.8555604 C4.18581386,2.8555604 4.10609109,2.92423366 4.10609109,3.15472871 L4.10609109,7.52451089 C4.10609109,7.75405545 4.18581386,7.82308515 4.41595248,7.82308515 L11.189299,7.82308515 C11.4194376,7.82308515 11.4998733,7.75405545 11.4998733,7.52451089 L11.4998733,6.46684752 C11.4998733,6.2365901 11.4194376,6.16732277 11.189299,6.16732277 L8.52102178,6.16732277 L8.52102178,3.43096634 C8.52102178,3.20106535 8.44082376,3.13179802 8.21032871,3.13179802 L7.40632871,3.13179802 C7.1761901,3.13179802 7.09587327,3.20106535 7.09587327,3.43096634 L7.09587327,6.16732277 Z" id="Fill-11" fill="#FFFFFF"></path>
                <path d="M7.68117624,12.1069782 L8.16462178,12.222701 C8.30315644,12.2563248 8.3718297,12.2676119 8.41721584,12.2676119 C8.53365149,12.2676119 8.62489901,12.2336317 8.76224554,12.1524832 L11.2234337,10.784602 C11.4192356,10.6700673 11.4999089,10.5776317 11.4999089,10.3025822 L11.4999089,9.04792871 C11.4999089,8.88729505 11.3964238,8.69303762 11.1091366,8.8748198 L8.32573069,10.5541069 C7.96988911,9.99117624 7.46315644,9.35862178 6.34834455,9.35862178 C4.91060198,9.35862178 4.10612673,10.1636911 4.10612673,11.9351762 L4.10612673,14.4993743 C4.10612673,14.7291564 4.1858495,14.7984238 4.41598812,14.7984238 L11.1893347,14.7984238 C11.4192356,14.7984238 11.4999089,14.7291564 11.4999089,14.4993743 L11.4999089,13.4418297 C11.4999089,13.210503 11.4192356,13.1418297 11.1893347,13.1418297 L5.47329505,13.1418297 L5.47329505,12.0495921 C5.47329505,11.3603644 5.72743366,11.0266218 6.37091881,11.0266218 C6.95725545,11.0266218 7.14200792,11.2907406 7.25642376,11.5553347 C7.39400792,11.8890772 7.24489901,12.0044436 7.68117624,12.1069782" id="Fill-12" fill="#FFFFFF"></path>
                <path d="M10.3140713,21.0018653 L11.2007644,21.1405188 C11.3732792,21.1629743 11.4425465,21.0815881 11.4647644,20.9333109 C11.5112198,20.5995683 11.5689624,19.7594495 11.5689624,18.9441624 C11.5689624,17.1149347 10.9702693,15.7806772 9.26959604,15.7806772 C8.26813069,15.7806772 7.52068515,16.2187366 7.12979406,17.7358455 L6.9111802,18.5870139 C6.7621901,19.1605188 6.57779406,19.4264198 6.1531604,19.4264198 C5.55494257,19.4264198 5.4401703,18.8735881 5.4401703,18.3452317 C5.4401703,17.6321228 5.49731881,16.9083208 5.52013069,16.6210337 C5.54341782,16.3212713 5.50848713,16.241905 5.25577426,16.1949743 L4.39308119,16.0566772 C4.22092277,16.0335089 4.15153663,16.114301 4.12908119,16.2636475 C4.08357624,16.5978653 4.0252396,17.333905 4.0252396,18.2649149 C4.0252396,20.1632911 4.85312079,21.0815881 6.16385347,21.0815881 C7.34805149,21.0815881 8.04975446,20.4390535 8.33704158,19.3229347 L8.55601188,18.4715287 C8.73969505,17.7704198 8.94666535,17.4714891 9.38341782,17.4714891 C10.0278535,17.4714891 10.1427446,17.9087168 10.1427446,18.9667366 C10.1427446,19.4493505 10.0737149,20.2881624 10.0505465,20.5764 C10.0278535,20.8753307 10.0620713,20.9561228 10.3140713,21.0018653" id="Fill-13" fill="#FFFFFF"></path>
            </g>
        </g>
    </g>
</svg>
