<?xml version="1.0" encoding="UTF-8"?>
<svg width="67px" height="24px" viewBox="0 0 67 24" preserveAspectRatio="xMinYMin meet" version="1.1" xmlns="http://www.w3.org/2000/svg" xmlns:xlink="http://www.w3.org/1999/xlink">
    <!-- Generator: Sketch 51.1 (57501) - http://www.bohemiancoding.com/sketch -->
    <title>SRFinfo</title>
    <desc>Created with Sketch.</desc>
    <defs></defs>
    <g id="Symbols" stroke="none" stroke-width="1" fill="none" fill-rule="evenodd">
        <g id="Atoms/Logos/SRFinfo">
            <g id="SRFinfo">
                <polygon id="Fill-1" fill="#AF001D" points="17.0001198 2.18408625e-13 17 24 67 24 67 2.18408625e-13"></polygon>
                <path d="M58.508697,13.8703604 C58.426598,14.2940436 58.2988752,14.6248158 58.1293307,14.8524594 C57.9717861,15.0637069 57.7812119,15.2079446 57.5465584,15.2933703 C57.2756673,15.3922218 56.9336079,15.4421228 56.5311921,15.4421228 C56.1279446,15.4421228 55.7868356,15.3922218 55.5164198,15.2937267 C55.280697,15.2079446 55.090004,15.0637069 54.9325782,14.8524594 C54.7632713,14.6238653 54.6351921,14.2935683 54.5538059,13.870598 C54.462796,13.4048554 54.4164594,12.798202 54.4164594,12.0666772 C54.4164594,11.3345584 54.462796,10.7238653 54.5544,10.2506376 C54.635905,9.81958812 54.7638653,9.48596436 54.9331723,9.25784554 C55.090004,9.04707327 55.280697,8.90283564 55.5158257,8.81705347 C55.7868356,8.71867723 56.1286574,8.66865743 56.5311921,8.66865743 C56.9332515,8.66865743 57.2750733,8.71867723 57.5472713,8.81729109 C57.7818059,8.90283564 57.9721426,9.04707327 58.1289743,9.25820198 C58.2980436,9.48513267 58.4256475,9.81899406 58.508697,10.2504 C58.5997069,10.7273109 58.6460436,11.3384792 58.6460436,12.0666772 C58.6460436,12.7947564 58.6000634,13.4014099 58.508697,13.8703604 M61.9323802,9.07832079 C61.6536475,8.24354851 61.2544396,7.55788515 60.7455683,7.04057822 C60.2296871,6.51709307 59.5990337,6.1373703 58.8702416,5.91127129 C58.1731723,5.69503366 57.3867564,5.58513267 56.5311921,5.58513267 C55.6757465,5.58513267 54.8889743,5.69503366 54.191905,5.91127129 C53.4620436,6.13772673 52.8312713,6.51768713 52.316697,7.04057822 C51.8080634,7.55788515 51.4083802,8.24354851 51.1297663,9.07832079 C50.8593505,9.88849901 50.7223604,10.8937663 50.7223604,12.0663208 C50.7223604,13.2222416 50.8547168,14.218598 51.1171723,15.0279446 C51.3877069,15.8646178 51.7840634,16.5517069 52.294598,17.070202 C52.8089347,17.5929743 53.4395881,17.9729347 54.1695683,18.1995089 C54.8667564,18.4155089 55.6606574,18.5254099 56.5311921,18.5254099 C57.4011327,18.5254099 58.1950337,18.4155089 58.8928158,18.1995089 C59.6219644,17.9731723 60.2529743,17.5932119 60.7677861,17.070202 C61.2789149,16.5504 61.6749149,15.8633109 61.9456871,15.0278257 C62.2071921,14.2162218 62.3401426,13.2198653 62.3401426,12.0663208 C62.3401426,10.8956673 62.2033901,9.89051881 61.9323802,9.07832079" id="Fill-2" fill="#FFFFFF"></path>
                <path d="M48.528499,10.8070693 L44.6381228,10.8070693 L44.6381228,9.01015842 L49.1850535,9.01015842 C49.4661624,9.01015842 49.6944,8.78239604 49.6944,8.5010495 L49.6944,6.19966337 C49.6944,5.91855446 49.4661624,5.69043564 49.1850535,5.69043564 L41.4489743,5.69043564 C41.1679842,5.69043564 40.9397465,5.91855446 40.9397465,6.19966337 L40.9397465,17.9072673 C40.9397465,18.188495 41.1679842,18.4166139 41.4489743,18.4166139 L44.128895,18.4166139 C44.4104792,18.4166139 44.6381228,18.188495 44.6381228,17.9072673 L44.6381228,14.1096832 L48.528499,14.1096832 C48.8097267,14.1096832 49.0377267,13.881802 49.0377267,13.6005743 L49.0377267,11.316297 C49.0377267,11.0351881 48.8097267,10.8070693 48.528499,10.8070693" id="Fill-4" fill="#FFFFFF"></path>
                <path d="M37.9280198,6.65028119 C37.5479406,6.3064396 37.0832673,6.05479604 36.5482574,5.90283564 C36.0414059,5.75966733 35.4820396,5.6904 34.8846535,5.6904 L28.7887723,5.6904 C28.5075446,5.6904 28.2791881,5.91911287 28.2791881,6.20022178 L28.2791881,17.9069941 C28.2791881,18.188103 28.5075446,18.4163406 28.7887723,18.4163406 L31.4903168,18.4163406 C31.7716634,18.4163406 31.9996634,18.188103 31.9996634,17.9069941 L31.9996634,9.12560792 L34.1686931,9.12560792 C34.5093267,9.12560792 34.9564158,9.17824158 35.1553069,9.42881584 C35.3424356,9.6664396 35.4378416,10.0379644 35.4378416,10.5328158 L35.4378416,17.9069941 C35.4378416,18.188103 35.6658416,18.4163406 35.9470693,18.4163406 L38.6256832,18.4163406 C38.9070297,18.4163406 39.1350297,18.188103 39.1350297,17.9069941 L39.1350297,9.86806337 C39.1350297,9.14592475 39.0298812,8.51218218 38.8226733,7.98465743 C38.6090495,7.44299406 38.3079802,6.9943604 37.9280198,6.65028119" id="Fill-6" fill="#FFFFFF"></path>
                <path d="M25.9772198,5.69044752 L23.2988436,5.69044752 C23.0176158,5.69044752 22.7896158,5.91844752 22.7896158,6.19955644 L22.7896158,17.9069228 C22.7896158,18.1880317 23.0176158,18.4162693 23.2988436,18.4162693 L25.9772198,18.4162693 C26.2584475,18.4162693 26.4860911,18.1880317 26.4860911,17.9069228 L26.4860911,6.19955644 C26.4860911,5.91844752 26.2584475,5.69044752 25.9772198,5.69044752" id="Fill-8" fill="#FFFFFF"></path>
                <polygon id="Fill-10" fill="#AF001D" points="0 24 16 24 16 -2.0237978e-13 0 -2.0237978e-13"></polygon>
                <path d="M7.09587327,6.16732277 L5.53135842,6.16732277 L5.53135842,3.15472871 C5.53135842,2.92423366 5.45044752,2.8555604 5.22125941,2.8555604 L4.41595248,2.8555604 C4.18581386,2.8555604 4.10609109,2.92423366 4.10609109,3.15472871 L4.10609109,7.52451089 C4.10609109,7.75405545 4.18581386,7.82308515 4.41595248,7.82308515 L11.189299,7.82308515 C11.4194376,7.82308515 11.4998733,7.75405545 11.4998733,7.52451089 L11.4998733,6.46684752 C11.4998733,6.2365901 11.4194376,6.16732277 11.189299,6.16732277 L8.52102178,6.16732277 L8.52102178,3.43096634 C8.52102178,3.20106535 8.44082376,3.13179802 8.21032871,3.13179802 L7.40632871,3.13179802 C7.1761901,3.13179802 7.09587327,3.20106535 7.09587327,3.43096634 L7.09587327,6.16732277 Z" id="Fill-12" fill="#FFFFFF"></path>
                <path d="M7.68117624,12.1069782 L8.16462178,12.222701 C8.30315644,12.2563248 8.3718297,12.2676119 8.41721584,12.2676119 C8.53365149,12.2676119 8.62489901,12.2336317 8.76224554,12.1524832 L11.2234337,10.784602 C11.4192356,10.6700673 11.4999089,10.5776317 11.4999089,10.3025822 L11.4999089,9.04792871 C11.4999089,8.88729505 11.3964238,8.69303762 11.1091366,8.8748198 L8.32573069,10.5541069 C7.96988911,9.99117624 7.46315644,9.35862178 6.34834455,9.35862178 C4.91060198,9.35862178 4.10612673,10.1636911 4.10612673,11.9351762 L4.10612673,14.4993743 C4.10612673,14.7291564 4.1858495,14.7984238 4.41598812,14.7984238 L11.1893347,14.7984238 C11.4192356,14.7984238 11.4999089,14.7291564 11.4999089,14.4993743 L11.4999089,13.4418297 C11.4999089,13.210503 11.4192356,13.1418297 11.1893347,13.1418297 L5.47329505,13.1418297 L5.47329505,12.0495921 C5.47329505,11.3603644 5.72743366,11.0266218 6.37091881,11.0266218 C6.95725545,11.0266218 7.14200792,11.2907406 7.25642376,11.5553347 C7.39400792,11.8890772 7.24489901,12.0044436 7.68117624,12.1069782" id="Fill-13" fill="#FFFFFF"></path>
                <path d="M10.3140713,21.0018653 L11.2007644,21.1405188 C11.3732792,21.1629743 11.4425465,21.0815881 11.4647644,20.9333109 C11.5112198,20.5995683 11.5689624,19.7594495 11.5689624,18.9441624 C11.5689624,17.1149347 10.9702693,15.7806772 9.26959604,15.7806772 C8.26813069,15.7806772 7.52068515,16.2187366 7.12979406,17.7358455 L6.9111802,18.5870139 C6.7621901,19.1605188 6.57779406,19.4264198 6.1531604,19.4264198 C5.55494257,19.4264198 5.4401703,18.8735881 5.4401703,18.3452317 C5.4401703,17.6321228 5.49731881,16.9083208 5.52013069,16.6210337 C5.54341782,16.3212713 5.50848713,16.241905 5.25577426,16.1949743 L4.39308119,16.0566772 C4.22092277,16.0335089 4.15153663,16.114301 4.12908119,16.2636475 C4.08357624,16.5978653 4.0252396,17.333905 4.0252396,18.2649149 C4.0252396,20.1632911 4.85312079,21.0815881 6.16385347,21.0815881 C7.34805149,21.0815881 8.04975446,20.4390535 8.33704158,19.3229347 L8.55601188,18.4715287 C8.73969505,17.7704198 8.94666535,17.4714891 9.38341782,17.4714891 C10.0278535,17.4714891 10.1427446,17.9087168 10.1427446,18.9667366 C10.1427446,19.4493505 10.0737149,20.2881624 10.0505465,20.5764 C10.0278535,20.8753307 10.0620713,20.9561228 10.3140713,21.0018653" id="Fill-14" fill="#FFFFFF"></path>
            </g>
        </g>
    </g>
</svg>
