<?xml version="1.0" encoding="utf-8"?>
<!-- Generator: Adobe Illustrator 18.1.1, SVG Export Plug-In . SVG Version: 6.00 Build 0)  -->
<svg version="1.1" xmlns="http://www.w3.org/2000/svg" xmlns:xlink="http://www.w3.org/1999/xlink" x="0px" y="0px"
	 viewBox="0 0 22 14" style="enable-background:new 0 0 22 14;" xml:space="preserve">
<style type="text/css">
	.st0{fill-rule:evenodd;clip-rule:evenodd;}
	.st1{fill-rule:evenodd;clip-rule:evenodd;fill:#FFFFFF;}
</style>
<g id="Ebene_1">
</g>
<g id="MOBILE">
	<g id="icon_zweikanalton_9_">
		<path class="st0" d="M0,0h22v14H0V0z"/>
		<path class="st1" d="M14,3h4v1h-4V3z"/>
		<path class="st1" d="M13,4h2v1h-2V4z"/>
		<path class="st1" d="M12,5h2v1h-2V5z"/>
		<path class="st1" d="M12,6h1v2h-1V6z"/>
		<path class="st1" d="M12,8h2v1h-2V8z"/>
		<path class="st1" d="M13,9h2v1h-2V9z"/>
		<path class="st1" d="M14,10h4v1h-4V10z"/>
		<path class="st1" d="M17,9h2v1h-2V9z"/>
		<path class="st1" d="M18,8h2v1h-2V8z"/>
		<path class="st1" d="M18,5h2v1h-2V5z"/>
		<path class="st1" d="M17,4h2v1h-2V4z"/>
		<path class="st1" d="M19,6h1v2h-1V6z"/>
		<path class="st1" d="M4,3h4v1H4V3z"/>
		<path class="st1" d="M4,10h4v1H4V10z"/>
		<path class="st1" d="M3,4h6v1H3V4z"/>
		<path class="st1" d="M2,5h8v4H2V5z"/>
		<path class="st1" d="M3,9h6v1H3V9z"/>
	</g>
</g>
</svg>
