<?xml version="1.0" encoding="utf-8"?>
<!-- Generator: Adobe Illustrator 18.1.1, SVG Export Plug-In . SVG Version: 6.00 Build 0)  -->
<svg version="1.1" xmlns="http://www.w3.org/2000/svg" xmlns:xlink="http://www.w3.org/1999/xlink" x="0px" y="0px"
	 viewBox="0 0 22 14" enable-background="new 0 0 22 14" xml:space="preserve">
<g id="Ebene_1">
</g>
<g id="Gebaerdensprache">
	<g id="icon_gebaerde_1_">
		<path fill-rule="evenodd" clip-rule="evenodd" fill="#222222" d="M0,0h22v14H0V0z"/>
		<polygon fill-rule="evenodd" clip-rule="evenodd" fill="#FFFFFF" points="20,5 20,12 19,12 19,3 18,3 18,12 17,12 17,2 16,2 
			16,12 15,12 15,4 14,4 14,11 13,11 13,10 13,9 12,9 12,8 2,8 2,7 3,7 10,7 10,6 3,6 3,5 5,5 5,4 6,4 6,3 6,2 5,2 5,3 4,3 4,4 3,4 
			2,4 2,5 0,5 0,13 2,13 9,13 9,12 2,12 2,11 11,11 11,10 2,10 2,9 11,9 11,10 12,10 12,11 12,12 13,12 13,14 21,14 21,12 21,5 		
			"/>
	</g>
</g>
</svg>
