<svg width="40" height="40" viewBox="0 0 40 40" xmlns="http://www.w3.org/2000/svg" xmlns:xlink="http://www.w3.org/1999/xlink"><defs><rect id="a" width="40" height="40" rx="20"/></defs><g fill="none" fill-rule="evenodd"><use fill="#4ECE5B" xlink:href="#a"/><g fill-rule="nonzero" fill="#FFF"><path d="M20.171 10c-5.314 0-9.628 4.286-9.628 9.571 0 1.886.543 3.629 1.486 5.115L10.257 29.8l5.4-1.771a9.599 9.599 0 0 0 4.514 1.114c5.315 0 9.629-4.286 9.629-9.572 0-5.285-4.314-9.571-9.629-9.571zm0 17.514a7.615 7.615 0 0 1-4.228-1.285l-3.114 1.028 1.028-3.057c-.914-1.286-1.428-2.886-1.428-4.6 0-4.371 3.457-7.943 7.742-7.943 4.258 0 7.743 3.543 7.743 7.943 0 4.4-3.485 7.914-7.743 7.914z"/><path d="M18.171 14.886H17.2c-1 .485-1.314 2.085-1 2.943.657 1.685 1.829 2.914 2.057 3.142.257.315 1.743 1.886 4.114 2.6.6.172 3.058 0 2.829-2.171l-1.943-1.029c-.286-.085-.4.029-.4.029l-.971 1.114s-.686-.143-1.4-.6c-1.429-.943-1.886-1.943-2.029-2.6l.429-.428c.171-.2.314-.543.314-.8"/></g></g></svg>