<?xml version="1.0" encoding="UTF-8" standalone="no"?>
<svg width="40px" height="40px" viewBox="0 0 40 40" version="1.1" xmlns="http://www.w3.org/2000/svg" xmlns:xlink="http://www.w3.org/1999/xlink">
    <!-- Generator: Sketch 42 (36781) - http://www.bohemiancoding.com/sketch -->
    <title>Group 7 Copy</title>
    <desc>Created with Sketch.</desc>
    <defs>
        <rect id="path-1" x="0" y="0" width="40" height="40" rx="20"></rect>
    </defs>
    <g id="Page-1" stroke="none" stroke-width="1" fill="none" fill-rule="evenodd">
        <g id="Group-7-Copy">
            <g id="Rectangle-1254-Copy-6">
                <use fill="#4ECE5B" xlink:href="#path-1"></use>
                <!--<use fill-opacity="0.16" fill="#FFFFFF" xlink:href="#path-1"></use>-->
            </g>
            <g id="tel_2_" transform="translate(10.000000, 10.000000)" fill-rule="nonzero" fill="#FFFFFF">
                <path d="M10.1714286,0 C4.85714286,0 0.542857143,4.28571429 0.542857143,9.57142857 C0.542857143,11.4571429 1.08571429,13.2 2.02857143,14.6857143 L0.257142857,19.8 L5.65714286,18.0285714 C7,18.7428571 8.54285714,19.1428571 10.1714286,19.1428571 C15.4857143,19.1428571 19.8,14.8571429 19.8,9.57142857 C19.8,4.28571429 15.4857143,0 10.1714286,0 L10.1714286,0 L10.1714286,0 Z M10.1714286,17.5142857 C8.6,17.5142857 7.14285714,17.0285714 5.94285714,16.2285714 L5.94285714,16.2285714 L2.82857143,17.2571429 L3.85714286,14.2 C2.94285714,12.9142857 2.42857143,11.3142857 2.42857143,9.6 C2.42857143,5.22857143 5.88571429,1.65714286 10.1714286,1.65714286 C14.4285714,1.65714286 17.9142857,5.2 17.9142857,9.6 C17.9142857,14 14.4285714,17.5142857 10.1714286,17.5142857 L10.1714286,17.5142857 L10.1714286,17.5142857 Z" id="Shape"></path>
                <path d="M8.17142857,4.88571429 L7.2,4.88571429 C6.2,5.37142857 5.88571429,6.97142857 6.2,7.82857143 C6.85714286,9.51428571 8.02857143,10.7428571 8.25714286,10.9714286 C8.51428571,11.2857143 10,12.8571429 12.3714286,13.5714286 C12.9714286,13.7428571 15.4285714,13.5714286 15.2,11.4 L13.2571429,10.3714286 C12.9714286,10.2857143 12.8571429,10.4 12.8571429,10.4 L11.8857143,11.5142857 C11.8857143,11.5142857 11.2,11.3714286 10.4857143,10.9142857 C9.05714286,9.97142857 8.6,8.97142857 8.45714286,8.31428571 C8.45714286,8.31428571 8.65714286,8.11428571 8.88571429,7.88571429 C9.05714286,7.68571429 9.2,7.34285714 9.2,7.08571429" id="Shape"></path>
            </g>
        </g>
    </g>
</svg>
