<svg width="40" height="40" viewBox="0 0 40 40" xmlns="http://www.w3.org/2000/svg" xmlns:xlink="http://www.w3.org/1999/xlink"><defs><rect id="a" width="40" height="40" rx="20"/></defs><g fill="none" fill-rule="evenodd"><use fill="#5AA8DF" xlink:href="#a"/><path d="M28.015 14.089c.836-.5.875-.85 1.177-1.795-.783.463-1.65.8-2.572.982A4.048 4.048 0 0 0 23.665 12a4.045 4.045 0 0 0-3.945 4.96 11.501 11.501 0 0 1-8.346-4.221 4.035 4.035 0 0 0 1.253 5.394 4.06 4.06 0 0 1-1.834-.505v.05a4.045 4.045 0 0 0 3.248 3.961 4.074 4.074 0 0 1-1.83.07 4.055 4.055 0 0 0 3.783 2.805A8.154 8.154 0 0 1 10 26.186 11.482 11.482 0 0 0 16.207 28c7.448 0 11.52-6.155 11.52-11.492 0-.176-.003-.349-.01-.523.79-.569 1.74-1.1 2.283-1.91-.725.322-1.337.333-1.985.014z" fill="#FFF"/></g></svg>