<?xml version="1.0" encoding="utf-8"?>
<!-- Generator: Adobe Illustrator 18.1.1, SVG Export Plug-In . SVG Version: 6.00 Build 0)  -->
<svg version="1.1" id="MOBILE_Kopie" xmlns="http://www.w3.org/2000/svg" xmlns:xlink="http://www.w3.org/1999/xlink" x="0px"
	 y="0px" viewBox="0 0 16 86" style="enable-background:new 0 0 16 86;" xml:space="preserve">
<style type="text/css">
	.st0{fill:#969696;}
	.st1{fill:#555555;}
	.st2{fill:#D2D2D2;}
</style>
<path id="SUCHE_icon_1_" class="st0" d="M16,48.9L11.1,44c0.5-0.9,0.8-1.9,0.8-3c0-3.3-2.7-6-6-6s-6,2.7-6,6c0,3.3,2.7,6,6,6
	c1.1,0,2.1-0.3,3-0.8l4.9,4.9L16,48.9z M2,41c0-2.2,1.8-4,4-4c2.2,0,4,1.8,4,4c0,2.2-1.8,4-4,4C3.8,45,2,43.2,2,41z"/>
<path id="SUCHE_icon_2_" class="st1" d="M16,83.9L11.1,79c0.5-0.9,0.8-1.9,0.8-3c0-3.3-2.7-6-6-6s-6,2.7-6,6c0,3.3,2.7,6,6,6
	c1.1,0,2.1-0.3,3-0.8l4.9,4.9L16,83.9z M2,76c0-2.2,1.8-4,4-4c2.2,0,4,1.8,4,4c0,2.2-1.8,4-4,4C3.8,80,2,78.2,2,76z"/>
<path id="SUCHE_icon_8_" class="st2" d="M16,13.9L11.1,9C11.6,8.1,12,7.1,12,6c0-3.3-2.7-6-6-6S0,2.7,0,6c0,3.3,2.7,6,6,6
	c1.1,0,2.1-0.3,3-0.8l4.9,4.9L16,13.9z M2,6c0-2.2,1.8-4,4-4c2.2,0,4,1.8,4,4c0,2.2-1.8,4-4,4C3.8,10,2,8.2,2,6z"/>
</svg>
