<svg width="72" height="72" viewBox="0 0 72 72" xmlns="http://www.w3.org/2000/svg"><g transform="translate(6 6)" fill="none" fill-rule="evenodd"><circle stroke="#FFF" stroke-width="3" fill-opacity=".16" fill="#000" cx="30" cy="30" r="30"/><g fill="#FFF"><path d="M31.69 19.045a.494.494 0 0 0-.544.108l-6.853 6.854H21c-1.103 0-2 .897-2 2v3c0 1.103.897 2 2 2h3.293l6.853 6.853a.499.499 0 0 0 .854-.354v-20a.5.5 0 0 0-.31-.462"/><path d="M36.82 23.122a.503.503 0 0 0-.705.067.499.499 0 0 0 .067.703c1.713 1.414 2.82 3.617 2.82 5.615 0 1.993-1.108 4.197-2.82 5.614a.501.501 0 1 0 .639.771c1.932-1.6 3.18-4.106 3.18-6.385 0-2.284-1.248-4.79-3.18-6.386" stroke="#FFF" stroke-width=".2"/><path d="M34.794 25.603a.5.5 0 1 0-.588.81c.818.594 1.794 1.614 1.794 3.094 0 1.482-.976 2.5-1.794 3.096a.5.5 0 0 0 .295.905c.102 0 .205-.03.294-.095C36.217 32.378 37 30.992 37 29.507c0-1.483-.783-2.87-2.206-3.904" stroke="#FFF" stroke-width=".2"/></g></g></svg>