<svg width="603" height="200" viewBox="0 0 603 200" xmlns="http://www.w3.org/2000/svg" xmlns:xlink="http://www.w3.org/1999/xlink">
	<defs>
		<path id="a" d="M0 52.28v95.44h68.5V52.28H0z"/>
	</defs>
	<g fill="none" fill-rule="evenodd">
		<path fill="#AF001D" d="M300.665 200h302V0h-302"/>
		<path d="M528.277 90.816v-20.19h38.902c2.132 0 3.862-1.73 3.862-3.865V56.22c0-2.213-1.795-4.007-4.008-4.007h-56.278c-2.133 0-3.863 1.73-3.863 3.864v87.6c0 2.217 1.796 4.013 4.012 4.013h13.512c2.13 0 3.86-1.728 3.86-3.86v-34.6h35.34c2.132 0 3.862-1.73 3.862-3.863V94.832c0-2.218-1.8-4.016-4.017-4.016h-35.187zM449.64 98.39l-1.484 6.24c-.446 1.777-.59 2.667-.59 3.26 0 1.49.445 2.677 1.484 4.458l17.664 31.777c1.48 2.528 2.676 3.563 6.238 3.563h16.188c2.07 0 4.598-1.336 2.227-5.047l-21.68-35.935c7.265-4.602 15.44-11.137 15.44-25.536 0-18.56-10.39-28.958-33.26-28.958h-33.11c-2.133 0-3.863 1.73-3.863 3.865v87.6c0 2.217 1.796 4.013 4.012 4.013h13.507c2.134 0 3.864-1.73 3.864-3.863V69.88h14.105c8.91 0 13.215 3.273 13.215 11.585 0 7.57-3.414 9.95-6.828 11.434-4.307 1.775-5.795-.155-7.13 5.49m-115.062 34.005l-1.78 11.426c-.296 2.23.747 3.123 2.673 3.424 4.31.593 15.15 1.336 25.686 1.336 23.613 0 40.836-7.724 40.836-29.697 0-12.922-5.636-22.57-25.237-27.62l-10.992-2.82c-7.42-1.927-10.835-4.306-10.835-9.798 0-7.723 7.125-9.203 13.95-9.203 9.218 0 18.56.738 22.276 1.035 3.865.297 4.896-.148 5.493-3.418l1.79-11.135c.293-2.222-.75-3.12-2.684-3.414-4.302-.593-13.802-1.34-25.833-1.34-24.5 0-36.372 10.69-36.372 27.618 0 15.292 8.312 24.35 22.716 28.062l10.99 2.82c9.054 2.383 12.917 5.05 12.917 10.7 0 8.308-5.65 9.792-19.304 9.792-6.23 0-17.073-.89-20.786-1.187-3.865-.297-4.902.148-5.498 3.418M73.642 147.72V52.293H95.48v76.85h39.277l-2.27 18.575"
			  fill="#FFF"/>
		<path d="M151.54 107.167l9.874-31.053 9.54 31.053H151.54zm-.192-54.873l-34.173 95.425h21.13l7.904-23.114h29.977l7.913 23.112h21.977l-34.03-95.426h-20.7zm95.14 0l-19.426 37.15-19.286-37.15H184.24l31.335 55.014v40.41h21.837v-40.41l31.193-55.014"
			  fill="#FFF"/>
		<mask id="b" fill="#fff">
			<use xlink:href="#a"/>
		</mask>
		<path d="M21.53 98.877V64.174l29.742 17.35L21.53 98.878zM56.376 56.96c-4.967-3.122-11.467-4.68-19.504-4.68H0v95.44h21.56v-36.73h10.49c6.712 0 12.384-.66 17.02-1.984 4.632-1.324 8.388-3.215 11.275-5.676 2.882-2.457 4.962-5.504 6.24-9.144 1.275-3.64 1.914-7.825 1.914-12.55 0-4.26-.786-8.654-2.34-13.193-1.56-4.535-4.823-8.363-9.785-11.484z"
			  fill="#FFF" mask="url(#b)"/>
	</g>
</svg>