<svg xmlns="http://www.w3.org/2000/svg" xmlns:xlink="http://www.w3.org/1999/xlink" width="71" height="23" viewBox="0 0 71 23">
    <defs>
        <polygon id="playrtr-icon-a" points="0 .032 0 11.008 8.065 11.008 8.065 .032 0 .032"/>
    </defs>
    <g fill="none" fill-rule="evenodd">
        <g transform="translate(0 5.865)">
            <polygon fill="#FFF" points="8.671 11.123 8.671 .149 11.242 .149 11.242 8.987 15.867 8.987 15.6 11.123"/>
            <path fill="#FFF" d="M17.8429947,6.4592165 L19.005605,2.8881215 L20.1290063,6.4592165 L17.8429947,6.4592165 Z M17.8203877,0.1488215 L13.7967012,11.1226965 L16.284527,11.1226965 L17.2152982,8.4648165 L20.7451638,8.4648165 L21.6768769,11.1226965 L24.2644325,11.1226965 L20.2577012,0.1488215 L17.8203877,0.1488215 Z"/>
            <polygon fill="#FFF" points="29.023 .149 26.735 4.421 24.465 .149 21.693 .149 25.383 6.475 25.383 11.123 27.954 11.123 27.954 6.475 31.627 .149"/>
            <g transform="translate(0 .115)">
                <mask id="playrtr-icon-b" fill="#fff">
                    <use xlink:href="#playrtr-icon-a"/>
                </mask>
                <path fill="#FFF" d="M2.53499436,5.3908435 L2.53499436,1.3999985 L6.03695456,3.3953635 L2.53499436,5.3908435 Z M6.63792305,0.5702735 C6.05308557,0.2113585 5.28774561,0.0320735 4.34143217,0.0320735 L-4.70978441e-05,0.0320735 L-4.70978441e-05,11.0079035 L2.53840896,11.0079035 L2.53840896,6.7838385 L3.77378541,6.7838385 C4.56396949,6.7838385 5.23181692,6.7079385 5.77756318,6.5556785 C6.32307396,6.4034185 6.76532272,6.1859535 7.10525141,5.9029385 C7.44459138,5.6203835 7.68950017,5.2699785 7.83997778,4.8513785 C7.99010216,4.4326635 8.06534096,3.9515035 8.06534096,3.4080135 C8.06534096,2.9183435 7.97302919,2.4129185 7.78981857,1.8909335 C7.60637247,1.3694085 7.22217181,0.9291885 6.63792305,0.5702735 L6.63792305,0.5702735 Z" mask="url(#playrtr-icon-b)"/>
            </g>
        </g>
        <g transform="translate(35)">
            <polygon fill="#AF001D" points="0 23 36 23 36 0 0 0"/>
            <g fill="#FFF" transform="translate(3 5.362)">
                <path d="M4.93530162 5.96843155L4.76390356 6.6879407C4.71262171 6.89378236 4.69539937 6.9964828 4.69539937 7.06496813 4.69539937 7.23620899 4.74734151 7.37312455 4.86696249 7.5789662L6.90338051 11.2467604C7.07433838 11.5382225 7.21156687 11.6575621 7.62231695 11.6575621L9.48766705 11.6575621C9.72745926 11.6575621 10.0180931 11.5034564 9.74451653 11.0750787L7.24562639 6.92799747C8.08429387 6.39680919 9.02563511 5.64269925 9.02563511 3.98015322 9.02563511 1.83837519 7.82744439.638201527 5.19182096.638201527L1.37561432.638201527C1.03309332.638201527.930089415.758477848.930089415 1.10090448L.930089415 11.1949143C.930089415 11.5382225 1.03309332 11.6575621 1.37561432 11.6575621L2.94983532 11.6575621C3.29257642 11.6575621 3.3953052 11.5382225 3.3953052 11.1949143L3.3953052 2.67771989 5.02086309 2.67771989C6.04749069 2.67771989 6.54385726 3.0548575 6.54385726 4.0148642 6.54385726 4.88847911 6.15021948 5.16286119 5.75685681 5.33404696 5.26060028 5.53994371 5.08909218 5.31696695 4.93530162 5.96843155M24.4620248 5.96843155L24.2906818 6.6879407C24.2393449 6.89378236 24.2221226 6.9964828 24.2221226 7.06496813 24.2221226 7.23620899 24.2740647 7.37312455 24.3936857 7.5789662L26.4300487 11.2467604C26.6010616 11.5382225 26.7382901 11.6575621 27.1490952 11.6575621L29.0144453 11.6575621C29.2542375 11.6575621 29.5448163 11.5034564 29.2712948 11.0750787L26.7723496 6.92799747C27.6110721 6.39680919 28.5523583 5.64269925 28.5523583 3.98015322 28.5523583 1.83837519 27.3541676.638201527 24.7185442.638201527L20.9023375.638201527C20.5598715.638201527 20.4568126.758477848 20.4568126 1.10090448L20.4568126 11.1949143C20.4568126 11.5382225 20.5598715 11.6575621 20.9023375 11.6575621L22.4765585 11.6575621C22.8193546 11.6575621 22.9219734 11.5382225 22.9219734 11.1949143L22.9219734 2.67771989 24.5475863 2.67771989C25.5742139 2.67771989 26.0705805 3.0548575 26.0705805 4.0148642 26.0705805 4.88847911 25.6769427 5.16286119 25.28358 5.33404696 24.7873235 5.53994371 24.6158704 5.31696695 24.4620248 5.96843155M13.2523167 11.1949143C13.2523167 11.5382225 13.3548254 11.6575621 13.6971263 11.6575621L15.2719526 11.6575621C15.6143635 11.6575621 15.7168722 11.5382225 15.7168722 11.1949143L15.7168722 2.72951088 18.6266225 2.72951088C18.9689234 2.72951088 19.0714321 2.60928966 19.0714321 2.26686303L19.0714321 1.10090448C19.0714321.758477848 18.9689234.638201527 18.6266225.638201527L10.3430066.638201527C10.0002105.638201527 9.89759178.758477848 9.89759178 1.10090448L9.89759178 2.26686303C9.89759178 2.60928966 10.0002105 2.72951088 10.3430066 2.72951088L13.2523167 2.72951088 13.2523167 11.1949143"/>
            </g>
        </g>
    </g>
</svg>