<svg width="24" height="16" viewBox="0 0 24 16" xmlns="http://www.w3.org/2000/svg"><g fill="none" fill-rule="evenodd"><path fill="#AF001E" d="M0 16h24V0H0z"/><path d="M5.332 8.055l-.113.473a1.147 1.147 0 0 0-.045.248c0 .112.034.202.113.338l1.339 2.411c.112.192.203.27.473.27h1.226c.158 0 .349-.101.169-.383L6.851 8.686c.551-.35 1.17-.845 1.17-1.939 0-1.408-.787-2.197-2.52-2.197H2.99c-.225 0-.293.08-.293.304v6.637c0 .226.068.304.293.304h1.035c.226 0 .293-.078.293-.304v-5.6h1.07c.674 0 1 .248 1 .88 0 .574-.258.754-.517.867-.326.135-.439-.012-.54.417m12.839 0l-.112.473a1.146 1.146 0 0 0-.045.248c0 .112.034.202.113.338l1.339 2.411c.112.192.203.27.473.27h1.226c.158 0 .349-.101.169-.383L19.69 8.686c.551-.35 1.17-.845 1.17-1.939 0-1.408-.788-2.197-2.52-2.197h-2.51c-.225 0-.293.08-.293.304v6.637c0 .226.068.304.293.304h1.035c.226 0 .293-.078.293-.304v-5.6h1.07c.674 0 1 .248 1 .88 0 .574-.258.754-.517.867-.326.135-.439-.012-.54.417M10.8 11.491c0 .226.068.304.293.304h1.035c.225 0 .293-.078.293-.304V5.925h1.913c.225 0 .293-.079.293-.304v-.767c0-.225-.068-.304-.293-.304H8.888c-.226 0-.293.08-.293.304v.767c0 .225.067.304.293.304H10.8v5.566" fill="#FFF"/></g></svg>