<svg xmlns="http://www.w3.org/2000/svg" width="28" height="72" viewBox="0 0 28 72">
  <g fill="none" fill-rule="evenodd">
    <g stroke="#DADAD2" transform="translate(4.5 4.5)">
      <path d="M17,8.5 C17,13.194125 13.194125,17 8.5,17 C3.805875,17 0,13.194125 0,8.5 C0,3.805875 3.805875,0 8.5,0 C13.194125,0 17,3.805875 17,8.5 L17,8.5 Z"/>
      <path stroke-linecap="round" d="M14,15 L19,20"/>
    </g>
    <g stroke="#4E4D47" transform="translate(4.5 48.5)">
      <path d="M17,8.5 C17,13.194125 13.194125,17 8.5,17 C3.805875,17 0,13.194125 0,8.5 C0,3.805875 3.805875,0 8.5,0 C13.194125,0 17,3.805875 17,8.5 L17,8.5 Z"/>
      <path stroke-linecap="round" d="M14,15 L19,20"/>
    </g>
  </g>
</svg>
