<svg viewBox="0 0 304 200" preserveAspectRatio="xMinYMin meet" xmlns="http://www.w3.org/2000/svg">
	<title>SRF Logo</title>
	<g fill="none" fill-rule="evenodd">
		<path fill="#AF001E" d="M0 200h304V0H0"/>
		<path d="M36.833 131.81l-1.767 11.324c-.293 2.21.738 3.09 2.65 3.384 4.267.588 15.002 1.322 25.435 1.322 23.387 0 40.444-7.647 40.444-29.41 0-12.796-5.586-22.354-24.998-27.355L67.713 88.28c-7.35-1.91-10.736-4.264-10.736-9.704 0-7.647 7.06-9.116 13.822-9.116 9.123 0 18.38.734 22.057 1.028 3.828.294 4.852-.148 5.443-3.384l1.768-11.03c.293-2.203-.74-3.088-2.65-3.378-4.266-.59-13.676-1.326-25.59-1.326-24.264 0-36.024 10.586-36.024 27.353 0 15.146 8.234 24.12 22.495 27.79l10.887 2.798c8.97 2.356 12.792 5 12.792 10.59 0 8.234-5.59 9.704-19.122 9.704-6.17 0-16.905-.882-20.58-1.176-3.83-.294-4.857.147-5.445 3.383M226.538 90.635v-20h38.528c2.943 0 3.823-1.033 3.823-3.972V56.367c0-2.94-.88-3.97-3.824-3.97h-55.883c-2.937 0-3.823 1.03-3.823 3.97v86.622c0 2.94.886 3.97 3.823 3.97h13.532c2.94 0 3.823-1.03 3.823-3.97v-34.12h34.997c2.94 0 3.824-1.028 3.824-3.97V94.607c0-2.945-.884-3.973-3.825-3.973h-34.997zM150.58 98.133l-1.474 6.178c-.44 1.764-.587 2.646-.587 3.233 0 1.474.44 2.65 1.472 4.416l17.494 31.47c1.473 2.5 2.65 3.53 6.177 3.53h16.03c2.058 0 4.56-1.322 2.21-5L170.43 106.37c7.202-4.558 15.295-11.03 15.295-25.29 0-18.385-10.295-28.68-32.942-28.68h-32.795c-2.944 0-3.823 1.027-3.823 3.97v86.62c0 2.943.88 3.972 3.823 3.972h13.53c2.943 0 3.824-1.03 3.824-3.97V69.895h13.97c8.823 0 13.087 3.24 13.087 11.474 0 7.497-3.38 9.856-6.765 11.325-4.26 1.762-5.737-.15-7.056 5.438" fill="#FFF"/>
	</g>
</svg>
