<?xml version="1.0" encoding="utf-8"?>
<!-- Generator: Adobe Illustrator 18.1.1, SVG Export Plug-In . SVG Version: 6.00 Build 0)  -->
<svg version="1.1" id="SRG_SSR_MS" xmlns="http://www.w3.org/2000/svg" xmlns:xlink="http://www.w3.org/1999/xlink" x="0px" y="0px"
	 viewBox="0 0 47 16" style="enable-background:new 0 0 47 16;" xml:space="preserve">
<style type="text/css">
	.st0{fill:#AF001D;}
	.st1{fill:#FFFFFF;}
</style>
<rect x="0" class="st0" width="47" height="16"/>
<g>
	<path class="st1" d="M3.1,10.7L3,11.6c0,0.2,0.1,0.3,0.2,0.3c0.3,0,1.2,0.1,2,0.1c1.9,0,3.3-0.6,3.3-2.4c0-1.1-0.5-1.9-2-2.3
		L5.6,7.1C5,6.9,4.8,6.7,4.8,6.3c0-0.6,0.6-0.8,1.1-0.8c0.7,0,1.5,0.1,1.8,0.1c0.3,0,0.4,0,0.4-0.3l0.1-0.9c0-0.2-0.1-0.3-0.2-0.3
		C7.7,4.1,6.9,4,6,4C4,4,3.1,4.9,3.1,6.3c0,1.3,0.7,2,1.8,2.3l0.9,0.2c0.7,0.2,1,0.4,1,0.9c0,0.7-0.5,0.8-1.5,0.8
		c-0.5,0-1.4-0.1-1.7-0.1C3.3,10.4,3.2,10.4,3.1,10.7z"/>
	<path class="st1" d="M12.3,7.9l-0.1,0.5c0,0.1,0,0.2,0,0.3c0,0.1,0,0.2,0.1,0.4l1.4,2.6c0.1,0.2,0.2,0.3,0.5,0.3h1.3
		c0.2,0,0.4-0.1,0.2-0.4l-1.7-2.9c0.6-0.4,1.2-0.9,1.2-2.1c0-1.5-0.8-2.4-2.7-2.4H9.9c-0.2,0-0.3,0.1-0.3,0.3v7.2
		c0,0.2,0.1,0.3,0.3,0.3h1.1c0.2,0,0.3-0.1,0.3-0.3V5.5h1.1c0.7,0,1.1,0.3,1.1,0.9c0,0.6-0.3,0.8-0.5,0.9
		C12.5,7.6,12.4,7.4,12.3,7.9z"/>
	<path class="st1" d="M22.3,11.5V7.5c0-0.2-0.1-0.3-0.3-0.3h-1.9c-0.2,0-0.3,0.1-0.3,0.3v0.8c0,0.2,0.1,0.3,0.3,0.3h0.6v1.7
		c-0.1,0-0.3,0-0.6,0c-1.6,0-2-1.1-2-2.5c0-1.9,0.7-2.3,2.2-2.3c0.5,0,1.1,0,1.4,0.1c0.3,0,0.4,0,0.4-0.3l0.1-0.9
		c0-0.2,0-0.4-0.3-0.4c-0.1,0-0.6-0.1-1.8-0.1c-2.8,0-3.9,1.5-3.9,3.9c0,2.4,0.9,4.1,3.8,4.1c1.3,0,1.8-0.1,2-0.1
		C22.3,11.8,22.3,11.7,22.3,11.5z"/>
	<path class="st1" d="M25.3,10.7l-0.1,0.9c0,0.2,0.1,0.3,0.2,0.3c0.3,0,1.2,0.1,2,0.1c1.9,0,3.3-0.6,3.3-2.4c0-1.1-0.5-1.9-2-2.3
		l-0.9-0.2c-0.6-0.2-0.9-0.4-0.9-0.8c0-0.6,0.6-0.8,1.1-0.8c0.7,0,1.5,0.1,1.8,0.1c0.3,0,0.4,0,0.4-0.3l0.1-0.9
		c0-0.2-0.1-0.3-0.2-0.3c-0.3,0-1.1-0.1-2.1-0.1c-2,0-2.9,0.9-2.9,2.3c0,1.3,0.7,2,1.8,2.3l0.9,0.2c0.7,0.2,1,0.4,1,0.9
		c0,0.7-0.5,0.8-1.5,0.8c-0.5,0-1.4-0.1-1.7-0.1C25.4,10.4,25.3,10.4,25.3,10.7z"/>
	<path class="st1" d="M31.4,10.7l-0.1,0.9c0,0.2,0.1,0.3,0.2,0.3c0.3,0,1.2,0.1,2,0.1c1.9,0,3.3-0.6,3.3-2.4c0-1.1-0.5-1.9-2-2.3
		l-0.9-0.2C33.3,6.9,33,6.7,33,6.3c0-0.6,0.6-0.8,1.1-0.8c0.7,0,1.5,0.1,1.8,0.1c0.3,0,0.4,0,0.4-0.3l0.1-0.9c0-0.2-0.1-0.3-0.2-0.3
		C36,4.1,35.2,4,34.2,4c-2,0-2.9,0.9-2.9,2.3c0,1.3,0.7,2,1.8,2.3L34,8.8c0.7,0.2,1,0.4,1,0.9c0,0.7-0.5,0.8-1.5,0.8
		c-0.5,0-1.4-0.1-1.7-0.1C31.6,10.4,31.5,10.4,31.4,10.7z"/>
	<path class="st1" d="M40.6,7.9l-0.1,0.5c0,0.1,0,0.2,0,0.3c0,0.1,0,0.2,0.1,0.4l1.4,2.6c0.1,0.2,0.2,0.3,0.5,0.3h1.3
		c0.2,0,0.4-0.1,0.2-0.4l-1.7-2.9c0.6-0.4,1.2-0.9,1.2-2.1c0-1.5-0.8-2.4-2.7-2.4h-2.6c-0.2,0-0.3,0.1-0.3,0.3v7.2
		c0,0.2,0.1,0.3,0.3,0.3h1.1c0.2,0,0.3-0.1,0.3-0.3V5.5h1.1c0.7,0,1.1,0.3,1.1,0.9c0,0.6-0.3,0.8-0.5,0.9
		C40.8,7.6,40.7,7.4,40.6,7.9z"/>
</g>
</svg>
