<svg id="SRG_SSR_MS" xmlns="http://www.w3.org/2000/svg" viewBox="0 0 47 16"><style>.st0{fill:#af001e}.st1{fill:#fff}</style><path class="st0" d="M0 0h47v16H0z"/><path class="st1" d="M3.1 10.7l-.1.9c0 .2.1.3.2.3.3 0 1.2.1 2 .1 1.9 0 3.3-.6 3.3-2.4 0-1.1-.5-1.9-2-2.3l-.9-.2c-.6-.2-.8-.4-.8-.8 0-.6.6-.8 1.1-.8.7 0 1.5.1 1.8.1.3 0 .4 0 .4-.3l.1-.9c0-.2-.1-.3-.2-.3-.3 0-1.1-.1-2-.1-2 0-2.9.9-2.9 2.3 0 1.3.7 2 1.8 2.3l.9.2c.7.2 1 .4 1 .9 0 .7-.5.8-1.5.8-.5 0-1.4-.1-1.7-.1-.3 0-.4 0-.5.3zm9.2-2.8l-.1.5v.3c0 .1 0 .2.1.4l1.4 2.6c.1.2.2.3.5.3h1.3c.2 0 .4-.1.2-.4L14 8.7c.6-.4 1.2-.9 1.2-2.1 0-1.5-.8-2.4-2.7-2.4H9.9c-.2 0-.3.1-.3.3v7.2c0 .2.1.3.3.3H11c.2 0 .3-.1.3-.3V5.5h1.1c.7 0 1.1.3 1.1.9 0 .6-.3.8-.5.9-.5.3-.6.1-.7.6zm10 3.6v-4c0-.2-.1-.3-.3-.3h-1.9c-.2 0-.3.1-.3.3v.8c0 .2.1.3.3.3h.6v1.7h-.6c-1.6 0-2-1.1-2-2.5 0-1.9.7-2.3 2.2-2.3.5 0 1.1 0 1.4.1.3 0 .4 0 .4-.3l.1-.9c0-.2 0-.4-.3-.4-.1 0-.6-.1-1.8-.1-2.8 0-3.9 1.5-3.9 3.9s.9 4.1 3.8 4.1c1.3 0 1.8-.1 2-.1.3 0 .3-.1.3-.3zm3-.8l-.1.9c0 .2.1.3.2.3.3 0 1.2.1 2 .1 1.9 0 3.3-.6 3.3-2.4 0-1.1-.5-1.9-2-2.3l-.9-.2c-.6-.2-.9-.4-.9-.8 0-.6.6-.8 1.1-.8.7 0 1.5.1 1.8.1.3 0 .4 0 .4-.3l.1-.9c0-.2-.1-.3-.2-.3-.3 0-1.1-.1-2.1-.1-2 0-2.9.9-2.9 2.3 0 1.3.7 2 1.8 2.3l.9.2c.7.2 1 .4 1 .9 0 .7-.5.8-1.5.8-.5 0-1.4-.1-1.7-.1-.2 0-.3 0-.3.3zm6.1 0l-.1.9c0 .2.1.3.2.3.3 0 1.2.1 2 .1 1.9 0 3.3-.6 3.3-2.4 0-1.1-.5-1.9-2-2.3l-.9-.2c-.6-.2-.9-.4-.9-.8 0-.6.6-.8 1.1-.8.7 0 1.5.1 1.8.1.3 0 .4 0 .4-.3l.1-.9c0-.2-.1-.3-.2-.3-.2 0-1-.1-2-.1-2 0-2.9.9-2.9 2.3 0 1.3.7 2 1.8 2.3l.9.2c.7.2 1 .4 1 .9 0 .7-.5.8-1.5.8-.5 0-1.4-.1-1.7-.1-.2 0-.3 0-.4.3zm9.2-2.8l-.1.5v.3c0 .1 0 .2.1.4l1.4 2.6c.1.2.2.3.5.3h1.3c.2 0 .4-.1.2-.4l-1.7-2.9c.6-.4 1.2-.9 1.2-2.1 0-1.5-.8-2.4-2.7-2.4h-2.6c-.2 0-.3.1-.3.3v7.2c0 .2.1.3.3.3h1.1c.2 0 .3-.1.3-.3V5.5h1.1c.7 0 1.1.3 1.1.9 0 .6-.3.8-.5.9-.5.3-.6.1-.7.6z"/></svg>