<?xml version="1.0" encoding="utf-8"?>
<!-- Generator: Adobe Illustrator 18.1.1, SVG Export Plug-In . SVG Version: 6.00 Build 0)  -->
<svg version="1.1" xmlns="http://www.w3.org/2000/svg" xmlns:xlink="http://www.w3.org/1999/xlink" x="0px" y="0px"
	 viewBox="0 0 22 14" enable-background="new 0 0 22 14" xml:space="preserve">
<g id="Ebene_1">
</g>
<g id="Untertitel">
	<g id="icon_untertitel_1_">
		<path fill-rule="evenodd" clip-rule="evenodd" fill="#222222" d="M0,0h22v14H0V0z"/>
		<path fill-rule="evenodd" clip-rule="evenodd" d="M4,1h14v12H4V1z"/>
		<path fill-rule="evenodd" clip-rule="evenodd" d="M3,2h1v10H3V2z"/>
		<path fill-rule="evenodd" clip-rule="evenodd" d="M18,2h1v10h-1V2z"/>
		<path fill-rule="evenodd" clip-rule="evenodd" fill="#FFFFFF" d="M4,1h14v12H4V1z"/>
		<path fill-rule="evenodd" clip-rule="evenodd" fill="#FFFFFF" d="M3,2h1v10H3V2z"/>
		<path fill-rule="evenodd" clip-rule="evenodd" fill="#FFFFFF" d="M18,2h1v10h-1V2z"/>
		<path fill-rule="evenodd" clip-rule="evenodd" d="M12,3h5v1h-5V3z"/>
		<path fill-rule="evenodd" clip-rule="evenodd" d="M14,4h1v7h-1V4z"/>
		<path fill-rule="evenodd" clip-rule="evenodd" d="M5,3h1v7H5V3z"/>
		<path fill-rule="evenodd" clip-rule="evenodd" d="M9,3h1v7H9V3z"/>
		<path fill-rule="evenodd" clip-rule="evenodd" d="M6,10h3v1H6V10z"/>
	</g>
</g>
</svg>
