<?xml version="1.0" encoding="UTF-8"?>
<svg width="24px" height="24px" viewBox="0 0 24 24" version="1.1" xmlns="http://www.w3.org/2000/svg" xmlns:xlink="http://www.w3.org/1999/xlink">
    <!-- Generator: Sketch 51.3 (57544) - http://www.bohemiancoding.com/sketch -->
    <title>Icons/Phone_Icon</title>
    <desc>Created with Sketch.</desc>
    <defs></defs>
    <g id="Icons/Phone_Icon" stroke="none" stroke-width="1" fill="none" fill-rule="evenodd" stroke-linecap="round" stroke-linejoin="round">
        <g id="phone" stroke="#4E4D47">
            <path d="M15.04,22.39 L15.052,22.397 C17.2399797,23.789996 20.1019519,23.4761104 21.936,21.642 L22.71,20.868 C23.4298164,20.1472799 23.4298164,18.9797201 22.71,18.259 L19.449,15 C18.7282799,14.2801836 17.5607201,14.2801836 16.84,15 C16.4943054,15.3461205 16.0251872,15.5406049 15.536,15.5406049 C15.0468128,15.5406049 14.5776946,15.3461205 14.232,15 L9.014,9.781 C8.29418363,9.06027994 8.29418363,7.89272006 9.014,7.172 C9.36012055,6.82630544 9.5546049,6.35718725 9.5546049,5.868 C9.5546049,5.37881275 9.36012055,4.90969456 9.014,4.564 L5.754,1.3 C5.03327994,0.58018363 3.86572006,0.58018363 3.145,1.3 L2.371,2.074 C0.537284735,3.90814349 0.223038508,6.7696131 1.615,8.958 L1.623,8.97 C5.19641263,14.259825 9.7509741,18.8154048 15.04,22.39 Z" id="Shape"></path>
        </g>
    </g>
</svg>