<?xml version="1.0" encoding="UTF-8"?>
<svg width="24px" height="24px" viewBox="0 0 24 24" version="1.1" xmlns="http://www.w3.org/2000/svg" xmlns:xlink="http://www.w3.org/1999/xlink">
    <!-- Generator: Sketch 51.3 (57544) - http://www.bohemiancoding.com/sketch -->
    <title>Icons/Webcam_Icon_Outline</title>
    <desc>Created with Sketch.</desc>
    <defs></defs>
    <g id="Icons/Webcam_Icon_Outline" stroke="none" stroke-width="1" fill="none" fill-rule="evenodd">
        <path d="M16.5,8.22204535 L21.6681526,4.94577826 C22.1268478,4.65488899 22.5010465,4.86616646 22.5010465,5.41426308 L22.4990346,18.7298469 C22.4980287,19.2789642 22.1238301,19.489221 21.6651349,19.1983317 L16.5,15.9210002 L16.5,18.9124 C16.5,19.7892073 15.7892073,20.5 14.9124,20.5 L2.0876,20.5 C1.21079273,20.5 0.5,19.7892073 0.5,18.9124 L0.5,5.0876 C0.5,4.21079273 1.21079273,3.5 2.0876,3.5 L14.9124,3.5 C15.7892073,3.5 16.5,4.21079273 16.5,5.0876 L16.5,8.22204535 Z" id="Combined-Shape" stroke="#4E4D47" transform="translate(11.500523, 12.000000) scale(-1, 1) rotate(-540.000000) translate(-11.500523, -12.000000) "></path>
    </g>
</svg>