<?xml version="1.0" encoding="UTF-8"?>
<svg width="27px" height="21px" viewBox="0 0 27 21" version="1.1" xmlns="http://www.w3.org/2000/svg" xmlns:xlink="http://www.w3.org/1999/xlink">
    <!-- Generator: Sketch 51.3 (57544) - http://www.bohemiancoding.com/sketch -->
    <title>Group 3</title>
    <desc>Created with Sketch.</desc>
    <defs></defs>
    <g id="Radio-Collection-Beispiele" stroke="none" stroke-width="1" fill="none" fill-rule="evenodd">
        <g id="RLP_Radio_SRF1_Jetzt_hoeren_B1" transform="translate(-306.000000, -458.000000)">
            <g id="Group" transform="translate(293.000000, 442.000000)">
                <g id="Group-2">
                    <g id="Radio/Social_Button">
                        <g id="Group-3" transform="translate(13.000000, 16.000000)">
                            <g id="Icons/Webcam_Icon_Outline" transform="translate(3.000000, 0.000000)" stroke="#4E4D47">
                                <path d="M16.5,8.22204535 L21.6681526,4.94577826 C22.1268478,4.65488899 22.5010465,4.86616646 22.5010465,5.41426308 L22.4990346,18.7298469 C22.4980287,19.2789642 22.1238301,19.489221 21.6651349,19.1983317 L16.5,15.9210002 L16.5,18.9124 C16.5,19.7892073 15.7892073,20.5 14.9124,20.5 L2.0876,20.5 C1.21079273,20.5 0.5,19.7892073 0.5,18.9124 L0.5,5.0876 C0.5,4.21079273 1.21079273,3.5 2.0876,3.5 L14.9124,3.5 C15.7892073,3.5 16.5,4.21079273 16.5,5.0876 L16.5,8.22204535 Z" id="Combined-Shape" transform="translate(11.500523, 12.000000) scale(-1, 1) rotate(-540.000000) translate(-11.500523, -12.000000) "></path>
                            </g>
                            <circle id="Oval-4" fill="#E31F2B" fill-rule="nonzero" cx="4" cy="4" r="4"></circle>
                        </g>
                    </g>
                </g>
            </g>
        </g>
    </g>
</svg>