<?xml version="1.0" encoding="UTF-8"?>
<svg width="24px" height="24px" viewBox="0 0 24 24" version="1.1" xmlns="http://www.w3.org/2000/svg" xmlns:xlink="http://www.w3.org/1999/xlink">
    <!-- Generator: Sketch 51.3 (57544) - http://www.bohemiancoding.com/sketch -->
    <title>Icons/WhatsApp_Icon_Outline</title>
    <desc>Created with Sketch.</desc>
    <defs></defs>
    <g id="Icons/WhatsApp_Icon_Outline" stroke="none" stroke-width="1" fill="none" fill-rule="evenodd" stroke-linecap="round" stroke-linejoin="round">
        <g id="messaging-whatsapp" stroke="#4E4D47">
            <path d="M12,0.75 C5.81112334,0.727847847 0.773056164,5.72117197 0.74,11.91 C0.735563894,14.2627615 1.48560999,16.5549584 2.88,18.45 L1.48,22.6 L5.8,21.23 C9.24558565,23.4924784 13.6520348,23.6914155 17.2874751,21.7486229 C20.9229153,19.8058303 23.2062281,16.0318598 23.24,11.91 C23.206956,5.72899912 18.1810792,0.738893689 12,0.75 M18.07,14.66 C18,14.54 17.8,14.46 17.51,14.32 C17.22,14.18 15.77,13.47 15.51,13.37 C15.25,13.27 15.04,13.22 14.85,13.52 C14.66,13.82 14.35,14.25 14.18,14.44 C14.01,14.63 13.84,14.66 13.54,14.51 C11.8287709,13.7642961 10.3848591,12.515696 9.4,10.93 C9.23,10.64 9.4,10.48 9.53,10.34 C10.02,9.85 10.03,9.92 10.15,9.68 C10.2371687,9.52117408 10.2371687,9.32882592 10.15,9.17 C10,9 9.45,7.58 9.2,7 C8.95,6.42 7.69,6.31 7.2,6.85 C2,12.33 14.67,21.72 17.91,16 C18.1804744,15.6143484 18.2405041,15.1191035 18.07,14.68" id="Shape"></path>
        </g>
    </g>
</svg>