<?xml version="1.0" encoding="utf-8"?>
<!-- Generator: Adobe Illustrator 18.1.1, SVG Export Plug-In . SVG Version: 6.00 Build 0)  -->
<svg version="1.1" id="Hoerfilm" xmlns="http://www.w3.org/2000/svg" xmlns:xlink="http://www.w3.org/1999/xlink" x="0px" y="0px"
	 viewBox="0 0 22 14" enable-background="new 0 0 22 14" xml:space="preserve">
<g id="icon_hoerfilm_1_">
	<rect x="0" y="0" fill-rule="evenodd" clip-rule="evenodd" fill="#222222" width="22" height="14"/>
	<g>
		<polygon fill-rule="evenodd" clip-rule="evenodd" fill="#FFFFFF" points="19,0 19,1 17,1 17,2 16,2 16,3 18,3 18,2 20,2 20,1 
			22,1 22,0 		"/>
		<polygon fill-rule="evenodd" clip-rule="evenodd" fill="#FFFFFF" points="5,3 5,4 4,4 4,5 3,5 3,6 5,6 5,5 6,5 6,4 15,4 15,3 		
			"/>
		<polygon fill-rule="evenodd" clip-rule="evenodd" fill="#FFFFFF" points="17,4 15,4 15,5 16,5 16,6 18,6 18,5 17,5 		"/>
		<rect x="8" y="5" fill-rule="evenodd" clip-rule="evenodd" fill="#FFFFFF" width="5" height="4"/>
		<polygon fill-rule="evenodd" clip-rule="evenodd" fill="#FFFFFF" points="5,9 5,8 3,8 3,9 4,9 4,10 6,10 6,9 		"/>
		<rect x="6" y="10" fill-rule="evenodd" clip-rule="evenodd" fill="#FFFFFF" width="9" height="1"/>
		<polygon fill-rule="evenodd" clip-rule="evenodd" fill="#FFFFFF" points="16,9 15,9 15,10 17,10 17,9 18,9 18,8 16,8 		"/>
		<rect x="3" y="10.9" fill-rule="evenodd" clip-rule="evenodd" fill="#FFFFFF" width="2" height="1"/>
		<rect x="1" y="11.9" fill-rule="evenodd" clip-rule="evenodd" fill="#FFFFFF" width="2" height="1"/>
		<rect x="0" y="13" fill-rule="evenodd" clip-rule="evenodd" fill="#FFFFFF" width="1" height="1"/>
	</g>
</g>
</svg>
